<svg xmlns="http://www.w3.org/2000/svg" width="800" height="800" viewBox="0 0 32 32"><path d="M3.58 12.75a.75.75 0 0 0 .75-.75V2a.75.75 0 0 0-1.5 0v10c0 .414.336.75.75.75m0 6.5a.75.75 0 0 0-.75.75v10a.75.75 0 0 0 1.5 0V20a.75.75 0 0 0-.75-.75m2.661 0a.75.75 0 0 0-.75.75v10a.75.75 0 0 0 1.5 0V20a.75.75 0 0 0-.75-.75m0-6.5a.75.75 0 0 0 .75-.75V2a.75.75 0 0 0-1.5 0v10c0 .414.336.75.75.75m2.661 6.5a.75.75 0 0 0-.75.75v10a.75.75 0 0 0 1.5 0V20a.75.75 0 0 0-.75-.75m0-6.5a.75.75 0 0 0 .75-.75V2a.75.75 0 0 0-1.5 0v10c0 .414.336.75.75.75m19.518 6.5a.75.75 0 0 0-.75.75v10a.75.75 0 0 0 1.5 0V20a.75.75 0 0 0-.75-.75m0-6.5a.75.75 0 0 0 .75-.75V2a.75.75 0 0 0-1.5 0v10c0 .414.336.75.75.75m-5.322 6.5a.75.75 0 0 0-.75.75v10a.75.75 0 0 0 1.5 0V20a.75.75 0 0 0-.75-.75m0-6.5a.75.75 0 0 0 .75-.75V2a.75.75 0 0 0-1.5 0v10c0 .414.336.75.75.75m-6.211 6.5a.75.75 0 0 0-.75.75v10a.75.75 0 0 0 1.5 0V20a.75.75 0 0 0-.75-.75m0-6.5a.75.75 0 0 0 .75-.75V2a.75.75 0 0 0-1.5 0v10c0 .414.336.75.75.75m-2.661 6.5a.75.75 0 0 0-.75.75v10a.75.75 0 0 0 1.5 0V20a.75.75 0 0 0-.75-.75m0-6.5a.75.75 0 0 0 .75-.75V2a.75.75 0 0 0-1.5 0v10c0 .414.336.75.75.75M30 15.25H2a.75.75 0 0 0 0 1.5h28a.75.75 0 0 0 0-1.5"/></svg>