<svg width="106" height="90" viewBox="0 0 106 90" fill="none" xmlns="http://www.w3.org/2000/svg">

<symbol id="location-icon">
  <path d="M3 -6.10352e-05C1.34581 -6.10352e-05 0 1.40333 0 3.1283C0 5.29639 3.00295 8.99994 3.00295 8.99994C3.00295 8.99994 6 5.18977 6 3.1283C6 1.40333 4.65424 -6.10352e-05 3 -6.10352e-05ZM3.90516 4.04428C3.65558 4.30449 3.32781 4.43463 3 4.43463C2.67224 4.43463 2.34437 4.30449 2.09489 4.04428C1.59577 3.52386 1.59577 2.67703 2.09489 2.15656C2.33658 1.90442 2.65807 1.76555 3 1.76555C3.34193 1.76555 3.66337 1.90447 3.90516 2.15656C4.40428 2.67703 4.40428 3.52386 3.90516 4.04428Z" fill="white"></path>
</symbol>
</svg>