 <svg version="1.0" xmlns="http://www.w3.org/2000/svg" width="300.000000pt" height="300.000000pt" viewBox="0 0 300.000000 300.000000" preserveAspectRatio="xMidYMid meet">  <g transform="translate(0.000000,300.000000) scale(0.100000,-0.100000)" fill="#d6d1d1" stroke="none"> <path d="M1730 2680 c-9 -16 -8 -25 1 -36 26 -32 84 0 62 34 -16 26 -50 27 -63 2z m48 -17 c-2 -10 -10 -18 -18 -18 -8 0 -16 8 -18 18 -2 12 3 17 18 17 15 0 20 -5 18 -17z"></path> <path d="M1182 2678 c-30 -30 3 -77 40 -57 30 16 16 69 -17 69 -6 0 -16 -5 -23 -12z m38 -28 c0 -21 -24 -28 -35 -10 -8 14 3 30 21 30 8 0 14 -9 14 -20z"></path> <path d="M1726 2562 c-3 -6 -26 -80 -51 -165 -24 -85 -47 -162 -51 -171 -3 -9 -1 -16 5 -16 5 0 15 19 21 43 7 23 29 102 51 176 35 118 44 163 25 133z"></path> <path d="M1232 2530 c6 -29 90 -323 95 -329 2 -2 6 -2 9 1 7 7 -86 329 -99 343 -6 6 -8 1 -5 -15z"></path> <path d="M2210 2395 c-29 -35 20 -74 56 -45 18 16 18 25 -2 44 -19 20 -38 20 -54 1z m45 -25 c0 -8 -8 -16 -17 -18 -13 -2 -18 3 -18 18 0 15 5 20 18 18 9 -2 17 -10 17 -18z"></path> <path d="M720 2362 c-19 -16 -21 -22 -11 -40 6 -12 18 -22 26 -22 15 0 45 26 45 40 0 8 -28 40 -35 40 -1 0 -13 -8 -25 -18z m38 -25 c2 -12 -3 -17 -17 -17 -12 0 -21 6 -21 13 0 31 32 34 38 4z"></path> <path d="M2050 2219 c-58 -51 -120 -105 -139 -121 -18 -16 -31 -32 -28 -35 7 -6 277 226 277 238 0 5 -1 9 -3 9 -1 0 -50 -41 -107 -91z"></path> <path d="M816 2261 c48 -43 232 -199 244 -206 30 -17 -27 39 -127 126 -56 49 -107 89 -114 89 -8 0 -9 -3 -3 -9z"></path> <path d="M1571 2081 c-16 -29 -13 -36 7 -18 19 18 32 14 32 -10 0 -10 -21 -13 -84 -13 l-84 0 -4 -62 c-1 -35 -1 -93 1 -130 l3 -68 85 0 c81 0 84 1 81 22 -3 19 -10 21 -62 22 l-60 1 1 35 0 35 51 -3 c50 -2 52 -2 52 24 0 25 -2 26 -52 22 l-53 -3 0 30 c1 26 5 30 34 33 18 2 39 -2 47 -9 23 -19 47 12 48 63 1 32 -3 43 -16 46 -9 2 -21 -6 -27 -17z"></path> <path d="M1363 2075 c-3 -9 -3 -19 1 -22 3 -4 6 -1 6 5 0 18 27 14 34 -4 4 -9 9 -14 13 -10 7 7 -26 46 -39 46 -5 0 -11 -7 -15 -15z"></path> <path d="M970 1910 l0 -131 88 3 c79 3 87 5 87 23 0 18 -6 20 -62 17 l-63 -4 0 42 0 41 55 -6 c55 -7 55 -7 55 20 0 27 -1 27 -55 23 l-55 -5 0 34 0 33 60 0 c53 0 60 2 60 20 0 18 -7 20 -85 20 l-85 0 0 -130z"></path> <path d="M1206 1913 c43 -126 44 -128 74 -128 30 0 31 2 74 128 l43 127 -27 0 c-25 0 -28 -6 -55 -95 -15 -52 -31 -95 -34 -95 -3 0 -19 43 -35 95 -28 90 -31 95 -57 95 l-27 0 44 -127z"></path> <path d="M1657 1938 c1 -57 2 -115 3 -130 0 -23 4 -28 25 -28 l25 0 -5 90 c-3 50 -2 90 2 90 8 -1 96 -145 101 -167 2 -7 17 -13 33 -13 l29 0 0 130 0 130 -26 0 -27 0 5 -85 c6 -86 0 -103 -20 -62 -6 12 -25 45 -42 72 -17 28 -33 56 -36 63 -4 6 -20 12 -38 12 l-31 0 2 -102z"></path> <path d="M1910 2020 c0 -17 7 -20 41 -20 l41 0 -4 -110 -3 -110 28 0 c15 0 27 4 27 8 0 5 73 19 163 31 89 13 166 27 171 32 6 6 6 9 0 9 -14 0 -276 -39 -306 -46 l-28 -6 0 86 c0 47 1 89 3 94 1 4 17 7 35 7 27 0 32 4 32 23 0 21 -3 22 -100 22 -93 0 -100 -1 -100 -20z"></path> <path d="M2456 1891 c-19 -21 -12 -48 15 -56 22 -7 49 10 49 31 0 14 -27 44 -39 44 -4 0 -15 -8 -25 -19z m42 -24 c2 -12 -3 -17 -17 -17 -12 0 -21 6 -21 13 0 31 32 34 38 4z"></path> <path d="M489 1844 c-9 -11 -10 -20 -2 -32 15 -24 44 -27 59 -7 28 38 -27 75 -57 39z m48 -10 c8 -21 -13 -42 -28 -27 -13 13 -5 43 11 43 6 0 13 -7 17 -16z"></path> <path d="M1359 1816 c14 -14 29 -26 34 -26 13 0 -12 29 -37 42 -19 10 -18 8 3 -16z"></path> <path d="M620 1811 c0 -6 4 -11 9 -11 11 0 280 -38 326 -45 18 -3 26 -2 20 4 -6 5 -77 19 -160 31 -82 12 -160 24 -172 27 -14 3 -23 1 -23 -6z"></path> <path d="M1885 1781 c8 -14 -32 -33 -63 -29 -15 2 -26 9 -24 16 1 6 -2 12 -8 12 -5 0 -10 -9 -10 -19 0 -28 50 -37 89 -16 30 15 43 45 20 45 -5 0 -8 -4 -4 -9z"></path> <path d="M1155 1763 c40 -6 61 -23 43 -34 -22 -14 -47 -10 -68 11 -13 13 -22 16 -26 8 -19 -31 91 -54 115 -24 18 22 -13 46 -57 45 -34 -2 -35 -2 -7 -6z"></path> <path d="M1683 1747 c-24 -5 -43 -14 -43 -19 0 -5 8 -7 18 -4 9 2 32 7 50 11 17 4 32 11 32 16 0 10 0 10 -57 -4z"></path> <path d="M1260 1732 c0 -10 100 -25 109 -17 8 9 -3 12 -56 19 -30 4 -53 3 -53 -2z"></path> <path d="M1630 1651 c0 -11 89 -45 97 -37 3 3 -15 15 -41 26 -54 23 -56 23 -56 11z"></path> <path d="M1322 1623 c-24 -14 -41 -27 -39 -30 7 -6 97 39 97 49 0 12 -11 8 -58 -19z"></path> <path d="M1764 1599 c-3 -6 -1 -16 5 -22 8 -8 11 -6 11 6 0 21 22 22 63 1 l32 -17 -19 22 c-21 23 -80 29 -92 10z"></path> <path d="M1190 1580 c-11 -7 -5 -8 19 -3 30 5 33 4 28 -11 -5 -12 -3 -16 5 -14 7 3 13 11 13 19 0 17 -44 23 -65 9z"></path> <path d="M1500 1556 c0 -8 5 -18 10 -21 6 -3 10 3 10 14 0 12 -4 21 -10 21 -5 0 -10 -6 -10 -14z"></path> <path d="M840 1440 l0 -116 73 4 c46 3 78 10 90 20 25 22 22 67 -8 90 -20 16 -22 21 -10 26 18 7 20 59 3 74 -7 5 -43 12 -80 14 l-68 4 0 -116z m115 50 c0 -22 -5 -25 -37 -28 -36 -3 -38 -2 -38 28 0 30 2 31 38 28 32 -3 37 -6 37 -28z m16 -76 c20 -25 -1 -48 -49 -52 -40 -3 -40 -3 -39 32 1 35 2 36 38 36 21 0 42 -7 50 -16z"></path> <path d="M1103 1540 c-22 -13 -35 -31 -43 -60 -29 -108 58 -193 150 -145 39 20 50 43 50 105 0 64 -12 88 -55 106 -45 19 -64 18 -102 -6z m97 -40 c43 -43 15 -140 -40 -140 -33 0 -60 35 -60 80 0 45 27 80 60 80 11 0 29 -9 40 -20z"></path> <path d="M1360 1547 c-30 -15 -60 -71 -60 -113 0 -43 38 -96 78 -108 24 -6 43 -5 71 6 39 16 39 15 46 -9 7 -29 38 -28 43 2 3 17 1 17 -8 5 -9 -13 -12 -13 -24 3 -11 14 -12 26 -4 48 11 31 23 37 31 17 4 -10 6 -10 6 0 1 7 -6 15 -14 18 -9 4 -15 19 -15 40 0 45 -23 80 -62 93 -40 14 -57 14 -88 -2z m90 -47 c45 -45 14 -140 -44 -140 -33 0 -56 35 -56 87 0 32 5 46 22 57 30 21 54 20 78 -4z"></path> <path d="M1578 1540 c-51 -40 -32 -92 42 -114 37 -11 45 -17 45 -37 0 -30 -36 -38 -70 -15 -13 9 -31 13 -39 10 -29 -11 -16 -32 29 -50 57 -21 103 -11 125 29 23 41 -1 77 -65 98 -37 12 -50 21 -50 35 0 23 48 32 71 13 12 -10 18 -9 30 3 13 13 13 16 0 27 -29 24 -89 25 -118 1z"></path> <path d="M1734 1551 c-15 -16 0 -31 31 -31 l35 0 0 -101 c0 -98 0 -100 23 -97 21 3 22 8 23 98 l2 95 31 3 c21 2 31 9 31 20 0 15 -11 18 -86 17 -47 0 -88 -2 -90 -4z"></path> <path d="M1950 1440 l0 -115 75 0 c68 0 75 2 75 20 0 18 -5 20 -55 17 l-55 -4 0 36 0 36 50 0 c43 0 50 3 50 20 0 17 -5 18 -50 13 l-50 -6 0 33 0 32 55 -4 c50 -3 55 -1 55 17 0 18 -7 20 -75 20 l-75 0 0 -115z"></path> <path d="M2149 1556 c0 -1 -1 -53 -2 -116 -1 -112 -1 -115 21 -118 20 -3 22 1 22 48 0 50 1 51 26 48 21 -2 30 -12 43 -48 12 -33 23 -46 40 -48 20 -3 22 0 16 20 -4 13 -15 40 -24 60 -18 36 -18 38 0 54 24 21 24 46 2 72 -14 15 -33 21 -80 24 -35 2 -63 4 -64 4z m110 -54 c13 -25 2 -38 -36 -44 -32 -4 -33 -3 -33 29 0 30 3 33 30 33 18 0 33 -7 39 -18z"></path> <path d="M772 1356 c-59 -25 -95 -54 -52 -41 36 11 98 43 105 55 8 13 9 13 -53 -14z"></path> <path d="M2393 1343 c-16 -6 -17 -49 -2 -58 18 -12 59 4 59 23 0 32 -26 48 -57 35z m37 -33 c0 -21 -24 -28 -35 -10 -8 14 3 30 21 30 8 0 14 -9 14 -20z"></path> <path d="M580 1290 c-9 -16 -8 -25 1 -36 26 -32 84 0 62 34 -16 26 -50 27 -63 2z m48 -17 c-2 -10 -10 -18 -18 -18 -8 0 -16 8 -18 18 -2 12 3 17 18 17 15 0 20 -5 18 -17z"></path> <path d="M1800 1273 c0 -13 192 -303 201 -303 5 0 -9 28 -31 63 -22 34 -66 103 -98 154 -50 82 -72 108 -72 86z"></path> <path d="M1137 1110 c-54 -84 -96 -157 -95 -162 2 -6 48 58 101 142 54 83 96 157 95 162 -2 6 -48 -58 -101 -142z"></path> <path d="M1524 1000 c0 -107 2 -151 3 -97 2 53 2 141 0 195 -1 53 -3 9 -3 -98z"></path> <path d="M2032 908 c-16 -16 -15 -33 4 -52 21 -21 54 -4 54 28 0 33 -35 47 -58 24z m46 -25 c-5 -26 -38 -29 -38 -4 0 15 6 21 21 21 14 0 19 -5 17 -17z"></path> <path d="M965 886 c-20 -15 -17 -44 7 -59 12 -8 21 -7 32 2 36 30 -1 85 -39 57z m41 -17 c9 -15 -11 -33 -30 -26 -9 4 -13 13 -10 22 7 17 30 20 40 4z"></path> <path d="M1500 735 c-20 -25 -8 -50 25 -50 21 0 31 5 33 18 4 21 -14 47 -33 47 -7 0 -18 -7 -25 -15z m43 -11 c9 -9 -4 -34 -18 -34 -14 0 -27 25 -18 34 4 3 12 6 18 6 6 0 14 -3 18 -6z"></path> </g> </svg> 