<?xml version="1.0" standalone="no"?>
<!DOCTYPE svg PUBLIC "-//W3C//DTD SVG 20010904//EN"
 "http://www.w3.org/TR/2001/REC-SVG-20010904/DTD/svg10.dtd">
<svg version="1.0" xmlns="http://www.w3.org/2000/svg" width="300.000000pt" height="300.000000pt" viewBox="0 0 300.000000 300.000000" preserveAspectRatio="xMidYMid meet">
<metadata>
Created by potrace 1.10, written by Peter Selinger 2001-2011
</metadata>
<g transform="translate(0.000000,300.000000) scale(0.100000,-0.100000)" fill="#f6efef" stroke="none">
<path d="M0 1500 l0 -1500 1500 0 1500 0 0 1500 0 1500 -1500 0 -1500 0 0
-1500z m1791 1184 c9 -11 10 -20 2 -32 -15 -24 -44 -27 -59 -7 -28 38 27 75
57 39z m-563 -6 c30 -30 -4 -77 -41 -57 -29 17 -15 69 18 69 6 0 16 -5 23 -12z
m461 -289 c-28 -96 -53 -176 -55 -178 -15 -17 -6 25 37 169 56 190 58 195 65
188 2 -3 -18 -84 -47 -179z m-395 -20 c51 -172 50 -169 36 -169 -5 0 -10 7
-10 15 0 8 -20 83 -45 166 -25 83 -45 156 -45 162 1 27 21 -27 64 -174z m969
20 c15 -24 1 -49 -27 -49 -29 0 -44 33 -25 56 15 18 38 15 52 -7z m-1483 -50
c0 -13 -30 -39 -45 -39 -8 0 -20 10 -26 22 -10 18 -8 24 11 40 21 17 24 17 41
2 11 -10 19 -21 19 -25z m1380 -37 c0 -12 -270 -245 -276 -239 -4 4 264 246
274 247 1 0 2 -4 2 -8z m-1212 -134 c64 -56 121 -105 127 -110 5 -5 5 -8 -1
-8 -8 0 -199 157 -263 216 -2 2 1 4 8 4 7 0 65 -46 129 -102z m670 -99 c6 -52
-37 -112 -58 -80 -4 7 -22 11 -41 9 -29 -3 -33 -6 -33 -33 0 -29 0 -29 52 -26
49 2 52 1 52 -22 0 -24 -3 -25 -52 -24 l-51 2 0 -35 -1 -35 62 0 c58 0 62 -2
62 -22 0 -22 -4 -23 -85 -23 l-85 0 0 56 c0 30 -5 65 -11 76 -8 15 -8 19 0 14
8 -5 11 12 11 53 l0 61 85 0 c84 0 91 3 79 34 -5 13 -9 12 -25 -7 -20 -24 -25
-17 -8 14 14 27 43 20 47 -12z m-216 4 c10 -9 18 -23 18 -31 0 -9 -7 -6 -20 9
-17 21 -21 22 -30 9 -8 -13 -10 -13 -10 1 0 31 16 36 42 12z m-262 -55 c0 -22
-3 -23 -60 -20 l-60 4 0 -34 0 -33 55 3 c53 4 55 3 55 -22 0 -25 -1 -25 -55
-20 l-55 6 0 -42 0 -41 58 2 c58 2 62 1 62 -26 0 -12 -16 -15 -85 -15 l-85 0
0 130 0 130 85 0 c81 0 85 -1 85 -22z m89 -20 c7 -24 23 -54 34 -68 12 -13 15
-19 6 -12 -15 11 -15 8 -6 -28 6 -22 14 -40 18 -40 3 0 19 43 34 95 27 90 30
95 56 95 l27 0 -44 -127 c-43 -127 -43 -128 -74 -128 -30 0 -31 1 -75 128
l-44 127 28 0 c24 0 30 -6 40 -42z m537 -43 c27 -46 51 -85 54 -85 3 0 3 38 1
85 l-3 85 26 0 26 0 0 -129 0 -130 -37 -3 c-46 -4 -58 -28 -13 -28 37 0 73 17
65 31 -4 5 -1 9 4 9 23 0 10 -30 -20 -45 -55 -29 -120 5 -74 39 14 10 9 22
-32 93 -26 45 -51 82 -55 83 -4 0 -4 -40 -1 -90 l5 -90 -29 0 c-28 0 -29 2
-25 33 l5 32 -22 -19 c-11 -11 -21 -14 -21 -8 0 6 9 16 21 22 19 11 20 19 17
106 l-3 94 31 0 c28 0 35 -7 80 -85z m344 62 c0 -20 -4 -23 -35 -19 l-35 4 0
-97 0 -97 28 6 c65 14 305 46 310 41 8 -8 -19 -14 -178 -36 -85 -12 -156 -25
-158 -30 -2 -5 -16 -9 -30 -9 l-27 0 3 110 3 110 -40 0 c-34 0 -41 3 -41 20 0
19 7 20 100 20 98 0 100 -1 100 -23z m-690 -39 c0 -4 -4 -8 -9 -8 -6 0 -12 4
-15 8 -3 5 1 9 9 9 8 0 15 -4 15 -9z m377 -3 c9 -24 -1 -27 -15 -5 -8 13 -8
20 -2 20 6 0 13 -7 17 -15z m720 -101 c7 -20 -23 -47 -44 -40 -29 9 -37 35
-17 58 15 16 20 16 38 5 11 -8 21 -18 23 -23z m-971 -20 c-4 -9 -9 -15 -11
-12 -3 3 -3 13 1 22 4 9 9 15 11 12 3 -3 3 -13 -1 -22z m-997 -13 c13 -24 -8
-55 -34 -50 -28 6 -42 34 -26 53 18 22 48 20 60 -3z m841 -35 c7 -9 8 -16 3
-16 -10 0 -53 37 -53 46 0 8 36 -14 50 -30z m-575 -16 c152 -21 181 -27 173
-35 -2 -2 -80 7 -174 20 -93 14 -175 25 -181 25 -7 0 -13 5 -13 10 0 6 10 8
23 5 12 -2 90 -14 172 -25z m398 -38 c22 -24 5 -42 -41 -42 -40 0 -72 15 -72
35 0 29 88 35 113 7z m527 -1 c0 -5 -16 -12 -36 -15 -19 -4 -42 -10 -50 -13
-8 -3 -14 -1 -14 5 0 5 21 14 48 20 26 5 48 10 50 11 1 0 2 -3 2 -8z m-371
-27 c11 -9 -8 -11 -56 -7 -29 3 -53 9 -53 14 0 7 100 1 109 -7z m316 -85 c25
-11 44 -23 41 -26 -7 -7 -96 30 -96 40 0 10 2 10 55 -14z m-305 3 c0 -10 -91
-55 -97 -48 -3 2 17 16 44 30 56 29 53 28 53 18z m471 -52 l24 -21 -32 16
c-46 22 -67 20 -60 -7 5 -19 5 -20 -10 -6 -37 38 37 54 78 18z m-251 -11 c0
-6 -4 -7 -10 -4 -5 3 -10 11 -10 16 0 6 5 7 10 4 6 -3 10 -11 10 -16z m-344 0
c3 -6 -1 -18 -9 -26 -14 -14 -14 -18 0 -39 20 -32 20 -117 -1 -149 -24 -37
-83 -51 -129 -31 -96 40 -79 202 23 222 16 4 35 13 41 20 14 17 65 19 75 3z
m184 7 c0 -3 -4 -8 -10 -11 -5 -3 -10 -1 -10 4 0 6 5 11 10 11 6 0 10 -2 10
-4z m80 -48 c0 -25 -3 -29 -10 -18 -13 20 -13 50 0 50 6 0 10 -15 10 -32z
m-532 0 c17 -15 15 -67 -3 -74 -12 -5 -10 -10 10 -26 30 -23 33 -67 8 -91 -12
-10 -43 -16 -91 -19 l-72 -3 0 115 0 116 68 -4 c37 -2 73 -9 80 -14z m460 11
c39 -13 62 -48 62 -93 0 -21 6 -36 15 -40 8 -3 15 -13 15 -22 0 -10 5 -14 16
-10 8 3 26 -1 39 -10 34 -23 70 -15 70 15 0 19 -8 26 -43 36 -56 17 -72 31
-72 65 0 42 44 73 93 67 21 -3 45 -11 53 -18 13 -11 13 -14 0 -27 -12 -12 -18
-13 -30 -3 -23 19 -71 10 -71 -13 0 -14 13 -23 50 -35 40 -13 54 -23 67 -51
15 -30 18 -32 18 -12 0 13 -13 37 -29 53 -16 16 -25 29 -20 29 6 0 21 -12 34
-26 26 -28 34 -84 12 -84 -7 0 -18 -9 -24 -20 -31 -48 -156 -26 -168 31 -8 37
-18 37 -32 -1 -8 -23 -8 -33 3 -47 12 -16 15 -16 24 -3 9 12 11 12 8 -5 -4
-26 -31 -26 -42 1 -9 20 -11 20 -48 6 -51 -20 -95 -7 -127 38 l-24 35 7 -30
c6 -22 4 -27 -4 -19 -14 14 3 127 25 161 26 40 69 51 123 32z m462 -11 c0 -13
-8 -18 -30 -18 l-29 0 -3 -97 c-3 -92 -4 -96 -25 -98 -22 -2 -23 1 -23 97 l0
98 -34 0 c-27 0 -34 4 -31 18 2 9 4 17 4 17 1 0 39 0 86 0 74 0 85 -2 85 -17z
m190 -3 c0 -18 -5 -20 -55 -17 l-55 4 0 -31 c0 -30 1 -31 43 -30 l42 1 -34 14
c-18 8 -31 17 -28 20 10 11 77 -30 77 -48 0 -15 -8 -18 -50 -18 l-50 0 0 -36
0 -36 55 4 c50 3 55 1 55 -17 0 -18 -7 -20 -75 -20 l-75 0 0 115 0 115 75 0
c68 0 75 -2 75 -20z m195 -8 c22 -31 19 -53 -10 -75 -18 -15 -21 -21 -11 -25
12 -5 50 -96 43 -103 -2 -2 -13 -1 -24 2 -15 4 -27 20 -36 48 -11 33 -19 42
-40 44 -26 3 -27 2 -27 -46 0 -44 -2 -48 -22 -47 -20 1 -21 6 -22 114 -1 62 0
113 1 114 1 1 31 0 67 -1 54 -3 69 -8 81 -25z m-1265 -67 c-20 -13 -33 -13
-25 0 3 6 14 10 23 10 15 0 15 -2 2 -10z m1095 -10 c3 -5 2 -10 -4 -10 -5 0
-13 5 -16 10 -3 6 -2 10 4 10 5 0 13 -4 16 -10z m110 -58 c-3 -3 -11 0 -18 7
-9 10 -8 11 6 5 10 -3 15 -9 12 -12z m-1410 -23 c-8 -12 -116 -61 -123 -55 -4
5 106 65 121 66 5 0 5 -5 2 -11z m1616 -35 c17 -21 0 -49 -32 -49 -18 0 -25 6
-27 24 -6 38 34 55 59 25z m-1798 -46 c22 -34 -36 -66 -62 -34 -9 11 -10 20
-1 36 13 25 47 24 63 -2z m1276 -175 c49 -79 86 -143 82 -143 -9 0 -201 293
-201 307 0 16 31 -27 119 -164z m-770 -14 c-94 -147 -118 -180 -105 -145 12
34 190 309 194 298 1 -5 -38 -74 -89 -153z m378 -196 c-1 -54 -3 -10 -3 97 0
107 2 151 3 98 2 -54 2 -142 0 -195z m551 5 c18 -18 14 -46 -7 -58 -34 -18
-67 30 -39 58 7 7 17 12 23 12 6 0 16 -5 23 -12z m-1058 -47 c0 -28 -28 -47
-48 -34 -24 15 -27 44 -7 59 22 17 55 1 55 -25z m530 -126 c20 -25 8 -50 -25
-50 -21 0 -31 5 -33 18 -4 21 14 47 33 47 7 0 18 -7 25 -15z"></path>
<path d="M1751 2681 c-15 -10 -8 -41 9 -41 15 0 25 29 14 40 -5 5 -15 5 -23 1z"></path>
<path d="M1185 2660 c-8 -14 3 -30 21 -30 8 0 14 9 14 20 0 21 -24 28 -35 10z"></path>
<path d="M2220 2370 c0 -15 5 -20 18 -18 9 2 17 10 17 18 0 8 -8 16 -17 18
-13 2 -18 -3 -18 -18z"></path>
<path d="M727 2354 c-14 -15 -6 -34 14 -34 14 0 19 5 17 17 -3 18 -20 27 -31
17z"></path>
<path d="M1461 1914 c0 -11 3 -14 6 -6 3 7 2 16 -1 19 -3 4 -6 -2 -5 -13z"></path>
<path d="M1270 1820 c0 -5 5 -10 10 -10 6 0 10 5 10 10 0 6 -4 10 -10 10 -5 0
-10 -4 -10 -10z"></path>
<path d="M1686 1994 c-8 -22 1 -31 16 -16 9 9 9 15 1 23 -7 7 -12 5 -17 -7z"></path>
<path d="M1817 1840 c8 -31 23 -34 23 -6 0 16 -6 26 -14 26 -9 0 -12 -7 -9
-20z"></path>
<path d="M2467 1884 c-14 -15 -6 -34 14 -34 14 0 19 5 17 17 -3 18 -20 27 -31
17z"></path>
<path d="M503 1834 c-8 -21 13 -42 28 -27 13 13 5 43 -11 43 -6 0 -13 -7 -17
-16z"></path>
<path d="M1127 1753 c-4 -3 -7 -10 -7 -14 0 -11 49 -21 71 -14 16 5 18 10 8
21 -12 14 -60 19 -72 7z"></path>
<path d="M1198 1573 c-10 -2 -18 -8 -18 -13 0 -14 44 -20 52 -7 17 26 8 31
-34 20z"></path>
<path d="M1120 1500 c-43 -43 -15 -140 40 -140 33 0 60 35 60 80 0 45 -27 80
-60 80 -11 0 -29 -9 -40 -20z"></path>
<path d="M884 1490 c-1 -26 2 -30 25 -30 62 1 72 53 11 58 -33 3 -35 1 -36
-28z"></path>
<path d="M880 1419 c0 -7 10 -9 28 -5 24 6 25 5 7 -6 -48 -28 -45 -50 6 -46
49 3 71 27 50 52 -15 18 -91 22 -91 5z"></path>
<path d="M1390 1509 c0 -5 -4 -8 -9 -5 -31 20 -41 -93 -11 -129 18 -21 56 -19
81 6 18 18 20 30 16 67 -5 47 -25 72 -59 72 -10 0 -18 -5 -18 -11z m-23 -81
c-3 -7 -5 -2 -5 12 0 14 2 19 5 13 2 -7 2 -19 0 -25z"></path>
<path d="M2190 1488 c0 -33 1 -34 36 -30 31 4 35 7 32 31 -2 21 -9 27 -35 29
-31 3 -33 2 -33 -30z"></path>
<path d="M2400 1326 c-13 -17 -6 -36 15 -36 19 0 26 27 11 39 -10 8 -17 7 -26
-3z"></path>
<path d="M592 1273 c2 -10 10 -18 18 -18 8 0 16 8 18 18 2 12 -3 17 -18 17
-15 0 -20 -5 -18 -17z"></path>
<path d="M2040 879 c0 -14 5 -19 17 -17 26 5 29 38 4 38 -15 0 -21 -6 -21 -21z"></path>
<path d="M965 870 c-4 -7 -3 -16 3 -22 14 -14 45 -2 40 15 -6 16 -34 21 -43 7z"></path>
<path d="M1511 726 c-14 -17 -7 -36 14 -36 22 0 29 20 13 36 -13 13 -16 13
-27 0z"></path>
</g>
</svg>
