<?xml version="1.0" standalone="no"?>
<!DOCTYPE svg PUBLIC "-//W3C//DTD SVG 20010904//EN"
 "http://www.w3.org/TR/2001/REC-SVG-20010904/DTD/svg10.dtd">
<svg version="1.0" xmlns="http://www.w3.org/2000/svg" width="300.000000pt" height="300.000000pt" viewBox="0 0 300.000000 300.000000" preserveAspectRatio="xMidYMid meet">
<metadata>
Created by potrace 1.10, written by Peter Selinger 2001-2011
</metadata>
<g transform="translate(0.000000,300.000000) scale(0.100000,-0.100000)" fill="#e9e2e2" stroke="none">
<path d="M1270 2505 c-15 -18 -6 -45 13 -45 8 0 20 6 26 14 9 11 8 18 -4 30
-20 20 -20 20 -35 1z m30 -13 c0 -13 -12 -22 -22 -16 -10 6 -1 24 13 24 5 0 9
-4 9 -8z"></path>
<path d="M1667 2513 c-12 -11 -7 -33 8 -39 20 -8 45 13 38 32 -5 14 -34 19
-46 7z m33 -18 c0 -8 -4 -15 -9 -15 -13 0 -22 16 -14 24 11 11 23 6 23 -9z"></path>
<path d="M1660 2429 c0 -2 -16 -58 -35 -123 -35 -119 -42 -155 -26 -126 15 26
73 241 67 248 -3 3 -6 3 -6 1z"></path>
<path d="M1304 2405 c3 -9 20 -64 37 -123 17 -59 35 -111 41 -117 8 -7 9 -5 6
5 -2 8 -20 68 -39 132 -19 65 -38 118 -43 118 -4 0 -6 -7 -2 -15z"></path>
<path d="M2017 2307 c-12 -8 -16 -19 -11 -30 8 -21 27 -22 44 -1 11 12 11 18
-1 30 -12 12 -18 12 -32 1z m23 -22 c0 -8 -4 -15 -9 -15 -13 0 -22 16 -14 24
11 11 23 6 23 -9z"></path>
<path d="M934 2275 c-4 -9 -2 -21 4 -27 15 -15 44 -1 40 19 -4 23 -36 29 -44
8z m36 -16 c0 -5 -7 -9 -15 -9 -15 0 -20 12 -9 23 8 8 24 -1 24 -14z"></path>
<path d="M1868 2155 c-53 -47 -101 -85 -107 -85 -6 0 -11 -28 -13 -62 l-3 -62
-35 59 c-24 41 -42 61 -57 63 -22 3 -23 1 -23 -92 0 -91 1 -96 21 -96 20 0 21
4 17 65 -2 36 -1 65 2 65 3 -1 21 -29 41 -63 l37 -62 -25 -13 c-28 -15 -26
-36 5 -40 24 -4 62 14 62 29 0 5 -11 2 -25 -7 -15 -10 -32 -13 -42 -9 -15 6
-11 11 21 25 l39 18 -2 88 -2 89 76 65 c42 36 88 75 103 87 15 13 22 23 17 23
-6 0 -54 -38 -107 -85z"></path>
<path d="M1011 2214 c2 -7 39 -41 82 -78 43 -36 71 -66 63 -66 -13 0 -16 -16
-16 -95 l0 -95 65 0 c57 0 65 2 65 19 0 16 -6 18 -45 13 -45 -5 -45 -4 -45 26
0 30 1 30 41 25 36 -5 41 -4 37 13 -3 15 -10 18 -41 16 -34 -3 -37 -1 -37 22
0 24 3 26 45 26 33 0 45 4 45 15 0 11 -11 15 -41 15 -36 0 -50 8 -113 62 -100
87 -109 94 -105 82z"></path>
<path d="M1406 2078 c-2 -7 -9 -38 -16 -68 -20 -89 -25 -90 -51 -12 -18 56
-27 72 -42 72 -11 0 -17 -5 -14 -12 2 -7 17 -50 32 -96 24 -72 30 -83 48 -80
17 2 28 22 53 96 31 87 31 92 12 92 -10 0 -16 5 -13 10 3 6 4 10 0 10 -3 0 -7
-6 -9 -12z"></path>
<path d="M1555 2080 c-3 -5 -24 -10 -46 -10 l-39 0 2 -95 2 -95 64 0 c55 0 63
2 60 17 -3 14 -12 17 -46 15 -41 -3 -42 -3 -42 26 0 27 3 29 36 28 22 -1 39 4
41 12 3 8 -8 12 -36 12 -37 0 -41 2 -41 26 0 23 4 25 33 24 50 -3 57 -1 57 15
0 9 -9 15 -22 15 -19 0 -20 2 -8 10 9 6 10 10 3 10 -6 0 -15 -4 -18 -10z"></path>
<path d="M1810 2055 c0 -10 10 -15 31 -15 l31 0 -4 -81 -3 -82 65 6 c86 7 208
29 193 34 -11 4 -98 -7 -190 -23 l-33 -6 0 76 0 76 31 0 c20 0 29 4 27 13 -3
8 -30 13 -76 15 -60 2 -72 0 -72 -13z"></path>
<path d="M1277 1994 c-4 -7 1 -20 11 -31 9 -10 14 -14 11 -8 -4 5 -9 19 -11
30 -2 13 -6 16 -11 9z"></path>
<path d="M1440 1973 c0 -4 5 -15 10 -23 8 -13 10 -13 10 2 0 9 -4 20 -10 23
-5 3 -10 3 -10 -2z"></path>
<path d="M2192 1951 c-19 -11 -11 -45 11 -49 9 -2 20 4 23 13 9 21 -16 47 -34
36z m26 -22 c-2 -6 -8 -10 -13 -10 -5 0 -11 4 -13 10 -2 6 4 11 13 11 9 0 15
-5 13 -11z"></path>
<path d="M773 1904 c-3 -8 -1 -20 5 -26 16 -16 42 -2 42 22 0 24 -38 28 -47 4z
m37 -9 c0 -8 -4 -15 -9 -15 -13 0 -22 16 -14 24 11 11 23 6 23 -9z"></path>
<path d="M872 1884 c3 -3 50 -12 104 -19 55 -8 111 -17 127 -20 15 -2 27 -1
27 4 0 4 -53 15 -117 24 -127 18 -149 20 -141 11z"></path>
<path d="M1405 1880 c3 -5 11 -10 16 -10 6 0 7 5 4 10 -3 6 -11 10 -16 10 -6
0 -7 -4 -4 -10z"></path>
<path d="M1223 1853 c-19 -7 -16 -21 8 -33 25 -14 69 -5 69 14 0 22 -44 33
-77 19z m62 -12 c3 -5 1 -12 -5 -16 -13 -8 -50 3 -50 16 0 12 47 12 55 0z"></path>
<path d="M1628 1843 c-16 -2 -28 -8 -28 -13 0 -11 60 -1 75 11 9 9 3 9 -47 2z"></path>
<path d="M1330 1828 c0 -5 18 -8 40 -8 22 0 40 2 40 4 0 2 -18 6 -40 8 -22 2
-40 0 -40 -4z"></path>
<path d="M1590 1774 c0 -8 71 -36 77 -30 3 3 -12 12 -32 20 -41 18 -45 18 -45
10z"></path>
<path d="M1370 1750 c-19 -11 -29 -19 -22 -20 14 0 72 28 72 35 0 9 -15 4 -50
-15z"></path>
<path d="M1697 1742 c-3 -4 -3 -19 0 -35 4 -21 11 -27 32 -27 l26 0 -3 -75
c-4 -71 -3 -75 17 -75 19 0 21 5 21 75 0 73 1 75 25 75 16 0 25 6 25 15 0 10
-10 15 -31 15 -17 0 -42 9 -56 20 -27 21 -48 26 -56 12z m58 -22 c3 -6 -5 -10
-19 -10 -14 0 -28 5 -31 10 -3 6 5 10 19 10 14 0 28 -4 31 -10z"></path>
<path d="M1293 1723 c9 -2 17 -9 17 -14 0 -6 5 -7 10 -4 16 10 1 25 -23 24
-17 -1 -18 -2 -4 -6z"></path>
<path d="M1562 1720 c1 -8 -1 -25 -6 -37 -11 -33 9 -61 54 -74 49 -15 57 -49
12 -49 -15 0 -33 5 -40 12 -9 9 -15 9 -24 -1 -19 -18 16 -41 62 -41 39 0 70
24 70 53 0 25 -37 57 -65 57 -28 0 -45 27 -25 40 7 5 25 4 38 -1 17 -6 29 -6
36 1 17 17 -9 33 -56 33 -24 0 -47 5 -51 11 -5 7 -7 6 -5 -4z"></path>
<path d="M1203 1705 c-79 -34 -52 -175 34 -175 48 0 70 14 83 55 17 52 -2 103
-46 121 -39 16 -31 17 -71 -1z m81 -57 c15 -43 -3 -82 -39 -86 -47 -6 -71 49
-44 99 16 31 71 22 83 -13z"></path>
<path d="M1403 1705 c-34 -14 -40 -28 -45 -102 -2 -28 1 -43 8 -43 6 0 18 -7
25 -16 10 -12 25 -15 61 -12 26 3 48 1 48 -3 0 -5 7 -9 15 -9 8 0 15 8 15 18
0 13 -2 14 -9 3 -6 -9 -10 -10 -16 -2 -4 7 -2 18 5 26 19 22 21 63 6 99 -8 19
-13 36 -11 38 2 2 -4 4 -13 4 -9 0 -26 3 -37 7 -11 3 -34 0 -52 -8z m81 -57
c16 -45 -3 -82 -42 -86 -27 -3 -34 1 -42 23 -13 35 -13 48 3 39 9 -5 9 -4 0 6
-21 23 3 52 40 48 24 -2 34 -9 41 -30z"></path>
<path d="M990 1637 c0 -72 0 -73 -32 -85 -17 -6 -29 -14 -26 -18 4 -3 17 0 29
7 17 9 24 9 27 0 6 -19 106 -14 125 7 23 25 21 59 -3 72 -18 10 -19 13 -5 26
18 18 18 20 5 45 -9 15 -22 19 -65 19 l-55 0 0 -73z m88 26 c3 -20 -1 -23 -27
-23 -27 0 -31 4 -31 26 0 22 4 25 28 22 19 -2 28 -9 30 -25z m15 -65 c8 -25
-6 -38 -39 -38 -30 0 -34 3 -34 25 0 22 4 25 34 25 19 0 36 -6 39 -12z"></path>
<path d="M1050 1590 c-9 -6 -10 -10 -3 -10 6 0 15 5 18 10 8 12 4 12 -15 0z"></path>
<path d="M1870 1620 l0 -90 65 0 c51 0 65 3 65 15 0 11 -12 15 -45 15 -42 0
-45 2 -45 26 0 24 3 26 38 22 20 -3 46 -8 57 -12 14 -5 14 -3 -2 5 -13 7 -23
18 -23 26 0 8 -12 13 -35 13 -28 0 -35 4 -35 20 0 17 7 20 40 20 29 0 40 4 40
15 0 12 -13 15 -60 15 l-60 0 0 -90z"></path>
<path d="M2030 1620 c0 -85 1 -90 21 -90 15 0 19 5 15 15 -3 10 1 15 12 15 16
1 16 1 0 11 -26 15 -23 41 5 37 17 -2 26 -15 37 -50 16 -50 28 -62 50 -48 11
7 8 19 -14 61 -23 46 -25 54 -11 61 18 11 20 49 3 66 -7 7 -36 12 -65 12 l-53
0 0 -90z m96 48 c9 -15 -16 -38 -42 -38 -18 0 -24 5 -24 23 0 13 2 26 5 29 8
8 54 -3 61 -14z m44 -142 c0 -11 -19 -15 -25 -6 -3 5 1 10 9 10 9 0 16 -2 16
-4z"></path>
<path d="M847 1523 c-12 -12 -7 -41 7 -46 19 -7 40 18 32 38 -6 15 -28 20 -39
8z m33 -24 c0 -5 -7 -9 -15 -9 -15 0 -20 12 -9 23 8 8 24 -1 24 -14z"></path>
<path d="M1722 1488 c8 -13 41 -65 73 -115 32 -51 61 -91 63 -88 3 2 -19 42
-48 87 -29 46 -60 95 -69 110 -9 16 -20 28 -25 28 -4 0 -2 -10 6 -22z"></path>
<path d="M1240 1388 c-36 -56 -66 -109 -68 -118 -2 -8 27 30 63 85 79 120 88
135 78 135 -4 0 -37 -46 -73 -102z"></path>
<path d="M1510 1304 c0 -79 4 -133 9 -130 13 8 14 266 1 266 -6 0 -10 -50 -10
-136z"></path>
<path d="M1880 1235 c-15 -18 -5 -35 20 -35 10 0 22 5 25 10 7 11 -12 40 -25
40 -4 0 -13 -7 -20 -15z m30 -10 c0 -8 -4 -15 -10 -15 -5 0 -10 7 -10 15 0 8
5 15 10 15 6 0 10 -7 10 -15z"></path>
<path d="M1107 1216 c-7 -19 18 -40 39 -32 8 3 14 14 12 23 -4 22 -43 29 -51
9z m35 -11 c0 -5 -5 -11 -11 -13 -6 -2 -11 4 -11 13 0 9 5 15 11 13 6 -2 11
-8 11 -13z"></path>
<path d="M1500 1115 c-15 -17 -5 -35 20 -35 22 0 33 23 17 39 -15 15 -22 14
-37 -4z m30 -15 c0 -5 -7 -10 -15 -10 -8 0 -15 5 -15 10 0 6 7 10 15 10 8 0
15 -4 15 -10z"></path>
</g>
</svg>
