<?xml version="1.0" standalone="no"?>
<!DOCTYPE svg PUBLIC "-//W3C//DTD SVG 20010904//EN"
 "http://www.w3.org/TR/2001/REC-SVG-20010904/DTD/svg10.dtd">
<svg version="1.0" xmlns="http://www.w3.org/2000/svg" width="300.000000pt" height="300.000000pt" viewBox="0 0 300.000000 300.000000" preserveAspectRatio="xMidYMid meet">
<metadata>
Created by potrace 1.10, written by Peter Selinger 2001-2011
</metadata>
<g transform="translate(0.000000,300.000000) scale(0.100000,-0.100000)" fill="#000000" stroke="none">
<path d="M1880 2027 c0 -7 -9 -30 -20 -52 -22 -42 -26 -70 -10 -60 6 4 10 -36
10 -112 0 -139 10 -163 66 -163 32 0 34 2 34 32 0 17 -3 28 -7 25 -3 -4 -12
-2 -20 4 -9 8 -13 41 -13 120 0 102 1 109 20 109 15 0 20 7 20 26 0 21 -4 25
-20 21 -17 -4 -20 0 -20 29 0 27 -4 34 -20 34 -11 0 -20 -6 -20 -13z m32 -92
c-7 -14 -12 -69 -13 -122 -1 -83 2 -99 20 -124 21 -29 21 -29 2 -29 -32 0 -41
31 -42 137 0 54 -4 107 -8 118 -5 12 -2 29 8 47 14 24 18 25 30 13 12 -11 12
-19 3 -40z"></path>
<path d="M1205 1945 c-5 -2 -27 -6 -47 -10 l-38 -6 0 -221 0 -220 23 5 c12 4
41 9 65 13 40 6 42 8 42 40 0 32 -1 33 -34 27 l-33 -5 -2 60 c-1 59 -1 61 29
67 26 6 30 11 30 40 0 33 -1 33 -30 25 l-30 -9 0 64 0 64 33 3 c28 3 32 7 35
36 3 32 -8 39 -43 27z m15 -35 c0 -6 -6 -10 -14 -10 -28 0 -46 -30 -46 -76 0
-54 13 -82 43 -94 22 -8 22 -8 -4 -18 -30 -12 -39 -46 -30 -114 5 -38 9 -43
34 -46 36 -4 34 -18 -4 -26 -62 -12 -59 -23 -59 188 1 175 3 195 18 198 39 8
62 7 62 -2z"></path>
<path d="M1725 1930 c-16 -17 -20 -18 -27 -6 -5 8 -16 12 -28 9 -19 -5 -20
-14 -20 -174 0 -179 -1 -176 49 -162 l24 6 -5 131 c-5 142 -4 156 18 156 11 0
14 -26 14 -140 0 -131 1 -140 19 -140 46 0 46 2 43 162 -2 87 -8 158 -14 165
-16 19 -53 16 -73 -7z m52 -8 c8 -5 12 -43 13 -112 2 -157 1 -177 -8 -162 -5
7 -10 63 -11 125 -1 62 -6 116 -12 122 -11 11 -12 35 -1 35 4 0 12 -4 19 -8z
m-82 -155 c0 -83 -4 -137 -10 -137 -6 0 -10 56 -11 140 0 95 3 139 10 137 7
-3 11 -53 11 -140z"></path>
<path d="M1486 1889 c-26 -20 -26 -22 -26 -155 0 -121 2 -136 20 -154 46 -46
122 -9 136 64 8 45 5 48 -34 40 -27 -6 -32 -11 -32 -35 0 -19 -5 -29 -15 -29
-11 0 -15 12 -15 44 0 47 0 48 65 61 l31 6 -4 72 c-3 46 -10 78 -20 90 -21 23
-73 22 -106 -4z m31 -27 c-23 -25 -23 -98 0 -111 17 -9 17 -10 0 -28 -22 -25
-22 -91 0 -115 18 -20 14 -31 -10 -22 -24 9 -28 28 -28 153 0 107 2 117 22
134 27 22 38 14 16 -11z m57 12 c11 -10 16 -34 16 -69 0 -55 -13 -76 -33 -56
-8 8 -8 11 1 11 19 0 16 99 -3 106 -16 7 -21 24 -6 24 5 0 17 -7 25 -16z m-24
-64 c0 -24 -5 -40 -15 -44 -12 -4 -15 4 -15 38 0 23 3 46 6 49 14 13 24 -5 24
-43z m40 -174 c0 -14 -10 -32 -22 -40 -28 -20 -37 -12 -15 12 10 10 17 26 17
35 0 9 5 17 10 17 6 0 10 -11 10 -24z"></path>
<path d="M1404 1883 c-26 -5 -31 -28 -38 -173 -5 -100 -5 -103 9 -65 l14 40
-6 -55 c-5 -53 -25 -84 -47 -77 -14 5 -49 268 -38 279 5 5 14 -31 20 -86 13
-104 36 -180 27 -91 -2 28 -7 87 -11 132 l-6 82 -32 -6 c-17 -3 -32 -6 -32 -7
-3 -2 45 -328 48 -330 2 -2 21 1 43 6 l40 8 18 153 c10 83 21 162 24 175 3 12
1 21 -3 21 -5 -1 -19 -4 -30 -6z m4 -64 c-1 -17 -5 -32 -9 -34 -3 -3 -5 6 -4
18 1 12 3 28 4 35 3 27 11 10 9 -19z m-12 -95 c-4 -20 -10 -34 -12 -31 -3 3
-2 21 2 41 3 21 9 35 11 32 3 -3 2 -21 -1 -42z"></path>
<path d="M2090 1520 c-11 -11 -22 -15 -25 -10 -4 6 -15 10 -26 10 -18 0 -19
-8 -19 -171 l0 -171 23 6 c12 3 27 6 32 6 6 0 10 51 10 132 0 127 1 133 22
143 14 6 23 20 25 42 5 38 -11 44 -42 13z m-11 -51 c-15 -21 -18 -43 -16 -132
1 -59 -2 -107 -6 -107 -5 0 -5 -5 -1 -12 4 -6 3 -8 -3 -5 -7 5 -12 282 -4 282
0 0 12 0 25 0 24 0 24 0 5 -26z"></path>
<path d="M1720 1504 c-6 -14 -10 -31 -10 -39 0 -7 -5 -15 -12 -17 -15 -5 -19
-38 -5 -38 9 0 12 -36 12 -121 0 -116 1 -122 24 -141 35 -28 74 -21 76 15 0
20 -4 27 -17 27 -16 0 -18 11 -18 115 0 96 3 115 15 115 9 0 15 9 15 25 0 18
-5 25 -18 25 -15 0 -18 6 -14 30 4 25 1 30 -17 30 -14 0 -25 -9 -31 -26z m41
-80 c-23 -30 -21 -216 3 -243 21 -23 6 -36 -19 -17 -15 11 -19 31 -21 122 -2
60 -5 118 -7 129 -2 11 0 30 6 42 9 21 11 21 32 5 21 -16 22 -18 6 -38z"></path>
<path d="M1873 1490 c-36 -15 -43 -43 -43 -173 0 -118 1 -125 24 -146 20 -19
31 -22 61 -17 40 8 62 35 70 89 7 39 2 43 -42 31 -17 -5 -23 -14 -23 -35 0
-19 -5 -29 -15 -29 -11 0 -15 12 -15 45 0 48 -4 45 75 60 18 4 20 11 17 80 -3
63 -7 77 -25 90 -24 17 -51 18 -84 5z m15 -37 c-23 -27 -27 -85 -6 -105 9 -9
20 -13 25 -10 4 4 -2 -5 -14 -19 -26 -29 -31 -85 -9 -114 17 -24 43 -14 56 21
13 33 25 25 16 -11 -9 -35 -51 -51 -82 -30 -23 15 -24 21 -24 132 0 94 3 120
17 135 9 10 21 18 26 18 6 0 3 -8 -5 -17z m66 1 c7 -18 8 -114 2 -114 -2 0
-12 -3 -21 -7 -15 -5 -16 -3 -6 15 16 30 13 83 -6 104 -15 17 -15 18 4 18 12
0 24 -7 27 -16z m-36 -59 c-4 -56 -28 -58 -28 -2 0 24 3 47 7 51 13 13 24 -12
21 -49z"></path>
<path d="M1542 1420 c-17 -16 -22 -32 -22 -70 0 -44 5 -54 46 -101 33 -37 44
-58 42 -77 -5 -42 -28 -39 -28 3 0 30 -3 36 -16 31 -9 -3 -22 -6 -30 -6 -20 0
-18 -64 2 -84 29 -29 81 -24 113 11 20 23 22 34 18 76 -4 43 -10 55 -46 88
-31 29 -41 46 -41 69 0 21 4 30 13 27 6 -2 11 -17 10 -32 -2 -23 1 -26 20 -21
12 3 28 6 36 6 16 0 9 63 -10 86 -17 21 -81 18 -107 -6z m96 -21 c9 -14 10
-25 4 -31 -7 -7 -16 0 -26 21 -13 24 -13 31 -4 31 7 0 19 -10 26 -21z m-75
-28 c-5 -35 -1 -43 37 -85 32 -35 44 -56 46 -83 3 -46 -3 -61 -30 -75 -20 -10
-20 -10 -4 8 29 33 14 86 -41 138 -25 24 -31 38 -31 71 0 33 13 65 26 65 1 0
0 -18 -3 -39z m4 -221 c11 -31 3 -40 -14 -17 -11 13 -13 47 -4 47 4 0 12 -13
18 -30z"></path>
<path d="M977 1421 l-29 -6 2 -215 c0 -118 2 -215 3 -216 11 -8 123 27 140 44
31 31 38 151 11 178 -19 19 -19 20 0 57 14 28 17 48 11 83 -11 76 -48 96 -138
75z m111 -86 c2 -32 -2 -70 -8 -84 -8 -21 -7 -33 4 -57 23 -44 16 -132 -12
-154 -21 -17 -90 -36 -98 -27 -5 4 -6 148 -5 319 l1 67 33 3 c17 2 43 1 57 -3
23 -5 25 -11 28 -64z"></path>
<path d="M1002 1378 c-25 -25 -10 -158 18 -158 23 0 48 44 52 90 1 27 1 47 -1
44 -2 -2 -10 5 -18 16 -16 23 -34 25 -51 8z m46 -65 c3 -44 0 -53 -17 -63 -20
-10 -21 -8 -21 55 0 58 2 66 18 63 13 -2 18 -15 20 -55z"></path>
<path d="M1002 1188 c-7 -7 -12 -37 -12 -68 0 -58 11 -80 42 -80 25 0 43 37
43 90 0 60 -40 91 -73 58z m52 -34 c10 -37 -2 -82 -25 -94 -18 -10 -19 -7 -19
55 0 57 2 65 19 65 12 0 21 -9 25 -26z"></path>
<path d="M1363 1386 c-27 -23 -28 -29 -31 -128 -4 -124 10 -178 50 -192 35
-12 82 7 97 40 6 14 11 75 11 138 0 99 -3 117 -21 140 -26 33 -68 34 -106 2z
m81 -9 c14 -10 18 -33 22 -127 5 -130 2 -146 -29 -156 -37 -13 -45 -13 -64 1
-16 12 -18 29 -18 135 1 108 3 124 20 136 23 17 33 10 15 -11 -20 -24 -22
-215 -2 -237 42 -48 62 -8 62 123 0 92 -2 105 -22 126 -23 25 -13 31 16 10z
m-16 -142 c-2 -76 -7 -110 -15 -113 -10 -3 -13 24 -13 111 0 62 3 117 7 121
17 17 23 -19 21 -119z"></path>
<path d="M1171 1344 c-19 -24 -21 -40 -21 -148 0 -94 4 -127 16 -144 20 -29
72 -29 108 -1 26 20 26 22 26 153 0 151 -7 166 -73 166 -27 0 -41 -7 -56 -26z
m36 -22 c-23 -26 -25 -223 -2 -246 8 -8 15 -17 15 -20 0 -11 -19 -6 -34 10
-13 12 -16 39 -16 130 0 102 2 116 21 135 25 25 39 17 16 -9z m57 15 c15 -11
17 -29 17 -132 -1 -105 -3 -122 -21 -139 -11 -11 -22 -17 -25 -14 -3 3 1 13
10 21 23 23 22 233 -2 259 -19 21 -5 24 21 5z m-26 -134 c-4 -149 -22 -158
-26 -14 -3 109 0 131 18 131 7 0 10 -39 8 -117z"></path>
</g>
</svg>
