<svg xmlns="http://www.w3.org/2000/svg" width="400" height="237.333" version="1.0" viewBox="0 0 300 178"><g fill="#d1c7c7"><path d="M22.7 28.8c-1.5 1.6-1.7 4.6-1.7 23.9C21 71 21.3 75 22.5 76c1.9 1.6 32.2 1.5 34.2-.1.8-.7 1.3-3.3 1.3-6.9 0-4.9-.4-6.2-2.2-7.7-2-1.6-2.3-2.7-2.3-9.6 0-5.4.4-7.7 1.2-7.7 2 0 3.3-3.5 3.3-8.8 0-7.6-.8-8-18.6-8.2-13.5-.1-15.2.1-16.7 1.8m32.5 6.7-.4 5.5H35v6h17v10.6l-8.5-.4-8.5-.5V63h20v11.9l-15.6-.3-15.5-.4-.2-22.1-.2-22.1h32zM70.2 28.2c-1.8 1.8-1.6 2.7 4.2 16 13.8 31.4 15.9 35 19.1 31.7.8-.8 5.7-11.2 11-23.2C116.9 24.8 118 27 91 27c-13.9 0-19.9.3-20.8 1.2m38.2 9.5c-2 4.3-6.5 14.5-10.2 22.6-3.6 8.1-6.8 14.4-7.2 14-.7-1-10.4-22.2-18.6-41.1L71 30h40.9z"/><path d="M75 32.4c0 .2 2.2 5.3 4.8 11.3 2.7 5.9 6.4 14.3 8.2 18.5l3.4 7.6 4.2-9.6c2.3-5.3 6-13.7 8.3-18.6 2.2-4.9 4.1-9 4.1-9.2s-7.4-.4-16.5-.4-16.5.2-16.5.4m27.1 6.8c-1.1 2.4-3.9 8.6-6.4 13.8l-4.5 9.5-1.7-4c-1-2.2-3.7-8.1-6-13.2-2.4-5-4-9.4-3.7-9.7s5.8-.6 12.3-.6h11.8zM126.7 28.8c-1.5 1.6-1.7 4.6-1.7 23.4 0 19.5.2 21.6 1.8 23.1 1.6 1.4 4.3 1.7 17.3 1.7 10.7 0 15.9-.4 16.7-1.2.7-.7 1.2-3.9 1.2-7.5 0-5.8-.2-6.4-2.5-7.5-1.9-.9-2.2-1.4-1.5-2.9 1.6-2.8 1.2-10.5-.5-11.9-1.3-1.1-1-1.5 1.7-2.9 3.2-1.6 3.3-1.7 3-7.6-.1-3.3-.7-6.4-1.2-6.9s-8-1.1-16.8-1.3c-14.4-.3-16-.2-17.5 1.5m32.8 6.7V41H139v6h17.5l-.3 5.2-.4 5.3-8.4-.4-8.4-.3V63h20.5l-.2 5.7-.1 5.8-15.6.3-15.5.3-.3-22.6-.3-22.5h32zM177.1 28.8c-.8 1.5-1.5 26-1.2 40.2.3 8.1.5 8.2 20.3 8.1 16.3-.1 17.4-.2 19-2.2 1.6-1.9 1.8-4.4 1.5-23.3-.2-21.6-.7-24.6-4.2-24.6-2.7 0-3.6 3.1-3.8 13.4-.2 5.8-.5 10.7-.8 11-.2.3-6.1-5.1-13.1-12-12.7-12.5-15.7-14.3-17.7-10.6M196.5 45l15 15-.3-15c-.3-13.1-.1-15 1.2-15 1.4 0 1.6 2.7 1.6 22.2v22.3h-35V52.2c0-17 .3-22.2 1.2-22.2.7 0 8 6.7 16.3 15M229.6 28.3c-2.3 1.7-3 10.4-1.1 13.4 1.4 2 2.3 2.3 8.4 2.3h6.9l.1 15.2c.2 17.2.9 19.3 5.6 16.8 2.7-1.5 2.8-2.2 2.5-23.3l-.1-8.7h6.3c8.4-.1 9.8-1.2 9.8-8.2 0-8.5-.4-8.7-20.1-8.7-11.4 0-17.2.4-18.3 1.2m35.6 7.2-.4 5.5H249v17.1c0 12.3-.3 17-1.1 16.7s-1.1-5.4-1-17.1l.2-16.7H230V30h35.5zM71 96.1c-3.5 1.4-6.8 4.8-9.3 9.4-1.8 3.3-2.2 5.7-2.2 14 0 8.7.3 10.5 2.3 14 3.3 5.6 7.3 8.5 13.2 9.4 2.7.4 5 .5 5 .2s.8-1.1 1.9-1.8c1.8-1.1 1.8-.7 1.7 9-.1 12 .9 14.1 6.7 13.9 8.9-.3 14.4-6.4 17.2-18.5l.6-2.9 3 4.2c4.1 5.6 9.4 7.8 18.4 7.6 6-.1 7.6-.5 11.4-3.1 6.6-4.5 8.4-7.5 8.5-13.8 0-4.3-.5-6-2.6-8.7l-2.6-3.4 2.4-1.8c1.4-1.1 2.4-3 2.4-4.4 0-4-3.8-10.2-7.8-12.9-4.4-2.9-13.2-4.8-16.5-3.6-2.5 1-3.1 1.1-5.2 1.1-2.6 0-8.3 6-10.1 10.5-2 5.4-1.4 9.5 2.2 14.2 2.4 3.1 2.4 3.3.5 3.3-1.1 0-2.3.4-2.6 1-1 1.7-2.5 1.1-2.5-1 0-3-2.1-7.2-5.3-10.7-3.5-3.8-12.8-6.6-14.9-4.5-3.1 3.1-3.8 1.3-3.8-9.1 0-6.7-.4-10.7-1.2-11.5-1.4-1.4-7.3-1.5-10.8-.1m9.1 23v21.4l-3.8-.3c-9.3-.8-14.3-7.8-14.3-19.7 0-9.2 1.4-13.9 5.4-18.3 2.5-2.6 4.4-3.7 7.7-4.2 2.4-.3 4.5-.5 4.7-.4s.3 9.8.3 21.5m57.9-11.3c4.2 2.1 8 7.4 8 11.3 0 2.8-.2 2.9-4.8 2.9-4.4 0-4.9-.2-5.9-3-1.8-4.7-9.9-5.4-12.3-1.1-1.6 3 1 4.7 9.7 6.7 8.9 2 12.7 4.9 13.8 10.7 1.1 5.5-2.4 12-7.9 14.6-6.1 3-16.1 2.9-20.6-.1-4.3-3-6.7-6.4-7.5-11.1l-.6-3.7h5.6c3.5 0 5.4.4 5 1-.3.5.5 2.1 1.9 3.5 1.8 1.8 3.6 2.5 6.5 2.5 3.7 0 7.1-1.9 7.1-4 0-1.3-4.2-4-6-4-3.7 0-12.3-3.3-15.1-5.8-3.9-3.5-4.9-9.4-2.4-14.6 3.7-7.7 15.9-10.5 25.5-5.8m-5.4 12.9c-.3.3-2 .1-3.8-.3-3.2-.7-3.2-.8-.8-1.4 2.3-.6 5.7.7 4.6 1.7m-34.7 1c4.4 3.3 6.4 7.9 6.9 15.8.6 9.3-1.6 16.2-6.4 20.5-1.9 1.6-4.2 3-5.2 3.1-.9 0-2.9.3-4.4.5l-2.8.5v-43.4l4.6.6c2.6.2 5.8 1.4 7.3 2.4m32.9 16.1c.3 1-.5 1.3-2.9 1-1.8-.2-3.4-.9-3.7-1.6-.3-1 .5-1.3 2.9-1 1.8.2 3.4.9 3.7 1.6M26.5 103.8c-5 1-5.2 1.8-5.4 24.6-.2 27-1 25.6 14.6 25.7 8.4.1 12-.3 14.6-1.6 9.6-4.5 11.8-14.2 5.2-23.1-1.4-1.8-1.3-2.2.4-4.1 1.5-1.6 1.9-3.3 1.7-7.2-.2-6-4.4-12-9.2-13.3-3.2-.9-18.7-1.5-21.9-1m24.9 6.1c3.4 3.2 4.3 8.4 2.2 12.7-.9 1.9-2.3 3.7-3.1 4-1.1.5-.6 1.4 1.9 3.8 4.3 4 5.4 9 3.2 13.8-2.8 5.7-5.8 6.8-19.5 6.8H24v-44.2l12.4.4c11.5.3 12.6.5 15 2.7M167.1 103.8c-6.4.1-12.1.8-12.8 1.4-.8.6-1.3 3.3-1.3 6.8 0 7.7 1.3 8.8 11.3 8.9l4.7.1v14.8c0 13.2.2 15.1 1.9 16.6 2 1.9 4.8 1.3 5.6-1.3.3-.9.6-6.8.6-13.1.2-17.4-.1-16.7 7.5-17.2 8.1-.5 9.7-1.9 9.6-8.4-.2-8.6-2.2-9.2-27.1-8.6m23.9 8.7v5.5h-17.1l.3 16.5c.2 12.7 0 16.5-.9 16.5-1 0-1.3-4-1.3-16.5V118h-16v-11h35zM206.5 103.8c-2.2.2-4.5.8-5.2 1.4-1 .8-1.3 6.6-1.3 23.4 0 18.9.2 22.5 1.6 23.8 1.3 1.3 4.3 1.6 16.8 1.6 17.9 0 18.6-.3 18.6-8.7 0-5-1.9-8.3-5-8.3-1 0-1-.3 0-1.5 1.5-1.8 1.5-11.2-.1-13.1-.9-1.1-.8-1.4.3-1.4 2.9 0 4.8-3.5 4.8-8.7 0-7.4-1.2-8.1-15-8.5-6.3-.2-13.3-.2-15.5 0m27.5 8.7v5.5h-20v6.2l8.5-.3 8.5-.4V134h-17v6h20v11h-32v-44h32zM251 103.8c-6.7.7-6.7.9-6.4 24 .1 11.4.3 21.5.3 22.4.2 3.3 3.9 4.1 19.5 3.9 14-.1 15.2-.3 16.9-2.2 1.7-2.1 1.6-2.3-2.8-8.4l-4.4-6.2 2.4-2.3c3.4-3.2 6.5-9.9 6.5-14 0-4.8-3.6-11.6-7.3-13.9-4.7-2.8-14.9-4.2-24.7-3.3m21.9 5c9.2 4.9 9.4 19.2.4 24.8-1.5 1-2.9 1.9-3.1 2-.4.3 6.5 10.1 9.2 13.1l1.9 2.3H247v-44h11.3c9 0 11.9.4 14.6 1.8"/><path d="M259.2 120.2c4.4 6.2 8.3 11.7 8.8 12.1 1.2 1.3 6.4-1.8 8-4.8 2-3.7 1.8-9.6-.4-12.9-2.6-4-7.3-5.6-16.5-5.6h-8zm13.1-5.3c1.2 1.1 2.2 3.5 2.3 5.3.2 3.3-2.1 8.4-4.2 9.2-.9.4-9.4-10.3-12.8-16.1-.5-.9 1-1.1 6-.8 5.1.3 7.2.9 8.7 2.4M249.7 122.1l.2 11 7.6.2c4.1.1 7.4-.1 7.3-.4-.6-1.5-14.3-21.8-14.8-21.8-.3-.1-.4 4.9-.3 11m8.3 5.3c2.1 3.4 2.1 3.9.6 3.3-1-.4-2.6-.7-3.7-.7-1.6 0-1.9-.7-1.9-4.7 0-5.3.8-5 5 2.1M249.6 142.2l.2 6.3 13.1.3c7.2.1 13.1 0 13.1-.3 0-.2-1.8-2.8-4-5.7s-4-5.6-4-6.1c0-.4-4.2-.7-9.2-.7h-9.3zm16.9-2.9c0 .1 1 1.7 2.3 3.4l2.3 3.3h-17.9l-.7-3c-1-4.6-.1-5.2 7.3-4.5 3.7.4 6.7.7 6.7.8"/></g></svg>