<svg xmlns="http://www.w3.org/2000/svg" width="400" height="400" version="1.0" viewBox="0 0 300 300"><path d="M188 97.3c0 .7-.9 3-2 5.2-2.2 4.2-2.6 7-1 6 .6-.4 1 3.6 1 11.2 0 13.9 1 16.3 6.6 16.3 3.2 0 3.4-.2 3.4-3.2 0-1.7-.3-2.8-.7-2.5-.3.4-1.2.2-2-.4-.9-.8-1.3-4.1-1.3-12 0-10.2.1-10.9 2-10.9 1.5 0 2-.7 2-2.6 0-2.1-.4-2.5-2-2.1-1.7.4-2 0-2-2.9 0-2.7-.4-3.4-2-3.4-1.1 0-2 .6-2 1.3m3.2 9.2c-.7 1.4-1.2 6.9-1.3 12.2-.1 8.3.2 9.9 2 12.4 2.1 2.9 2.1 2.9.2 2.9-3.2 0-4.1-3.1-4.2-13.7 0-5.4-.4-10.7-.8-11.8-.5-1.2-.2-2.9.8-4.7 1.4-2.4 1.8-2.5 3-1.3 1.2 1.1 1.2 1.9.3 4M120.5 105.5c-.5.2-2.7.6-4.7 1l-3.8.6v44.1l2.3-.5c1.2-.4 4.1-.9 6.5-1.3 4-.6 4.2-.8 4.2-4s-.1-3.3-3.4-2.7l-3.3.5-.2-6c-.1-5.9-.1-6.1 2.9-6.7 2.6-.6 3-1.1 3-4 0-3.3-.1-3.3-3-2.5l-3 .9v-12.8l3.3-.3c2.8-.3 3.2-.7 3.5-3.6.3-3.2-.8-3.9-4.3-2.7m1.5 3.5c0 .6-.6 1-1.4 1-2.8 0-4.6 3-4.6 7.6 0 5.4 1.3 8.2 4.3 9.4 2.2.8 2.2.8-.4 1.8-3 1.2-3.9 4.6-3 11.4.5 3.8.9 4.3 3.4 4.6 3.6.4 3.4 1.8-.4 2.6-6.2 1.2-5.9 2.3-5.9-18.8.1-17.5.3-19.5 1.8-19.8 3.9-.8 6.2-.7 6.2.2M172.5 107c-1.6 1.7-2 1.8-2.7.6-.5-.8-1.6-1.2-2.8-.9-1.9.5-2 1.4-2 17.4 0 17.9-.1 17.6 4.9 16.2l2.4-.6-.5-13.1c-.5-14.2-.4-15.6 1.8-15.6 1.1 0 1.4 2.6 1.4 14 0 13.1.1 14 1.9 14 4.6 0 4.6-.2 4.3-16.2-.2-8.7-.8-15.8-1.4-16.5-1.6-1.9-5.3-1.6-7.3.7m5.2.8c.8.5 1.2 4.3 1.3 11.2.2 15.7.1 17.7-.8 16.2-.5-.7-1-6.3-1.1-12.5s-.6-11.6-1.2-12.2c-1.1-1.1-1.2-3.5-.1-3.5.4 0 1.2.4 1.9.8m-8.2 15.5c0 8.3-.4 13.7-1 13.7s-1-5.6-1.1-14c0-9.5.3-13.9 1-13.7.7.3 1.1 5.3 1.1 14M148.6 111.1c-2.6 2-2.6 2.2-2.6 15.5 0 12.1.2 13.6 2 15.4 4.6 4.6 12.2.9 13.6-6.4.8-4.5.5-4.8-3.4-4-2.7.6-3.2 1.1-3.2 3.5 0 1.9-.5 2.9-1.5 2.9-1.1 0-1.5-1.2-1.5-4.4 0-4.7 0-4.8 6.5-6.1l3.1-.6-.4-7.2c-.3-4.6-1-7.8-2-9-2.1-2.3-7.3-2.2-10.6.4m3.1 2.7c-2.3 2.5-2.3 9.8 0 11.1 1.7.9 1.7 1 0 2.8-2.2 2.5-2.2 9.1 0 11.5 1.8 2 1.4 3.1-1 2.2s-2.8-2.8-2.8-15.3c0-10.7.2-11.7 2.2-13.4 2.7-2.2 3.8-1.4 1.6 1.1m5.7-1.2c1.1 1 1.6 3.4 1.6 6.9 0 5.5-1.3 7.6-3.3 5.6-.8-.8-.8-1.1.1-1.1 1.9 0 1.6-9.9-.3-10.6-1.6-.7-2.1-2.4-.6-2.4.5 0 1.7.7 2.5 1.6M155 119c0 2.4-.5 4-1.5 4.4-1.2.4-1.5-.4-1.5-3.8 0-2.3.3-4.6.6-4.9 1.4-1.3 2.4.5 2.4 4.3m4 17.4c0 1.4-1 3.2-2.2 4-2.8 2-3.7 1.2-1.5-1.2 1-1 1.7-2.6 1.7-3.5s.5-1.7 1-1.7c.6 0 1 1.1 1 2.4M140.4 111.7c-2.6.5-3.1 2.8-3.8 17.3-.5 10-.5 10.3.9 6.5l1.4-4-.6 5.5c-.5 5.3-2.5 8.4-4.7 7.7-1.4-.5-4.9-26.8-3.8-27.9.5-.5 1.4 3.1 2 8.6 1.3 10.4 3.6 18 2.7 9.1-.2-2.8-.7-8.7-1.1-13.2l-.6-8.2-3.2.6c-1.7.3-3.2.6-3.2.7-.3.2 4.5 32.8 4.8 33 .2.2 2.1-.1 4.3-.6l4-.8 1.8-15.3c1-8.3 2.1-16.2 2.4-17.5.3-1.2.1-2.1-.3-2.1-.5.1-1.9.4-3 .6m.4 6.4c-.1 1.7-.5 3.2-.9 3.4-.3.3-.5-.6-.4-1.8s.3-2.8.4-3.5c.3-2.7 1.1-1 .9 1.9m-1.2 9.5c-.4 2-1 3.4-1.2 3.1-.3-.3-.2-2.1.2-4.1.3-2.1.9-3.5 1.1-3.2.3.3.2 2.1-.1 4.2M209 148c-1.1 1.1-2.2 1.5-2.5 1-.4-.6-1.5-1-2.6-1-1.8 0-1.9.8-1.9 17.1v17.1l2.3-.6c1.2-.3 2.7-.6 3.2-.6.6 0 1-5.1 1-13.2 0-12.7.1-13.3 2.2-14.3 1.4-.6 2.3-2 2.5-4.2.5-3.8-1.1-4.4-4.2-1.3m-1.1 5.1c-1.5 2.1-1.8 4.3-1.6 13.2.1 5.9-.2 10.7-.6 10.7-.5 0-.5.5-.1 1.2.4.6.3.8-.3.5-.7-.5-1.2-28.2-.4-28.2h2.5c2.4 0 2.4 0 .5 2.6M172 149.6c-.6 1.4-1 3.1-1 3.9 0 .7-.5 1.5-1.2 1.7-1.5.5-1.9 3.8-.5 3.8.9 0 1.2 3.6 1.2 12.1 0 11.6.1 12.2 2.4 14.1 3.5 2.8 7.4 2.1 7.6-1.5 0-2-.4-2.7-1.7-2.7-1.6 0-1.8-1.1-1.8-11.5 0-9.6.3-11.5 1.5-11.5.9 0 1.5-.9 1.5-2.5 0-1.8-.5-2.5-1.8-2.5-1.5 0-1.8-.6-1.4-3 .4-2.5.1-3-1.7-3-1.4 0-2.5.9-3.1 2.6m4.1 8c-2.3 3-2.1 21.6.3 24.3 2.1 2.3.6 3.6-1.9 1.7-1.5-1.1-1.9-3.1-2.1-12.2-.2-6-.5-11.8-.7-12.9s0-3 .6-4.2c.9-2.1 1.1-2.1 3.2-.5s2.2 1.8.6 3.8M187.3 151c-3.6 1.5-4.3 4.3-4.3 17.3 0 11.8.1 12.5 2.4 14.6 2 1.9 3.1 2.2 6.1 1.7 4-.8 6.2-3.5 7-8.9.7-3.9.2-4.3-4.2-3.1-1.7.5-2.3 1.4-2.3 3.5 0 1.9-.5 2.9-1.5 2.9-1.1 0-1.5-1.2-1.5-4.5 0-4.8-.4-4.5 7.5-6 1.8-.4 2-1.1 1.7-8-.3-6.3-.7-7.7-2.5-9-2.4-1.7-5.1-1.8-8.4-.5m1.5 3.7c-2.3 2.7-2.7 8.5-.6 10.5.9.9 2 1.3 2.5 1 .4-.4-.2.5-1.4 1.9-2.6 2.9-3.1 8.5-.9 11.4 1.7 2.4 4.3 1.4 5.6-2.1 1.3-3.3 2.5-2.5 1.6 1.1-.9 3.5-5.1 5.1-8.2 3-2.3-1.5-2.4-2.1-2.4-13.2 0-9.4.3-12 1.7-13.5.9-1 2.1-1.8 2.6-1.8.6 0 .3.8-.5 1.7m6.6-.1c.7 1.8.8 11.4.2 11.4-.2 0-1.2.3-2.1.7-1.5.5-1.6.3-.6-1.5 1.6-3 1.3-8.3-.6-10.4-1.5-1.7-1.5-1.8.4-1.8 1.2 0 2.4.7 2.7 1.6m-3.6 5.9c-.4 5.6-2.8 5.8-2.8.2 0-2.4.3-4.7.7-5.1 1.3-1.3 2.4 1.2 2.1 4.9M154.2 158c-1.7 1.6-2.2 3.2-2.2 7 0 4.4.5 5.4 4.6 10.1 3.3 3.7 4.4 5.8 4.2 7.7-.5 4.2-2.8 3.9-2.8-.3 0-3-.3-3.6-1.6-3.1-.9.3-2.2.6-3 .6-2 0-1.8 6.4.2 8.4 2.9 2.9 8.1 2.4 11.3-1.1 2-2.3 2.2-3.4 1.8-7.6-.4-4.3-1-5.5-4.6-8.8-3.1-2.9-4.1-4.6-4.1-6.9 0-2.1.4-3 1.3-2.7.6.2 1.1 1.7 1 3.2-.2 2.3.1 2.6 2 2.1 1.2-.3 2.8-.6 3.6-.6 1.6 0 .9-6.3-1-8.6-1.7-2.1-8.1-1.8-10.7.6m9.6 2.1c.9 1.4 1 2.5.4 3.1-.7.7-1.6 0-2.6-2.1-1.3-2.4-1.3-3.1-.4-3.1.7 0 1.9 1 2.6 2.1m-7.5 2.8c-.5 3.5-.1 4.3 3.7 8.5 3.2 3.5 4.4 5.6 4.6 8.3.3 4.6-.3 6.1-3 7.5-2 1-2 1-.4-.8 2.9-3.3 1.4-8.6-4.1-13.8-2.5-2.4-3.1-3.8-3.1-7.1s1.3-6.5 2.6-6.5c.1 0 0 1.8-.3 3.9m.4 22.1c1.1 3.1.3 4-1.4 1.7-1.1-1.3-1.3-4.7-.4-4.7.4 0 1.2 1.3 1.8 3M97.7 157.9l-2.9.6.2 21.5c0 11.8.2 21.5.3 21.6 1.1.8 12.3-2.7 14-4.4 3.1-3.1 3.8-15.1 1.1-17.8-1.9-1.9-1.9-2 0-5.7 1.4-2.8 1.7-4.8 1.1-8.3-1.1-7.6-4.8-9.6-13.8-7.5m11.1 8.6c.2 3.2-.2 7-.8 8.4-.8 2.1-.7 3.3.4 5.7 2.3 4.4 1.6 13.2-1.2 15.4-2.1 1.7-9 3.6-9.8 2.7-.5-.4-.6-14.8-.5-31.9l.1-6.7 3.3-.3c1.7-.2 4.3-.1 5.7.3 2.3.5 2.5 1.1 2.8 6.4"/><path d="M100.2 162.2c-2.5 2.5-1 15.8 1.8 15.8 2.3 0 4.8-4.4 5.2-9 .1-2.7.1-4.7-.1-4.4-.2.2-1-.5-1.8-1.6-1.6-2.3-3.4-2.5-5.1-.8m4.6 6.5c.3 4.4 0 5.3-1.7 6.3-2 1-2.1.8-2.1-5.5 0-5.8.2-6.6 1.8-6.3 1.3.2 1.8 1.5 2 5.5M100.2 181.2c-.7.7-1.2 3.7-1.2 6.8 0 5.8 1.1 8 4.2 8 2.5 0 4.3-3.7 4.3-9 0-6-4-9.1-7.3-5.8m5.2 3.4c1 3.7-.2 8.2-2.5 9.4-1.8 1-1.9.7-1.9-5.5 0-5.7.2-6.5 1.9-6.5 1.2 0 2.1.9 2.5 2.6M136.3 161.4c-2.7 2.3-2.8 2.9-3.1 12.8-.4 12.4 1 17.8 5 19.2 3.5 1.2 8.2-.7 9.7-4 .6-1.4 1.1-7.5 1.1-13.8 0-9.9-.3-11.7-2.1-14-2.6-3.3-6.8-3.4-10.6-.2m8.1.9c1.4 1 1.8 3.3 2.2 12.7.5 13 .2 14.6-2.9 15.6-3.7 1.3-4.5 1.3-6.4-.1-1.6-1.2-1.8-2.9-1.8-13.5.1-10.8.3-12.4 2-13.6 2.3-1.7 3.3-1 1.5 1.1-2 2.4-2.2 21.5-.2 23.7 4.2 4.8 6.2.8 6.2-12.3 0-9.2-.2-10.5-2.2-12.6-2.3-2.5-1.3-3.1 1.6-1m-1.6 14.2c-.2 7.6-.7 11-1.5 11.3-1 .3-1.3-2.4-1.3-11.1 0-6.2.3-11.7.7-12.1 1.7-1.7 2.3 1.9 2.1 11.9M117.1 165.6c-1.9 2.4-2.1 4-2.1 14.8 0 9.4.4 12.7 1.6 14.4 2 2.9 7.2 2.9 10.8.1 2.6-2 2.6-2.2 2.6-15.3 0-15.1-.7-16.6-7.3-16.6-2.7 0-4.1.7-5.6 2.6m3.6 2.2c-2.3 2.6-2.5 22.3-.2 24.6.8.8 1.5 1.7 1.5 2 0 1.1-1.9.6-3.4-1-1.3-1.2-1.6-3.9-1.6-13 0-10.2.2-11.6 2.1-13.5 2.5-2.5 3.9-1.7 1.6.9m5.7-1.5c1.5 1.1 1.7 2.9 1.7 13.2-.1 10.5-.3 12.2-2.1 13.9-1.1 1.1-2.2 1.7-2.5 1.4s.1-1.3 1-2.1c2.3-2.3 2.2-23.3-.2-25.9-1.9-2.1-.5-2.4 2.1-.5m-2.6 13.4c-.4 14.9-2.2 15.8-2.6 1.4-.3-10.9 0-13.1 1.8-13.1.7 0 1 3.9.8 11.7"/></svg>