 <svg version="1.0" xmlns="http://www.w3.org/2000/svg" width="300.000000pt" height="300.000000pt" viewBox="0 0 300.000000 300.000000" preserveAspectRatio="xMidYMid meet">  <g transform="translate(0.000000,300.000000) scale(0.100000,-0.100000)" fill="#ffffff" stroke="none"> <path d="M1859 2043 c-22 -57 -36 -78 -50 -74 -32 11 -156 -4 -176 -21 -7 -6 -13 -17 -13 -25 0 -8 -5 -11 -10 -8 -6 4 -8 10 -5 15 8 13 -112 5 -129 -9 -8 -7 -19 -10 -24 -7 -5 3 -24 1 -43 -5 -19 -5 -58 -12 -86 -14 l-53 -3 0 39 c0 49 -13 55 -82 39 -29 -6 -63 -13 -75 -16 l-23 -4 0 -233 c0 -127 4 -238 9 -245 9 -14 41 -11 141 13 30 8 81 17 112 20 57 6 58 7 68 46 l11 39 23 -27 c21 -24 32 -28 85 -29 33 -1 58 2 56 7 -8 13 16 22 64 25 57 4 107 11 146 22 22 6 31 15 33 35 l3 27 26 -20 c28 -22 73 -26 104 -10 14 8 19 21 19 55 0 25 -4 45 -10 45 -5 0 -10 -20 -10 -44 0 -49 -12 -59 -60 -49 -51 10 -60 34 -60 160 0 69 -4 113 -10 113 -16 0 -11 43 10 85 11 22 20 45 20 52 0 7 6 13 13 13 6 0 21 3 33 6 18 5 20 2 16 -31 -4 -34 -3 -37 17 -30 19 6 21 3 21 -34 0 -33 -4 -41 -18 -41 -16 0 -17 -9 -14 -102 2 -57 6 -105 8 -107 3 -3 12 3 21 12 16 16 16 17 0 17 -16 0 -18 10 -16 84 1 73 4 85 20 89 28 7 27 87 0 94 -12 3 -21 15 -23 32 -3 22 -8 26 -40 29 -33 3 -39 0 -49 -25z m-601 -120 c-3 -44 -5 -48 -32 -53 -27 -5 -29 -8 -30 -53 -1 -46 0 -47 25 -42 26 6 27 4 30 -39 4 -43 2 -46 -23 -52 -26 -5 -28 -9 -28 -53 l0 -47 33 4 c32 3 32 3 33 -41 l1 -44 -78 -14 -79 -15 0 97 c0 53 -3 157 -6 231 l-7 135 74 15 c41 9 78 16 82 17 4 0 7 -20 5 -46z m532 37 c29 -16 40 -73 40 -218 0 -97 -3 -134 -12 -136 -7 -3 -28 -7 -45 -10 l-33 -5 -2 147 -2 147 -3 -147 -4 -148 -27 -6 c-15 -3 -35 -8 -44 -11 -17 -4 -18 9 -18 181 l0 186 24 6 c14 3 29 3 34 0 6 -3 23 1 38 9 35 18 31 17 54 5z m-184 -61 c12 -14 19 -42 22 -99 5 -88 13 -77 -73 -95 -22 -5 -25 -10 -23 -43 1 -35 1 -35 5 -6 4 33 22 44 71 44 19 0 22 -5 22 -35 0 -43 -23 -90 -49 -105 -25 -13 -77 -13 -101 0 -31 17 -43 74 -37 174 8 122 -6 71 -23 -81 l-13 -122 -50 -11 c-37 -8 -52 -8 -57 1 -4 6 -13 59 -19 117 -7 59 -17 133 -23 165 -6 32 -9 59 -7 61 2 2 23 7 45 11 l41 6 9 -73 8 -73 6 75 c5 69 7 75 30 81 50 14 63 11 57 -13 -6 -20 -4 -20 16 5 37 46 108 54 143 16z m-372 -76 c-1 -37 -21 -40 -21 -3 0 16 5 30 11 30 7 0 11 -12 10 -27z m28 -183 c3 -20 0 -30 -8 -30 -7 0 -19 -3 -28 -6 -13 -5 -16 1 -16 30 0 31 3 36 24 36 19 0 25 -6 28 -30z"></path> <path d="M1178 1928 l-48 -10 0 -207 0 -208 55 10 c48 9 55 13 55 33 0 21 -3 22 -32 13 -18 -5 -34 -9 -35 -9 -2 0 -3 33 -3 74 l0 74 30 7 c21 5 30 12 30 27 0 17 -4 19 -30 13 l-30 -7 0 76 0 75 32 3 c23 2 32 8 34 26 2 12 1 21 -4 21 -4 -1 -28 -6 -54 -11z m17 -23 c-36 -17 -55 -19 -55 -6 0 5 12 12 28 14 50 8 57 5 27 -8z m-34 -97 c1 -40 0 -117 -1 -170 -2 -94 -1 -96 22 -101 21 -4 20 -4 -4 -6 l-28 -1 0 108 c0 59 -3 137 -7 175 -4 47 -3 67 6 67 7 0 11 -25 12 -72z"></path> <path d="M1726 1918 c-12 -17 -18 -20 -28 -10 -7 7 -18 12 -26 12 -11 0 -13 -31 -10 -160 2 -131 5 -160 16 -155 7 3 17 5 20 5 4 0 6 57 4 127 -3 136 6 173 42 160 14 -5 16 -25 16 -142 0 -125 2 -136 18 -133 15 3 17 19 20 138 1 74 0 145 -3 158 -7 29 -49 30 -69 0z m58 -14 c3 -9 5 -52 4 -97 l-1 -82 -6 88 c-5 61 -11 91 -21 97 -13 8 -13 10 1 10 9 0 20 -7 23 -16z m-97 -221 c-2 -38 -3 -7 -3 67 0 74 1 105 3 68 2 -38 2 -98 0 -135z m100 0 c-3 -10 -5 -4 -5 12 0 17 2 24 5 18 2 -7 2 -21 0 -30z"></path> <path d="M1496 1879 c-26 -20 -26 -22 -26 -145 0 -112 2 -126 21 -145 38 -38 109 1 109 61 0 23 -4 27 -20 23 -14 -4 -20 -14 -20 -35 0 -19 4 -27 12 -22 6 4 8 3 5 -3 -3 -5 -16 -9 -29 -7 -13 1 -26 3 -30 3 -5 1 -8 25 -8 55 0 58 -2 56 63 70 26 6 27 9 27 70 0 48 -4 67 -18 79 -25 23 -54 21 -86 -4z m84 -19 c6 -11 8 -20 6 -20 -3 0 -10 9 -16 20 -6 11 -8 20 -6 20 3 0 10 -9 16 -20z m-22 -48 c3 -51 2 -52 -27 -58 -25 -5 -32 -13 -37 -41 -4 -19 -4 -53 -1 -76 3 -24 2 -35 -3 -27 -5 7 -8 66 -7 129 1 64 3 92 5 63 4 -65 22 -59 22 7 0 52 6 63 30 59 11 -2 16 -18 18 -56z"></path> <path d="M1532 1810 c0 -19 2 -27 5 -17 2 9 2 25 0 35 -3 9 -5 1 -5 -18z"></path> <path d="M1387 1833 c-4 -21 -9 -82 -13 -136 -5 -68 -11 -100 -20 -104 -8 -3 -12 -9 -9 -13 3 -5 0 -12 -6 -16 -9 -5 -10 1 -5 21 4 15 2 81 -5 146 -10 105 -14 119 -30 119 -12 0 -19 -7 -19 -17 2 -40 37 -284 43 -289 3 -3 18 -2 34 3 27 9 28 11 48 166 19 145 20 157 4 157 -11 0 -18 -12 -22 -37z m-80 -80 c-3 -10 -5 -2 -5 17 0 19 2 27 5 18 2 -10 2 -26 0 -35z"></path> <path d="M1228 1633 c7 -3 16 -2 19 1 4 3 -2 6 -13 5 -11 0 -14 -3 -6 -6z"></path> <path d="M1890 2017 c0 -7 -9 -29 -19 -50 -10 -20 -15 -37 -10 -37 5 0 9 -53 9 -118 0 -130 11 -162 56 -162 29 0 32 20 4 38 -18 11 -20 23 -20 132 0 113 1 120 20 120 11 0 20 7 20 16 0 11 -6 14 -20 9 -17 -6 -20 -2 -20 29 0 20 -4 36 -10 36 -5 0 -10 -6 -10 -13z m14 -320 c4 -19 3 -26 -4 -22 -5 3 -10 18 -10 32 0 32 5 28 14 -10z"></path> <path d="M1750 1563 c-8 -2 -22 -7 -30 -10 -8 -4 -17 -6 -20 -5 -3 0 -5 -13 -6 -29 -2 -46 -17 -56 -85 -53 -57 2 -63 0 -86 -26 -24 -29 -25 -29 -61 -16 -49 19 -101 30 -83 17 11 -7 9 -10 -7 -15 -12 -4 -30 -18 -40 -31 -14 -18 -22 -21 -30 -13 -21 21 -117 16 -143 -7 -12 -11 -20 -15 -16 -9 4 6 -9 29 -27 50 -30 35 -39 39 -77 38 -24 0 -61 -4 -81 -8 l-38 -7 -1 -187 c-2 -228 0 -285 9 -294 13 -13 145 22 178 47 30 23 33 24 63 9 44 -22 104 -11 135 26 17 20 27 25 34 18 33 -33 128 -21 159 21 10 15 14 14 42 -2 43 -25 93 -14 130 28 19 22 32 30 39 23 15 -15 76 -26 100 -17 12 5 22 16 22 25 0 14 3 14 15 4 20 -17 112 -8 132 13 12 11 20 13 32 5 11 -7 30 -6 59 1 l42 12 0 132 c0 128 1 133 23 142 19 9 22 18 22 65 0 50 -2 55 -24 58 -13 2 -28 -1 -34 -7 -6 -6 -24 -11 -40 -11 -35 0 -67 -16 -67 -35 0 -11 -6 -11 -32 2 -26 14 -38 14 -72 4 -84 -25 -82 -25 -92 10 -10 34 -19 41 -44 32z m396 -55 c-5 -31 -13 -46 -28 -53 -20 -10 -21 -17 -19 -142 l2 -132 -43 -8 -43 -9 -3 180 c-1 98 -1 181 2 183 2 2 19 5 37 7 19 2 41 5 49 9 27 10 45 14 49 11 2 -2 0 -23 -3 -46z m-366 6 c0 -29 3 -34 18 -30 15 5 17 1 14 -34 -3 -26 -9 -40 -18 -40 -11 0 -14 -22 -14 -105 0 -58 2 -105 4 -105 2 0 12 3 21 6 14 6 15 17 9 83 -9 109 8 186 46 206 33 17 73 19 100 5 25 -13 40 -62 40 -131 0 -57 0 -57 -32 -64 -67 -13 -68 -14 -66 -53 1 -36 1 -36 5 -6 4 33 22 44 71 44 18 0 22 -6 22 -29 0 -74 -42 -121 -109 -121 -21 0 -36 9 -55 33 l-26 32 6 -37 c6 -34 4 -38 -21 -44 -38 -9 -77 6 -92 36 -7 15 -13 69 -14 130 -1 58 -4 91 -6 73 -4 -28 -8 -32 -45 -38 l-40 -7 28 -18 c38 -25 53 -57 54 -108 0 -56 -14 -80 -57 -98 -63 -27 -113 5 -113 71 0 41 2 43 34 49 l34 6 -34 34 c-31 31 -34 39 -34 94 0 53 3 63 26 81 37 29 97 28 125 -1 21 -23 21 -23 15 -2 -4 14 -2 24 7 27 8 3 18 22 21 42 5 24 14 39 29 45 39 16 47 12 47 -26z m-693 -89 c42 -29 55 -141 22 -182 -8 -9 -6 -19 5 -35 20 -29 21 -129 1 -167 -16 -32 -64 -55 -137 -65 l-48 -7 0 230 0 230 28 4 c61 9 109 6 129 -8z m384 -24 c23 -18 24 -26 27 -155 l4 -136 -30 -30 c-40 -39 -88 -41 -123 -4 -23 24 -24 31 -24 161 l0 135 28 24 c34 29 85 32 118 5z m-179 -39 c15 -14 18 -39 19 -155 1 -119 -2 -141 -17 -158 -37 -41 -122 -40 -144 1 -13 25 -13 266 0 290 26 48 104 60 142 22z m388 -56 c0 -11 -19 -15 -25 -6 -3 5 1 10 9 10 9 0 16 -2 16 -4z"></path> <path d="M2092 1505 c-16 -20 -21 -22 -26 -10 -3 8 -12 15 -21 15 -13 0 -15 -23 -15 -159 0 -153 1 -159 20 -154 18 5 20 15 22 137 3 125 4 131 26 141 13 6 22 18 22 32 0 29 -4 29 -28 -2z m-35 -212 c-2 -32 -3 -6 -3 57 0 63 1 89 3 58 2 -32 2 -84 0 -115z"></path> <path d="M1730 1503 c0 -10 -7 -31 -16 -48 -10 -19 -11 -31 -5 -33 7 -2 11 -49 11 -127 0 -117 1 -125 22 -139 12 -9 28 -16 35 -16 18 0 16 31 -3 45 -13 9 -17 36 -21 128 -5 114 -4 117 16 117 12 0 21 6 21 16 0 11 -6 14 -20 9 -17 -6 -20 -2 -20 29 0 20 -4 36 -10 36 -5 0 -10 -8 -10 -17z m7 -175 l0 -133 -6 120 c-6 106 -5 145 4 145 1 0 2 -60 2 -132z m13 -148 c0 -5 -2 -10 -4 -10 -3 0 -8 5 -11 10 -3 6 -1 10 4 10 6 0 11 -4 11 -10z"></path> <path d="M1883 1480 c-36 -14 -43 -43 -43 -162 0 -130 8 -151 58 -151 43 0 72 28 72 69 0 27 -3 31 -19 27 -12 -3 -21 -15 -23 -32 -2 -18 -9 -26 -23 -26 -18 0 -20 7 -20 55 0 47 3 55 20 58 67 10 65 8 65 77 0 55 -3 66 -22 79 -25 18 -33 19 -65 6z m47 -80 c0 -46 -10 -60 -41 -60 -13 0 -11 94 2 107 22 22 39 2 39 -47z m-73 -27 c-3 -10 -5 -4 -5 12 0 17 2 24 5 18 2 -7 2 -21 0 -30z m103 -18 c0 -8 -4 -15 -10 -15 -5 0 -7 7 -4 15 4 8 8 15 10 15 2 0 4 -7 4 -15z m-103 -117 c-3 -7 -5 -2 -5 12 0 14 2 19 5 13 2 -7 2 -19 0 -25z m29 -55 c-7 -7 -26 7 -26 19 0 6 6 6 15 -2 9 -7 13 -15 11 -17z"></path> <path d="M1902 1400 c0 -19 2 -27 5 -17 2 9 2 25 0 35 -3 9 -5 1 -5 -18z"></path> <path d="M1550 1410 c-14 -14 -20 -33 -20 -63 0 -37 6 -48 40 -82 46 -45 62 -97 37 -122 -19 -20 -37 -9 -37 23 0 17 -5 24 -20 24 -15 0 -20 -7 -20 -24 0 -72 103 -76 125 -5 13 38 -4 84 -45 124 -30 29 -40 47 -40 71 0 42 24 63 39 35 6 -11 11 -26 11 -34 0 -10 7 -13 21 -10 16 5 19 11 14 32 -4 14 -11 32 -17 38 -16 20 -66 15 -88 -7z m88 -36 c-3 -14 -5 -12 -10 9 -3 19 -2 25 4 19 6 -6 8 -18 6 -28z m-91 -16 c-3 -8 -6 -5 -6 6 -1 11 2 17 5 13 3 -3 4 -12 1 -19z m13 -27 c0 -5 3 -17 7 -27 4 -11 3 -15 -4 -11 -14 9 -24 47 -12 47 5 0 9 -4 9 -9z m80 -143 c0 -51 -5 -47 -13 10 -3 24 -1 40 4 36 5 -3 9 -24 9 -46z"></path> <path d="M1592 1180 c0 -14 2 -19 5 -12 2 6 2 18 0 25 -3 6 -5 1 -5 -13z"></path> <path d="M987 1411 l-29 -6 2 -200 c0 -109 2 -201 4 -202 10 -10 92 13 115 33 23 20 26 29 26 89 0 56 -3 70 -21 84 -21 17 -21 18 -3 40 27 33 26 124 -1 151 -20 20 -42 23 -93 11z m93 -40 c5 -11 10 -35 9 -53 l-1 -33 -9 39 c-5 22 -14 45 -20 53 -8 9 -8 13 -1 13 6 0 16 -9 22 -19z m-32 -3 c7 -7 12 -33 12 -59 0 -38 -5 -51 -22 -63 -12 -9 -26 -16 -30 -16 -5 0 -8 34 -8 75 0 66 2 75 18 75 10 0 23 -5 30 -12z m-71 -70 c-2 -13 -4 -5 -4 17 -1 22 1 32 4 23 2 -10 2 -28 0 -40z m15 -100 c-9 -9 -12 -7 -12 12 0 19 3 21 12 12 9 -9 9 -15 0 -24z m45 16 c-3 -3 -12 -4 -19 -1 -8 3 -5 6 6 6 11 1 17 -2 13 -5z m43 -23 c5 -11 9 -41 8 -68 l-2 -48 -3 50 c-3 27 -11 58 -20 67 -9 11 -11 18 -5 18 6 0 16 -9 22 -19z m-16 -36 c11 -45 -4 -95 -31 -106 -13 -5 -26 -9 -29 -9 -2 0 -4 33 -4 74 0 77 8 92 41 75 9 -5 20 -20 23 -34z m-81 -32 c2 -24 0 -43 -4 -43 -5 0 -9 21 -9 47 0 56 6 54 13 -4z m83 -81 c-17 -16 -18 -16 -5 5 7 12 15 20 18 17 3 -2 -3 -12 -13 -22z m-76 -12 c0 -5 -5 -10 -11 -10 -5 0 -7 5 -4 10 3 6 8 10 11 10 2 0 4 -4 4 -10z m37 -6 c-3 -3 -12 -4 -19 -1 -8 3 -5 6 6 6 11 1 17 -2 13 -5z"></path> <path d="M1020 1310 c0 -32 4 -49 10 -45 6 3 10 24 10 45 0 21 -4 42 -10 45 -6 4 -10 -13 -10 -45z"></path> <path d="M1020 1119 c0 -31 4 -48 10 -44 6 3 10 26 10 51 0 24 -4 44 -10 44 -5 0 -10 -23 -10 -51z"></path> <path d="M1390 1389 c-13 -6 -28 -15 -32 -22 -4 -7 -8 -69 -8 -139 0 -126 0 -128 26 -144 23 -16 28 -16 59 -1 43 21 48 38 43 177 -3 97 -6 114 -22 126 -23 16 -32 17 -66 3z m48 -158 c-3 -104 -5 -116 -22 -119 -10 -2 -22 1 -26 7 -3 7 -6 61 -6 122 1 85 4 112 16 119 32 20 41 -8 38 -129z m-71 77 c-3 -8 -6 -5 -6 6 -1 11 2 17 5 13 3 -3 4 -12 1 -19z m0 -145 c-2 -16 -4 -3 -4 27 0 30 2 43 4 28 2 -16 2 -40 0 -55z"></path> <path d="M1414 1235 c0 -60 1 -84 3 -52 2 32 2 81 0 110 -2 29 -3 3 -3 -58z"></path> <path d="M1180 1340 c-18 -18 -20 -33 -20 -138 0 -126 11 -162 51 -162 23 0 61 18 71 34 4 6 8 66 8 133 0 97 -3 125 -16 137 -22 22 -70 20 -94 -4z m65 -140 c0 -118 -1 -125 -20 -125 -19 0 -20 8 -23 123 -2 88 -6 121 -14 116 -6 -4 -8 -3 -5 3 4 6 19 10 34 9 l28 -1 0 -125z m32 78 c-3 -8 -6 -5 -6 6 -1 11 2 17 5 13 3 -3 4 -12 1 -19z m-100 -55 c-3 -10 -5 -4 -5 12 0 17 2 24 5 18 2 -7 2 -21 0 -30z m100 5 c-3 -8 -6 -5 -6 6 -1 11 2 17 5 13 3 -3 4 -12 1 -19z m0 -100 c-2 -18 -4 -6 -4 27 0 33 2 48 4 33 2 -15 2 -42 0 -60z m-83 -54 c3 -8 2 -12 -4 -9 -6 3 -10 10 -10 16 0 14 7 11 14 -7z"></path> <path d="M1224 1205 c0 -60 1 -84 3 -52 2 32 2 81 0 110 -2 29 -3 3 -3 -58z"></path> <path d="M1658 1497 c-3 -19 -2 -25 4 -19 6 6 8 18 6 28 -3 14 -5 12 -10 -9z"></path> <path d="M1578 1493 c7 -3 16 -2 19 1 4 3 -2 6 -13 5 -11 0 -14 -3 -6 -6z"></path> </g> </svg> 