<?xml version="1.0" standalone="no"?>
<!DOCTYPE svg PUBLIC "-//W3C//DTD SVG 20010904//EN"
 "http://www.w3.org/TR/2001/REC-SVG-20010904/DTD/svg10.dtd">
<svg version="1.0" xmlns="http://www.w3.org/2000/svg" width="320.000000pt" height="190.000000pt" viewBox="0 0 320.000000 190.000000" preserveAspectRatio="xMidYMid meet">
<metadata>
Created by potrace 1.10, written by Peter Selinger 2001-2011
</metadata>
<g transform="translate(0.000000,190.000000) scale(0.100000,-0.100000)" fill="#ede8e8" stroke="none">
<path d="M246 1597 c-15 -11 -18 -38 -22 -243 -7 -299 -24 -275 198 -276 91 0
171 3 177 6 6 4 11 37 11 76 0 63 -2 71 -26 86 -17 12 -22 20 -15 27 14 14 14
124 1 132 -14 9 -12 25 3 25 31 0 45 33 41 94 -2 33 -9 65 -15 72 -15 18 -328
19 -353 1z m344 -77 l0 -60 -110 0 -110 0 0 -30 0 -30 90 0 90 0 0 -57 0 -58
-90 3 -90 3 0 -30 0 -31 110 0 110 0 0 -65 0 -65 -170 0 -170 0 0 240 0 240
170 0 170 0 0 -60z"></path>
<path d="M751 1593 l-21 -18 79 -175 c124 -279 140 -310 157 -317 23 -9 38 12
84 117 23 52 67 148 96 214 67 145 73 170 46 185 -13 7 -95 11 -220 11 -176 0
-202 -2 -221 -17z m436 -20 c-2 -5 -50 -113 -107 -240 -57 -128 -106 -231
-108 -228 -5 5 -212 465 -212 471 0 2 97 4 216 4 118 0 213 -3 211 -7z"></path>
<path d="M797 1548 c6 -7 48 -98 93 -201 51 -114 86 -183 91 -175 14 26 169
375 169 382 0 3 -82 6 -181 6 -144 0 -179 -3 -172 -12z m310 -30 c-14 -38 -57
-132 -93 -207 -39 -81 -42 -85 -52 -61 -9 22 -39 89 -102 225 -18 40 -18 40 4
47 11 3 72 6 135 7 87 1 112 -2 108 -11z"></path>
<path d="M1353 1588 c-14 -15 -16 -51 -15 -249 1 -155 6 -236 13 -245 9 -11
51 -14 182 -14 197 0 196 0 197 91 0 57 -11 79 -42 79 -20 0 -23 11 -9 26 18
17 16 113 -2 132 -16 15 -15 17 15 32 31 14 33 18 36 76 2 45 -1 64 -12 73
-11 9 -66 13 -181 14 -147 2 -168 0 -182 -15z m347 -68 l0 -60 -107 0 -108 0
0 -30 0 -30 93 0 93 0 -3 -57 -3 -56 -87 2 -88 2 0 -25 c0 -14 0 -29 0 -32 0
-4 47 -6 105 -5 l105 2 0 -65 0 -66 -170 0 -170 0 0 240 0 240 170 0 170 0 0
-60z"></path>
<path d="M1895 1590 c-17 -19 -19 -40 -17 -246 1 -126 6 -232 11 -243 14 -26
32 -28 220 -24 137 2 167 5 182 19 18 16 19 33 15 251 -3 193 -6 237 -19 250
-18 18 -57 2 -58 -25 0 -9 0 -60 0 -112 0 -53 -3 -101 -7 -107 -5 -9 -54 32
-145 122 -76 74 -143 135 -151 135 -7 0 -21 -9 -31 -20z m200 -170 l160 -160
-3 160 c-3 141 -2 160 12 160 14 0 16 -27 16 -237 l0 -238 -185 0 -185 0 0
238 c0 182 3 237 12 237 7 0 85 -72 173 -160z"></path>
<path d="M2445 1591 c-10 -12 -15 -37 -15 -73 0 -63 17 -86 65 -86 17 0 48 0
71 -1 l41 -1 -3 -157 c-2 -133 0 -161 13 -175 9 -10 22 -18 28 -18 31 0 37 30
38 189 2 179 -1 172 77 165 27 -3 52 2 70 12 27 16 28 19 23 78 -3 34 -10 67
-15 73 -8 9 -59 12 -194 12 -159 -1 -185 -4 -199 -18z m385 -71 l0 -60 -87 0
-88 0 3 -180 c2 -157 1 -180 -13 -180 -13 0 -15 24 -15 180 l0 180 -85 0 -85
0 0 60 0 60 185 0 185 0 0 -60z"></path>
<path d="M778 880 c-82 -25 -139 -112 -146 -226 -10 -161 54 -263 176 -280 46
-6 73 17 74 65 1 17 3 30 5 28 2 -3 5 -68 7 -147 4 -152 9 -166 56 -173 84
-13 174 81 195 203 8 45 8 45 19 18 31 -74 107 -118 206 -118 133 0 220 76
220 192 0 39 -33 108 -52 108 -5 0 -8 5 -8 10 0 6 6 10 14 10 26 0 44 38 36
73 -15 68 -54 116 -118 143 -46 20 -163 14 -209 -9 -47 -25 -85 -80 -90 -131
-7 -59 0 -85 36 -123 28 -31 28 -33 9 -33 -12 0 -30 -7 -40 -16 -14 -14 -18
-14 -22 -3 -31 105 -89 177 -145 181 -14 1 -35 2 -46 3 -31 2 -55 -14 -56 -38
-3 -57 -19 56 -18 128 1 103 0 108 -10 123 -10 17 -58 23 -93 12z m82 -251 l0
-232 -47 7 c-63 8 -102 33 -127 81 -31 59 -30 222 1 282 33 61 75 87 151 92
l22 1 0 -231z m560 140 c78 -17 140 -80 140 -144 0 -24 -3 -25 -55 -25 -42 0
-55 3 -55 15 0 49 -91 74 -130 35 -38 -38 -19 -49 139 -90 93 -24 131 -104 89
-188 -32 -66 -90 -96 -178 -96 -111 1 -172 46 -189 139 l-8 45 58 0 c33 0 58
-3 57 -7 -1 -5 1 -18 5 -29 17 -48 124 -57 148 -12 16 30 -5 46 -82 64 -115
26 -151 50 -169 114 -21 74 26 149 109 174 58 18 59 18 121 5z m-16 -135 c9
-3 16 -13 16 -21 0 -11 -7 -13 -32 -8 -40 9 -48 13 -48 26 0 10 40 12 64 3z
m-374 -26 c66 -34 85 -79 85 -198 0 -79 -4 -103 -23 -142 -27 -54 -67 -82
-129 -92 l-43 -6 0 230 0 230 33 0 c18 0 53 -10 77 -22z m373 -177 c12 -12
-28 -24 -58 -17 -12 3 -25 13 -29 21 -5 13 1 15 36 11 23 -3 45 -9 51 -15z"></path>
<path d="M242 777 c-16 -19 -18 -466 -3 -496 12 -22 9 -22 161 -23 129 -2 166
13 209 83 29 48 27 107 -5 155 -26 38 -26 39 -9 70 38 71 6 172 -65 206 -45
22 -271 25 -288 5z m302 -46 c55 -52 55 -137 -1 -181 -14 -11 -21 -20 -15 -20
21 0 70 -60 76 -94 9 -47 -15 -101 -56 -126 -29 -17 -50 -20 -160 -20 l-128 0
0 236 0 236 129 -4 c121 -3 131 -5 155 -27z"></path>
<path d="M1658 778 c-19 -15 -21 -24 -19 -95 1 -48 3 -53 27 -59 32 -8 56 -11
107 -13 l37 -1 -1 -160 c-2 -116 1 -163 11 -175 17 -20 33 -19 54 3 14 16 16
42 15 171 0 84 2 155 4 157 2 2 34 5 71 6 90 3 105 17 100 94 -3 32 -9 63 -15
71 -16 18 -368 19 -391 1z m382 -78 l0 -60 -90 0 -90 0 0 -175 c0 -133 -3
-175 -12 -175 -10 0 -12 40 -10 175 l3 175 -91 0 -90 0 0 60 0 60 190 0 190 0
0 -60z"></path>
<path d="M2147 772 c-14 -15 -16 -51 -17 -249 0 -249 2 -262 53 -264 154 -4
310 1 322 11 11 9 15 33 15 82 0 68 -1 69 -30 79 -27 10 -28 13 -16 32 18 30
13 113 -8 136 -16 17 -15 18 6 14 32 -6 50 27 50 94 1 80 -5 82 -198 83 -141
0 -163 -2 -177 -18z m353 -72 l0 -60 -110 0 -110 0 0 -30 0 -30 90 0 90 0 0
-55 0 -55 -90 0 -90 0 0 -30 0 -30 110 0 110 0 0 -60 0 -60 -170 0 -170 0 0
235 0 235 170 0 170 0 0 -60z"></path>
<path d="M2627 772 c-15 -16 -17 -48 -17 -248 0 -126 4 -234 8 -241 15 -23 59
-29 210 -27 203 2 213 10 138 116 l-44 62 40 47 c46 55 56 86 48 150 -8 59
-49 115 -104 140 -60 27 -255 28 -279 1z m282 -32 c42 -21 81 -85 81 -133 0
-56 -53 -133 -102 -149 -7 -3 9 -34 45 -85 31 -45 57 -83 57 -85 0 -1 -79 -2
-175 0 l-175 3 0 234 0 235 115 0 c95 0 123 -3 154 -20z"></path>
<path d="M2765 614 c49 -71 90 -131 91 -133 2 -2 17 2 34 9 64 26 90 122 50
187 -28 46 -53 56 -164 61 l-99 5 88 -129z m136 69 c32 -31 40 -95 18 -129
-35 -54 -43 -51 -113 48 -36 50 -62 96 -59 101 3 5 34 7 69 5 48 -3 70 -9 85
-25z"></path>
<path d="M2660 599 l0 -124 85 0 c47 0 85 1 85 3 0 2 -157 230 -167 241 -1 2
-3 -52 -3 -120z m80 -33 c34 -51 37 -66 13 -66 -54 1 -63 10 -62 61 1 27 6 49
10 49 4 0 22 -20 39 -44z"></path>
<path d="M2660 380 l0 -70 145 0 145 0 -51 70 -51 70 -94 0 -94 0 0 -70z m185
30 c6 -5 18 -22 28 -39 l18 -31 -100 0 -101 0 0 39 c0 23 5 41 13 44 19 6 131
-4 142 -13z"></path>
</g>
</svg>
