<svg xmlns="http://www.w3.org/2000/svg" width="666.667" height="666.667" version="1.0" viewBox="0 0 500 500"><path d="M318.5 157.5c-.5.2-2.2.6-3.7.9-2.3.5-3 1.5-4.4 6.4-.9 3.1-2.5 6.6-3.5 7.8-2.4 2.6-2.8 11.7-.5 10.8 1.2-.5 1.5 2.6 1.8 19.1l.3 19.7 3.7 3.4c3.2 2.8 4.5 3.4 8.4 3.4 7.5 0 8.4-1 8.4-9v-7l-2.6 1.2c-2.1 1-2.7.9-3.5-.3-.5-.8-.8-8.6-.6-17.4l.2-16 2.8-.3c2.6-.3 2.7-.5 2.7-6.6v-6.3l-3 .5-3 .4v-5.6c0-5.4-.5-6.1-3.5-5.1m-.5 10v5.5l3.2-.2c2.4-.2 3.3.2 3.6 1.5.3 1.2-.5 1.9-2.7 2.3-1.7.4-3.3.9-3.5 1.3-.2.3-.1 9.4.2 20.1l.7 19.5 2.8 1.3c1.8.9 2.7 2.1 2.7 3.8 0 2.1-.4 2.4-3.9 2.4-2.3 0-4.8-.8-6.2-1.9-2.4-1.9-2.4-2.2-2.7-23-.3-17.6-.6-21.1-1.8-21.1-1.8 0-1.8-2.4 0-3.9.7-.6 2.1-3.8 3-7.1 2.3-8 4.6-8.2 4.6-.5M201.5 173.6c-3.8.8-9.4 2-12.4 2.5l-5.4 1.1.6 38c.3 20.9.7 38.1.9 38.3.3.3 18.3-2.8 23.6-4 2-.5 2.2-1.1 2.2-7.6v-7.1l-6 .7-6 .7v-16.1l3.8-.6c6.3-1.1 6.2-.9 6.2-8.8v-7.4l-4.2.8c-2.4.4-4.6.8-5 .9-.5 0-.8-3.5-.8-7.9v-7.9l3.8-.6c7.5-1.4 7.2-1 7.2-9.2 0-4.1-.3-7.4-.7-7.3-.5.1-3.9.8-7.8 1.5m4.5 6.8c0 3.4-.1 3.5-5.5 4.6l-5.6 1.2.3 11.6c.2 7.1.7 11.6 1.3 11.6.6-.1 2.7-.5 4.8-.8l3.7-.7v3.5c0 3.4-.2 3.6-3.9 4.2-2.1.3-4.3.9-4.8 1.3-.6.3-.8 5.3-.5 12.4.4 10.2.7 11.7 2.1 11.3.9-.2 3.3-.7 5.4-1.1 3.7-.6 3.7-.6 3.7 2.9 0 3.3-.2 3.5-4.7 4.4-2.7.6-6.9 1.3-9.5 1.7l-4.8.7v-69l7.8-1.5c10.7-2.1 10.2-2.2 10.2 1.7M287.6 175.1c-2.1 1.6-3 1.8-4 1-1.3-1.1-3.3-.9-8.8.6-1.6.4-1.8 2.1-1.8 16.6 0 24.5 1.1 44.6 2.4 44.2.6-.2 3.7-.9 6.9-1.5l5.7-1.1v-24c0-15.3.4-23.9 1-23.9s1 8.6 1 23.9v23.8l4.8-.8c2.6-.5 5.7-1.1 7-1.4l2.2-.5v-25.6c0-27-.4-30-4.9-32.4-3.2-1.7-8.6-1.2-11.5 1.1m11.2 4.1c1.5 3.3 2.4 49.8.8 49.8-.6 0-2.1.3-3.3.6l-2.3.6v-20.8c0-22.2-.6-25.6-4.7-26.2-1.3-.2-2.7.5-3.7 2-1.3 1.9-1.6 5.7-1.6 24.4 0 22.1 0 22.2-2.2 22.8-5 1.3-4.8 2.2-4.8-25.8 0-24.2.1-26.4 1.8-27.1 1.2-.4 2.3.1 3.6 1.9l2 2.6 3.2-3.5c3.9-4.3 9.4-4.9 11.2-1.3"/><path d="M253.5 179.9c-4.4 1.1-7.1 2.7-9.4 5.7l-2.1 2.7v-2.7c0-2.1-.4-2.6-1.7-2.2-1 .3-3.9.8-6.6 1.2-2.6.3-5 1-5.3 1.5-.3.6-1.1 6-1.8 12.2l-1.2 11.2-1.3-11c-.7-6-1.4-11.2-1.7-11.4-.5-.6-12.4 1.6-13.2 2.4s7 58.5 7.9 58.5c1.4 0 16.2-3 16.6-3.3.2-.2 1.7-10.2 3.3-22.2s3.2-22 3.5-22.3.5 6.6.5 15.4c0 18.2.9 21.4 7.4 24.7 6.9 3.6 16.8.1 20.7-7.3 1.3-2.4 1.9-5.6 1.9-10.4v-6.9l-3.2.7c-1.8.4-5 .9-7 1.3-3.8.6-3.8.6-3.8 5.4 0 2.7-.4 4.9-1 4.9s-1-2.6-1-5.9v-5.9l8-1.2 8-1.2v-11.7c0-9.1-.4-12.3-1.8-15-3.1-6.1-9.1-8.9-15.7-7.2m7.9 4.5c4.6 1.9 5.7 5.4 5.4 16.7l-.3 9.4-7.7 1.4-7.8 1.3v6.8c0 8.8 1.2 12 4.4 12 3 0 4.6-1.9 4.9-6.1.2-3.8 1.2-4.9 4.5-4.9 1.9 0 2.2.5 2.2 4 0 5.6-2.4 9.9-6.5 11.6-5.4 2.2-9.3 1.8-12.5-1.4-2.7-2.8-2.8-3.1-3.5-18.6-1.1-23.4 0-28.6 7-31.7 4.8-2.2 5.7-2.3 9.9-.5m-23.9 5.8c-.2 1.3-1.8 12.9-3.5 25.8s-3.2 24-3.4 24.6c-.3.6-2.7 1.6-5.5 2.1-4.8 1-5.2.9-5.6-1.1-.9-4.2-6.7-48.8-6.3-49.1.2-.2 1.7-.5 3.3-.7l3-.3.8 7c.4 3.8 1.3 13.3 2 21 1.1 12.9 1.4 14 3.2 14 1.4 0 2.1-.7 2.2-2.5 2.1-28 3.8-42 5.2-42.3 4-1.1 5.1-.7 4.6 1.5"/><path d="M252.6 191.2c-1.1 1.5-1.6 4.6-1.6 9.6v7.4l3.1-.6c1.7-.3 3.8-.6 4.5-.6 1.8 0 2-15 .2-16.8-1.9-1.9-4.5-1.4-6.2 1M352.2 242c-1.8.4-4.1 1.5-5.1 2.4-1.3 1.2-2 1.3-2.3.6-.2-.8-1.8-1-5.1-.5l-4.7.7v60.5l4.8-.8c10.3-1.9 9.2 1 9.2-23.7 0-23.5.2-24.2 5.2-24.2 2.7 0 2.8-.2 2.8-4.9 0-2.7.3-6.3.6-8 .7-3.4.4-3.5-5.4-2.1m1.4 6.2c-.3 1.3-.6 2.8-.6 3.4 0 .7-1.1 1.5-2.5 1.8-1.4.4-3.2 2-4.1 3.8-1.5 2.8-1.6 5.8-1.1 23 .4 14.6.2 19.8-.6 19.8-.7 0-2.2.3-3.4.6l-2.3.6v-26.1c0-22.4.2-26.2 1.5-26.7.9-.4 2.4.4 3.6 1.7 1.5 1.8 2.2 2.1 2.6 1 1.8-4.5 8.1-7.1 6.9-2.9M292.5 242.5c-.5.2-2.2.6-3.6.9-2.1.5-2.9 1.6-4.4 6.6-1 3.3-2.6 6.7-3.7 7.6-1 1-1.8 3.1-1.8 4.8l-.1 3.1-1.3-2.4c-1.9-3.3-5.4-5-10.6-5.1-5.7 0-10.8 2.6-13.7 6.9-1.8 2.6-2.3 4.8-2.3 9.7 0 8.2 1.1 10.9 7.1 17l5.1 5.1-3.9.7c-2.1.4-5 .9-6.5 1.2l-2.8.6v-12.7c0-14-1.1-18.2-5.6-21.1-4-2.7-12-2.4-16.7.5-6.7 4.1-7.2 6-7.2 28.6 0 22.3.6 24.7 6.8 28.6 3.8 2.4 10.9 2 15.8-.8 3.7-2.1 6.9-7.9 7-12.5 0-1.8.3-2.6.6-1.8 3.2 8.9 6.7 11.5 14.8 10.8 9.6-.8 14.5-6.6 14.5-17.2 0-7.6-2.4-12.9-7.8-17.5l-4.5-3.9 3.2-.6c1.7-.3 4.5-.9 6.1-1.2 2.8-.5 3-.8 3-5.5 0-2.7.5-4.9 1-4.9.6 0 1 6.3 1 17 0 18 .7 21.7 4.9 25.4 2.5 2.3 10.9 3.3 14 1.7 1.8-1 2.1-2.1 2.1-6.9l.1-5.7 1.4 3.2c2.1 4.9 7 7.5 12.7 6.9 9.7-1 14.6-6.2 15.5-16.6.8-8.4.4-8.9-5.4-7.9-9.6 1.7-9.2 1.4-9.6 7.2-.3 4.3-.4 4.1-.3-1.3l.1-6.5 7.8-1.4 7.7-1.3v-9.7c-.1-12.1-1.1-16.7-4.7-20.3-7.4-7.4-22.3-2.7-25.1 7.9l-1 3.8-.1-5.7-.1-5.8-3 .6-3 .6v-5.6c0-5.4-.5-6.1-3.5-5.1m-.3 9.7c.3 5.1.4 5.2 3.3 5.3 4.2 0 4.7 3.1.5 4l-3 .7.2 19.6.3 19.7 2.8 1.3c1.8.9 2.7 2.1 2.7 3.8 0 2.2-.4 2.4-4.5 2.4-4 0-4.7-.4-6.5-3.3s-2-5-2-22.9c0-17.1-.2-19.7-1.5-19.2-2 .8-2-2 0-3.6.8-.7 2.2-3.9 3.1-7.1 2.1-7.5 4.2-7.8 4.6-.7m31.3.8c3.9 1.5 5.5 6.5 5.5 16.8v8.9l-7.7 1.4-7.8 1.4-.3 7.2c-.3 8.2.8 11.3 4.1 11.3s4.7-1.9 4.7-6.1c0-3 .4-3.8 2.3-4.3 4.2-1.1 4.7-.7 4.7 3.3 0 5.4-3.5 10.2-8.7 12.1-5.1 1.7-8.7.7-11.7-3.3-2-2.7-2.1-4.1-2.1-22.1 0-16.9.2-19.5 1.8-22 3.1-4.7 9.7-6.7 15.2-4.6m-50 11c2.3 2.5 3.4 11 1.4 11-.8 0-2.4.3-3.6.6-2.1.6-2.3.3-2.3-3.3 0-6.2-3.6-8.4-6.5-3.9-1.1 1.7-1.4 3.5-.9 6.7.6 3.7 1.8 5.5 7 10.6 4.7 4.7 6.5 7.3 7 10 2.4 12.4-1.7 19.3-11.4 19.3-5.5 0-8.3-2.5-9.2-8.3-.5-3.2-.3-4.7.4-4.7.6 0 2.1-.3 3.4-.6 1.8-.5 2.2-.2 2.2 1.7.1 8.4 6.5 10.9 8.4 3.3 1.3-5-1.3-10.5-7.5-16.4-5.2-4.8-6-6.1-6.9-10.9-1.3-6.8.1-12.2 3.7-15 3.6-2.9 12.2-2.9 14.8-.1m29.5 16.8v16.9l-2.6 1.2c-1.5.6-2.9 1-3.1.7-.3-.3-.8-8.1-1.1-17.5l-.5-16.9 2.4-.5c1.3-.2 3-.5 3.7-.6.9-.1 1.2 3.9 1.2 16.7m-60-11c2.5 2.6 2.9 3.7 3.5 12.6.4 5.4.5 14.5.3 20.2-.4 8.5-.9 11-2.5 13.2-4.4 5.9-14.6 6.7-18.1 1.4-1.5-2.3-1.7-5.3-1.7-22.8 0-18.8.1-20.3 2-22.4 4.8-5.4 12.2-6.4 16.5-2.2"/><path d="M315.1 258.9c-1.8 1.8-2.1 3.3-2.1 10 0 8.6-.5 8.1 6.3 6.6l2.8-.6-.3-7.6c-.3-6.5-.6-7.8-2.5-9-1.9-1.3-2.4-1.2-4.2.6M233 274c-1.8 1.8-2 3.4-2 20.4 0 15 .3 18.7 1.5 19.9 2 2.1 5.4 1 6.6-2 1.2-3.2 1.2-34.9-.1-37.2-1.5-2.9-3.8-3.3-6-1.1M161 261.3l-5.5 1.2.4 37.5c.2 20.6.5 37.7.7 37.9.5.5 13.9-1.7 18.4-3.1 9.7-3 12.9-8.7 13-22.8 0-7.7-.4-10.3-2.1-13.4-2-3.7-2-3.9-.2-7.5 2.5-5 2.5-19.2 0-23.9-3.7-6.9-11.3-8.7-24.7-5.9m17.4 3.8c5.3 2.5 7.4 16.3 3.7 24.5-1 2.3-2.4 4.5-3 4.9-.8.4-.2 1.8 1.8 4 3.4 3.9 4.7 10.6 3.6 18.7-.9 6.3-2.8 10-6.5 12.2-2.8 1.6-16.9 5-17.7 4.2-.2-.2-.5-15.6-.6-34.2l-.2-33.9 3-.6c5-1.1 13.3-1 15.9.2"/><path d="M167.3 270.7c-1.4.5-1.6 11.2-.5 19.4l.7 4.5 3.3-.8c4.5-1.2 6.6-6.1 6-14-.6-8-4.1-11.3-9.5-9.1M167.7 301.7c-.4.3-.7 6-.7 12.5 0 13 .2 13.3 5.9 10.3 3.7-1.8 4.1-3.1 4.1-11.9 0-8.4-1.6-11.6-5.9-11.6-1.5 0-3.1.3-3.4.7M198 271.2c-7.9 4-8.5 6.1-8.5 29.3 0 21.9.6 24.5 6.1 28.2 6.1 4 16.5 1.2 21.1-5.7 2.2-3.1 2.3-4.2 2.3-23.4 0-22.8-.7-25.7-7-28.8-4.7-2.4-8.7-2.3-14 .4m14 4.3c2.9 3.1 3.8 9.2 3.8 26.5 0 16.4-1 19.8-6.8 22.7-5.9 3-8.3 2.9-12.2-.6l-3.3-2.9-.3-19c-.4-21.6.3-24.7 5.9-27.5 5.1-2.5 10.1-2.2 12.9.8"/><path d="M201.7 279.8c-1.5 1.6-1.7 4.5-1.7 20.3 0 19.6.3 20.9 4.7 20.9 3.8 0 4.5-3.7 4.1-23.3-.2-14.5-.6-18-1.8-18.7-2.2-1.4-3.5-1.2-5.3.8"/></svg>