<?xml version="1.0" standalone="no"?>
<!DOCTYPE svg PUBLIC "-//W3C//DTD SVG 20010904//EN"
 "http://www.w3.org/TR/2001/REC-SVG-20010904/DTD/svg10.dtd">
<svg version="1.0" xmlns="http://www.w3.org/2000/svg" width="500.000000pt" height="500.000000pt" viewBox="0 0 500.000000 500.000000" preserveAspectRatio="xMidYMid meet">
<metadata>
Created by potrace 1.16, written by Peter Selinger 2001-2019
</metadata>
<g transform="translate(0.000000,500.000000) scale(0.100000,-0.100000)" fill="#000000" stroke="none">
<path d="M3185 3425 c-5 -2 -22 -6 -37 -9 -23 -5 -30 -15 -44 -64 -9 -31 -25
-66 -35 -78 -24 -26 -28 -117 -5 -108 12 5 15 -26 18 -191 l3 -197 37 -34 c32
-28 45 -34 84 -34 75 0 84 10 84 90 l0 70 -26 -12 c-21 -10 -27 -9 -35 3 -5 8
-8 86 -6 174 l2 160 28 3 c26 3 27 5 27 66 l0 63 -30 -5 -30 -4 0 56 c0 54 -5
61 -35 51z m-5 -100 l0 -55 32 2 c24 2 33 -2 36 -15 3 -12 -5 -19 -27 -23 -17
-4 -33 -9 -35 -13 -2 -3 -1 -94 2 -201 l7 -195 28 -13 c18 -9 27 -21 27 -38 0
-21 -4 -24 -39 -24 -23 0 -48 8 -62 19 -24 19 -24 22 -27 230 -3 176 -6 211
-18 211 -18 0 -18 24 0 39 7 6 21 38 30 71 23 80 46 82 46 5z"></path>
<path d="M2015 3264 c-38 -8 -94 -20 -124 -25 l-54 -11 6 -380 c3 -209 7 -381
9 -383 3 -3 183 28 236 40 20 5 22 11 22 76 l0 71 -60 -7 -60 -7 0 81 0 80 38
6 c63 11 62 9 62 88 l0 74 -42 -8 c-24 -4 -46 -8 -50 -9 -5 0 -8 35 -8 79 l0
79 38 6 c75 14 72 10 72 92 0 41 -3 74 -7 73 -5 -1 -39 -8 -78 -15z m45 -68
c0 -34 -1 -35 -55 -46 l-56 -12 3 -116 c2 -71 7 -116 13 -116 6 1 27 5 48 8
l37 7 0 -35 c0 -34 -2 -36 -39 -42 -21 -3 -43 -9 -48 -13 -6 -3 -8 -53 -5
-124 4 -102 7 -117 21 -113 9 2 33 7 54 11 37 6 37 6 37 -29 0 -33 -2 -35 -47
-44 -27 -6 -69 -13 -95 -17 l-48 -7 0 345 0 345 78 15 c107 21 102 22 102 -17z"></path>
<path d="M2876 3249 c-21 -16 -30 -18 -40 -10 -13 11 -33 9 -88 -6 -16 -4 -18
-21 -18 -166 0 -245 11 -446 24 -442 6 2 37 9 69 15 l57 11 0 240 c0 153 4
239 10 239 6 0 10 -86 10 -239 l0 -238 48 8 c26 5 57 11 70 14 l22 5 0 256 c0
270 -4 300 -49 324 -32 17 -86 12 -115 -11z m112 -41 c15 -33 24 -498 8 -498
-6 0 -21 -3 -33 -6 l-23 -6 0 208 c0 222 -6 256 -47 262 -13 2 -27 -5 -37 -20
-13 -19 -16 -57 -16 -244 0 -221 0 -222 -22 -228 -50 -13 -48 -22 -48 258 0
242 1 264 18 271 12 4 23 -1 36 -19 l20 -26 32 35 c39 43 94 49 112 13z"></path>
<path d="M2535 3201 c-44 -11 -71 -27 -94 -57 l-21 -27 0 27 c0 21 -4 26 -17
22 -10 -3 -39 -8 -66 -12 -26 -3 -50 -10 -53 -15 -3 -6 -11 -60 -18 -122 l-12
-112 -13 110 c-7 60 -14 112 -17 114 -5 6 -124 -16 -132 -24 -8 -8 70 -585 79
-585 14 0 162 30 166 33 2 2 17 102 33 222 16 120 32 220 35 223 3 3 5 -66 5
-154 0 -182 9 -214 74 -247 69 -36 168 -1 207 73 13 24 19 56 19 104 l0 69
-32 -7 c-18 -4 -50 -9 -70 -13 -38 -6 -38 -6 -38 -54 0 -27 -4 -49 -10 -49 -6
0 -10 26 -10 59 l0 59 80 12 80 12 0 117 c0 91 -4 123 -18 150 -31 61 -91 89
-157 72z m79 -45 c46 -19 57 -54 54 -167 l-3 -94 -77 -14 -78 -13 0 -68 c0
-88 12 -120 44 -120 30 0 46 19 49 61 2 38 12 49 45 49 19 0 22 -5 22 -40 0
-56 -24 -99 -65 -116 -54 -22 -93 -18 -125 14 -27 28 -28 31 -35 186 -11 234
0 286 70 317 48 22 57 23 99 5z m-239 -58 c-2 -13 -18 -129 -35 -258 -17 -129
-32 -240 -34 -246 -3 -6 -27 -16 -55 -21 -48 -10 -52 -9 -56 11 -9 42 -67 488
-63 491 2 2 17 5 33 7 l30 3 8 -70 c4 -38 13 -133 20 -210 11 -129 14 -140 32
-140 14 0 21 7 22 25 21 280 38 420 52 423 40 11 51 7 46 -15z"></path>
<path d="M2526 3088 c-11 -15 -16 -46 -16 -96 l0 -74 31 6 c17 3 38 6 45 6 18
0 20 150 2 168 -19 19 -45 14 -62 -10z"></path>
<path d="M3522 2580 c-18 -4 -41 -15 -51 -24 -13 -12 -20 -13 -23 -6 -2 8 -18
10 -51 5 l-47 -7 0 -303 0 -302 48 8 c103 19 92 -10 92 237 0 235 2 242 52
242 27 0 28 2 28 49 0 27 3 63 6 80 7 34 4 35 -54 21z m14 -62 c-3 -13 -6 -28
-6 -34 0 -7 -11 -15 -25 -18 -14 -4 -32 -20 -41 -38 -15 -28 -16 -58 -11 -230
4 -146 2 -198 -6 -198 -7 0 -22 -3 -34 -6 l-23 -6 0 261 c0 224 2 262 15 267
9 4 24 -4 36 -17 15 -18 22 -21 26 -10 18 45 81 71 69 29z"></path>
<path d="M2925 2575 c-5 -2 -22 -6 -36 -9 -21 -5 -29 -16 -44 -66 -10 -33 -26
-67 -37 -76 -10 -10 -18 -31 -18 -48 l-1 -31 -13 24 c-19 33 -54 50 -106 51
-57 0 -108 -26 -137 -69 -18 -26 -23 -48 -23 -97 0 -82 11 -109 71 -170 l51
-51 -39 -7 c-21 -4 -50 -9 -65 -12 l-28 -6 0 127 c0 140 -11 182 -56 211 -40
27 -120 24 -167 -5 -67 -41 -72 -60 -72 -286 0 -223 6 -247 68 -286 38 -24
109 -20 158 8 37 21 69 79 70 125 0 18 3 26 6 18 32 -89 67 -115 148 -108 96
8 145 66 145 172 0 76 -24 129 -78 175 l-45 39 32 6 c17 3 45 9 61 12 28 5 30
8 30 55 0 27 5 49 10 49 6 0 10 -63 10 -170 0 -180 7 -217 49 -254 25 -23 109
-33 140 -17 18 10 21 21 21 69 l1 57 14 -32 c21 -49 70 -75 127 -69 97 10 146
62 155 166 8 84 4 89 -54 79 -96 -17 -92 -14 -96 -72 -3 -43 -4 -41 -3 13 l1
65 78 14 77 13 0 97 c-1 121 -11 167 -47 203 -74 74 -223 27 -251 -79 l-10
-38 -1 57 -1 58 -30 -6 -30 -6 0 56 c0 54 -5 61 -35 51z m-3 -97 c3 -51 4 -52
33 -53 42 0 47 -31 5 -40 l-30 -7 2 -196 3 -197 28 -13 c18 -9 27 -21 27 -38
0 -22 -4 -24 -45 -24 -40 0 -47 4 -65 33 -18 29 -20 50 -20 229 0 171 -2 197
-15 192 -20 -8 -20 20 0 36 8 7 22 39 31 71 21 75 42 78 46 7z m313 -8 c39
-15 55 -65 55 -168 l0 -89 -77 -14 -78 -14 -3 -72 c-3 -82 8 -113 41 -113 33
0 47 19 47 61 0 30 4 38 23 43 42 11 47 7 47 -33 0 -54 -35 -102 -87 -121 -51
-17 -87 -7 -117 33 -20 27 -21 41 -21 221 0 169 2 195 18 220 31 47 97 67 152
46z m-500 -110 c23 -25 34 -110 14 -110 -8 0 -24 -3 -36 -6 -21 -6 -23 -3 -23
33 0 62 -36 84 -65 39 -11 -17 -14 -35 -9 -67 6 -37 18 -55 70 -106 47 -47 65
-73 70 -100 24 -124 -17 -193 -114 -193 -55 0 -83 25 -92 83 -5 32 -3 47 4 47
6 0 21 3 34 6 18 5 22 2 22 -17 1 -84 65 -109 84 -33 13 50 -13 105 -75 164
-52 48 -60 61 -69 109 -13 68 1 122 37 150 36 29 122 29 148 1z m295 -168 l0
-169 -26 -12 c-15 -6 -29 -10 -31 -7 -3 3 -8 81 -11 175 l-5 169 24 5 c13 2
30 5 37 6 9 1 12 -39 12 -167z m-600 110 c25 -26 29 -37 35 -126 4 -54 5 -145
3 -202 -4 -85 -9 -110 -25 -132 -44 -59 -146 -67 -181 -14 -15 23 -17 53 -17
228 0 188 1 203 20 224 48 54 122 64 165 22z"></path>
<path d="M3151 2411 c-18 -18 -21 -33 -21 -100 0 -86 -5 -81 63 -66 l28 6 -3
76 c-3 65 -6 78 -25 90 -19 13 -24 12 -42 -6z"></path>
<path d="M2330 2260 c-18 -18 -20 -34 -20 -204 0 -150 3 -187 15 -199 20 -21
54 -10 66 20 12 32 12 349 -1 372 -15 29 -38 33 -60 11z"></path>
<path d="M1610 2387 l-55 -12 4 -375 c2 -206 5 -377 7 -379 5 -5 139 17 184
31 97 30 129 87 130 228 0 77 -4 103 -21 134 -20 37 -20 39 -2 75 25 50 25
192 0 239 -37 69 -113 87 -247 59z m174 -38 c53 -25 74 -163 37 -245 -10 -23
-24 -45 -30 -49 -8 -4 -2 -18 18 -40 34 -39 47 -106 36 -187 -9 -63 -28 -100
-65 -122 -28 -16 -169 -50 -177 -42 -2 2 -5 156 -6 342 l-2 339 30 6 c50 11
133 10 159 -2z"></path>
<path d="M1673 2293 c-14 -5 -16 -112 -5 -194 l7 -45 33 8 c45 12 66 61 60
140 -6 80 -41 113 -95 91z"></path>
<path d="M1677 1983 c-4 -3 -7 -60 -7 -125 0 -130 2 -133 59 -103 37 18 41 31
41 119 0 84 -16 116 -59 116 -15 0 -31 -3 -34 -7z"></path>
<path d="M1980 2288 c-79 -40 -85 -61 -85 -293 0 -219 6 -245 61 -282 61 -40
165 -12 211 57 22 31 23 42 23 234 0 228 -7 257 -70 288 -47 24 -87 23 -140
-4z m140 -43 c29 -31 38 -92 38 -265 0 -164 -10 -198 -68 -227 -59 -30 -83
-29 -122 6 l-33 29 -3 190 c-4 216 3 247 59 275 51 25 101 22 129 -8z"></path>
<path d="M2017 2202 c-15 -16 -17 -45 -17 -203 0 -196 3 -209 47 -209 38 0 45
37 41 233 -2 145 -6 180 -18 187 -22 14 -35 12 -53 -8z"></path>
</g>
</svg>
