<?xml version="1.0" encoding="UTF-8"?>
<svg version="1.1" xmlns="http://www.w3.org/2000/svg" width="500" height="500">
<path d="M0 0 C165 0 330 0 500 0 C500 165 500 330 500 500 C335 500 170 500 0 500 C0 335 0 170 0 0 Z " fill="#CB6CE6" transform="translate(0,0)"></path>
<path d="M0 0 C6.18073913 6.50604119 6.94712189 12.31224648 6.71875 21.21875 C6.29607366 25.25338775 5.14090867 27.89140402 3.375 31.5 C3.63500792 35.14011082 5.01741101 38.13675485 6.375 41.5 C6.37910889 40.87544922 6.38321777 40.25089844 6.38745117 39.60742188 C6.42064485 36.73736392 6.49131366 33.86935713 6.5625 31 C6.56830078 30.01773437 6.57410156 29.03546875 6.58007812 28.0234375 C6.7804308 21.3450151 7.9260989 16.61588274 12.375 11.5 C16.64188843 7.91571443 20.67175927 6.83866017 26.23046875 7.11328125 C30.58807556 7.8990792 33.3127351 10.16777248 36.01196289 13.55297852 C37.93637302 17.71374417 37.8238195 21.43146274 37.80859375 25.96484375 C37.8138356 26.87577286 37.81907745 27.78670197 37.82447815 28.72523499 C37.83088766 30.64746076 37.82957523 32.56972582 37.82104492 34.49194336 C37.81253806 37.42437983 37.84130571 40.35486532 37.87304688 43.28710938 C37.8746592 45.15885359 37.87408077 47.03060123 37.87109375 48.90234375 C37.88794472 50.21041237 37.88794472 50.21041237 37.90513611 51.54490662 C37.84276663 57.02515207 37.00105503 60.13812526 33.375 64.5 C29.62164586 68.00313054 25.41108573 69.24548928 20.375 69.875 C16.39780189 69.37785024 14.42653793 68.07685425 11.375 65.5 C8.375 60.5 8.375 60.5 8.375 57.5 C7.715 57.5 7.055 57.5 6.375 57.5 C6.2925 58.36625 6.21 59.2325 6.125 60.125 C4.93039667 65.500715 2.8408666 68.53249154 -1.76171875 71.5703125 C-5.65802073 73.70820528 -9.454853 74.55441316 -13.8125 75.25 C-14.51052734 75.37503906 -15.20855469 75.50007813 -15.92773438 75.62890625 C-19.22870159 76.2005295 -22.26374131 76.5 -25.625 76.5 C-25.625 51.42 -25.625 26.34 -25.625 0.5 C-17.07807018 -1.63673245 -8.40101939 -3.47628388 0 0 Z " fill="#FBF5FD" transform="translate(181.625,261.5)"></path>
<path d="M0 0 C4.16066071 2.50289746 7.15847932 5.48593341 9 10 C9.22705078 12.74902344 9.22705078 12.74902344 9.1953125 15.859375 C9.18886719 16.97441406 9.18242187 18.08945313 9.17578125 19.23828125 C9.15902344 20.39714844 9.14226562 21.55601562 9.125 22.75 C9.11597656 23.92433594 9.10695313 25.09867188 9.09765625 26.30859375 C9.0741016 29.20581629 9.03823108 32.10293396 9 35 C1.08 35.99 1.08 35.99 -7 37 C-7 40.96 -7 44.92 -7 49 C-6.34 49 -5.68 49 -5 49 C-5 45.7 -5 42.4 -5 39 C4.5 37 4.5 37 9 37 C9.76079025 52.23693812 9.76079025 52.23693812 5 58 C-0.5491676 62.39309102 -4.94672369 63.71728234 -12 63 C-16.27131483 60.84711954 -19.21010411 58.49089232 -21 54 C-21.31884766 50.79199219 -21.31884766 50.79199219 -21.4140625 47.046875 C-21.43342865 46.38665344 -21.4527948 45.72643188 -21.4727478 45.04620361 C-21.53229349 42.94759847 -21.57882722 40.84893772 -21.625 38.75 C-21.66320294 37.3228934 -21.70225602 35.89580928 -21.7421875 34.46875 C-21.8379733 30.97937309 -21.92209642 27.48982714 -22 24 C-22.14622803 25.20124512 -22.29245605 26.40249023 -22.44311523 27.64013672 C-22.98544782 32.0872132 -23.53263086 36.53368156 -24.08129883 40.97998047 C-24.31830563 42.90624962 -24.55398801 44.8326822 -24.78833008 46.75927734 C-25.1249531 49.5248525 -25.46629932 52.28980931 -25.80859375 55.0546875 C-25.91280136 55.9193161 -26.01700897 56.7839447 -26.12437439 57.67477417 C-26.88612829 63.77225659 -26.88612829 63.77225659 -28 66 C-30.765625 66.8515625 -30.765625 66.8515625 -34.25 67.625 C-35.95929688 68.01558594 -35.95929688 68.01558594 -37.703125 68.4140625 C-40.58287085 68.92586567 -43.09335961 69.04640231 -46 69 C-48.08195375 55.43787654 -50.09220633 41.87131644 -51.75 28.25 C-51.87737549 27.22269775 -52.00475098 26.19539551 -52.13598633 25.13696289 C-52.73991923 20.05114533 -53.14305342 15.12131245 -53 10 C-47.86048829 8.58220367 -44.49046024 8 -39 8 C-38.34 13.28 -37.68 18.56 -37 24 C-34.85531351 21.85531351 -35.2604212 17.41555106 -34.9375 14.4375 C-34.84662109 13.63119141 -34.75574219 12.82488281 -34.66210938 11.99414062 C-34.43752551 9.99652623 -34.21826764 7.9983144 -34 6 C-27.07 5.01 -27.07 5.01 -20 4 C-19.505 5.485 -19.505 5.485 -19 7 C-18.113125 6.21625 -17.22625 5.4325 -16.3125 4.625 C-11.46825831 0.63894565 -6.36557916 -1.39849845 0 0 Z " fill="#FBF5FD" transform="translate(262,179)"></path>
<path d="M0 0 C0 3.63 0 7.26 0 11 C1.98 11 3.96 11 6 11 C6 14.63 6 18.26 6 22 C3.03 22.495 3.03 22.495 0 23 C0.33 34.22 0.66 45.44 1 57 C3.475 56.505 3.475 56.505 6 56 C6 60.62 6 65.24 6 70 C2.27083603 71.86458199 -1.93961304 71.56048286 -6 71 C-9.86441009 69.03637699 -12.517673 66.06054436 -14 62 C-14.16858166 59.20915781 -14.23284241 56.52228007 -14.1953125 53.734375 C-14.1924826 52.94097717 -14.18965271 52.14757935 -14.18673706 51.33013916 C-14.17556779 48.80327083 -14.15046944 46.27676068 -14.125 43.75 C-14.11496598 42.0338593 -14.10584087 40.31771302 -14.09765625 38.6015625 C-14.07563914 34.40090426 -14.04113187 30.2005128 -14 26 C-14.66 26 -15.32 26 -16 26 C-16 29.3 -16 32.6 -16 36 C-19.3 36.66 -22.6 37.32 -26 38 C-26 38.66 -26 39.32 -26 40 C-24.35051974 41.50034917 -22.59634424 42.81956121 -20.82421875 44.171875 C-17.50646482 47.49673333 -16.13929411 50.79824688 -15.6015625 55.4375 C-15.60929687 56.613125 -15.61703125 57.78875 -15.625 59 C-15.61726563 60.175625 -15.60953125 61.35125 -15.6015625 62.5625 C-16.11840714 67.02155178 -17.51364736 70.26322925 -20.4375 73.6796875 C-24.97108724 77.14788174 -28.81861527 77.64993014 -34.4765625 77.34765625 C-37.76944605 76.89399273 -39.59099426 76.33372431 -42 74 C-45.25984249 68.49199027 -45.63089385 63.33320364 -45 57 C-43.34623289 55.34623289 -41.19051636 55.36528792 -38.9375 54.9375 C-38.01839844 54.76089844 -37.09929687 54.58429688 -36.15234375 54.40234375 C-35.08693359 54.20318359 -35.08693359 54.20318359 -34 54 C-34.62648438 53.41992188 -35.25296875 52.83984375 -35.8984375 52.2421875 C-37.12433594 51.07042969 -37.12433594 51.07042969 -38.375 49.875 C-39.59316406 48.72644531 -39.59316406 48.72644531 -40.8359375 47.5546875 C-44.62851553 43.0775286 -45.27964577 38.68136816 -45.25 32.9375 C-45.25515625 31.93589844 -45.2603125 30.93429687 -45.265625 29.90234375 C-44.92103436 26.13718429 -44.17187376 23.26103807 -41.5625 20.453125 C-35.77011903 15.99299165 -32.24072732 15.35687261 -25 16 C-19.42391304 18.15217391 -19.42391304 18.15217391 -18 21 C-17.731875 20.278125 -17.46375 19.55625 -17.1875 18.8125 C-16 16 -16 16 -14.5625 13.75 C-13.1040201 11.18307538 -12.45438458 9.13192861 -11.6875 6.3125 C-10.39226555 2.20865189 -10.39226555 2.20865189 -7.0625 0.4375 C-4 0 -4 0 0 0 Z " fill="#FBF5FD" transform="translate(296,242)"></path>
<path d="M0 0 C3.37387381 0.72966715 4.93477038 2.77544417 6.96875 5.42578125 C7.96168809 8.40459552 8.08994785 10.34065364 8.08227539 13.44799805 C8.08219986 14.4688298 8.08212433 15.48966156 8.08204651 16.54142761 C8.07688522 17.6415065 8.07172394 18.74158539 8.06640625 19.875 C8.0649913 21.00275345 8.06357635 22.1305069 8.06211853 23.29243469 C8.0565147 26.89941037 8.04396153 30.50632429 8.03125 34.11328125 C8.02623549 36.55663973 8.0216725 38.99999918 8.01757812 41.44335938 C8.00654403 47.43752112 7.98980215 53.43164677 7.96875 59.42578125 C2.6835649 61.15155598 -0.06652231 61.42578125 -6.03125 61.42578125 C-6.03125 45.91578125 -6.03125 30.40578125 -6.03125 14.42578125 C-6.69125 14.42578125 -7.35125 14.42578125 -8.03125 14.42578125 C-8.03125 30.26578125 -8.03125 46.10578125 -8.03125 62.42578125 C-20.03125 65.42578125 -20.03125 65.42578125 -23.03125 65.42578125 C-23.03125 45.29578125 -23.03125 25.16578125 -23.03125 4.42578125 C-16.03125 2.42578125 -16.03125 2.42578125 -12.84375 2.98828125 C-11.4515625 3.20484375 -11.4515625 3.20484375 -10.03125 3.42578125 C-9.4125 2.95140625 -8.79375 2.47703125 -8.15625 1.98828125 C-5.48867206 0.02682688 -3.27116631 -0.11595552 0 0 Z " fill="#FAF2FC" transform="translate(296.03125,172.57421875)"></path>
<path d="M0 0 C0 4.95 0 9.9 0 15 C-7 17 -7 17 -11 17 C-11 22.28 -11 27.56 -11 33 C-9.515 32.505 -9.515 32.505 -8 32 C-5.69 32 -3.38 32 -1 32 C-1 36.95 -1 41.9 -1 47 C-5.95 47.495 -5.95 47.495 -11 48 C-11 53.28 -11 58.56 -11 64 C-9.02 63.505 -9.02 63.505 -7 63 C-5.58465222 62.93543121 -4.16662311 62.91388961 -2.75 62.9375 C-0.89375 62.9684375 -0.89375 62.9684375 1 63 C1 67.62 1 72.24 1 77 C-7.80084806 79.51452802 -16.94824564 80.64223685 -26 82 C-26 56.59 -26 31.18 -26 5 C-19.07 3.515 -19.07 3.515 -12 2 C-10.288125 1.608125 -8.57625 1.21625 -6.8125 0.8125 C-3 0 -3 0 0 0 Z " fill="#FAF2FC" transform="translate(210,172)"></path>
<path d="M0 0 C4.23041523 3.83688823 5.78549757 8.09408253 6.09155273 13.68530273 C6.11780915 15.24704341 6.12688438 16.80914311 6.12109375 18.37109375 C6.1263356 19.20786148 6.13157745 20.04462921 6.13697815 20.90675354 C6.14336967 22.66739803 6.14209875 24.42808539 6.13354492 26.1887207 C6.12503427 28.8642267 6.15383566 31.53759494 6.18554688 34.21289062 C6.1871593 35.93229103 6.18658056 37.65169518 6.18359375 39.37109375 C6.20044472 40.55583534 6.20044472 40.55583534 6.21763611 41.76451111 C6.14788493 47.39765843 4.83489598 51.72498254 1.6875 56.4375 C-2.0553539 59.37090121 -6.34737596 60.30663572 -11 60.9375 C-15.11449411 60.31644429 -17.16812299 59.15309833 -20.3125 56.4375 C-23.6482118 51.2643492 -23.76620772 46.82845931 -23.74609375 40.875 C-23.7513356 39.96548584 -23.75657745 39.05597168 -23.76197815 38.11889648 C-23.76838003 36.20264707 -23.76708518 34.28635826 -23.75854492 32.37011719 C-23.75002637 29.44655158 -23.77883521 26.52493582 -23.81054688 23.6015625 C-23.81215894 21.73437558 -23.81158126 19.86718522 -23.80859375 18 C-23.81982773 17.13109131 -23.83106171 16.26218262 -23.84263611 15.36694336 C-23.78021965 9.90404622 -22.9418845 6.77780363 -19.3125 2.4375 C-13.45348624 -2.16601081 -6.77664093 -3.19652874 0 0 Z " fill="#CD73E7" transform="translate(244.3125,264.5625)"></path>
<path d="M0 0 C4.77555425 2.73277914 7.24500836 5.81060332 9 11 C9.22705078 13.67895508 9.22705078 13.67895508 9.1953125 16.51953125 C9.18886719 17.54111328 9.18242187 18.56269531 9.17578125 19.61523438 C9.15902344 20.67033203 9.14226562 21.72542969 9.125 22.8125 C9.11597656 23.88693359 9.10695313 24.96136719 9.09765625 26.06835938 C9.07415306 28.71246854 9.04129575 31.35611872 9 34 C7.27192682 34.33895656 5.54248026 34.67091525 3.8125 35 C2.84957031 35.185625 1.88664062 35.37125 0.89453125 35.5625 C-1.7934206 35.96877612 -4.28771019 36.07933572 -7 36 C-6.67 36.99 -6.34 37.98 -6 39 C-5.25234375 38.7834375 -4.5046875 38.566875 -3.734375 38.34375 C-2.74953125 38.0653125 -1.7646875 37.786875 -0.75 37.5 C0.22453125 37.2215625 1.1990625 36.943125 2.203125 36.65625 C5 36 5 36 9 36 C9.46956907 43.7087589 9.52422498 50.44958837 5 57 C-0.08659815 61.23883179 -4.37839597 62.44211349 -10.96875 62.34375 C-14.66698695 61.71789452 -16.54290854 59.69110017 -19 57 C-21.2050535 51.96209798 -21.32131942 47.30922226 -21.3359375 41.91015625 C-21.3459227 40.61603065 -21.3459227 40.61603065 -21.35610962 39.29576111 C-21.36619808 37.47787598 -21.37092782 35.65995411 -21.37060547 33.84204102 C-21.37498117 31.07440775 -21.41134688 28.30836752 -21.44921875 25.54101562 C-21.45508739 23.76823458 -21.45905647 21.99544601 -21.4609375 20.22265625 C-21.47530853 19.4026564 -21.48967957 18.58265656 -21.50448608 17.73780823 C-21.4594394 12.02075014 -20.25712833 8.71885096 -17 4 C-12.35022608 0.02728096 -5.9278836 -1.41291849 0 0 Z " fill="#CD73E7" transform="translate(324,248)"></path>
<path d="M0 0 C1.11503906 -0.01417969 2.23007813 -0.02835937 3.37890625 -0.04296875 C6.36464381 0.1820102 7.96959906 0.54976254 10.4375 2.1875 C14.6508801 7.75518085 14.04612777 14.5412847 13.4375 21.1875 C12.38291788 25.74300779 10.536444 29.64584971 7.4375 33.1875 C8.035625 33.39375 8.63375 33.6 9.25 33.8125 C12.34005277 35.75481888 13.04386 37.84041517 14.4375 41.1875 C15.3763971 48.40262816 15.28809935 55.88252429 11.8203125 62.41796875 C7.32345608 68.17242061 -0.70161048 69.30071836 -7.5625 70.1875 C-8.8825 70.1875 -10.2025 70.1875 -11.5625 70.1875 C-11.5625 47.4175 -11.5625 24.6475 -11.5625 1.1875 C-7.47546152 0.3700923 -4.12180209 0.02388066 0 0 Z " fill="#CD74E7" transform="translate(170.5625,263.8125)"></path>
<path d="M0 0 C0 3.63 0 7.26 0 11 C1.98 11 3.96 11 6 11 C6 14.96 6 18.92 6 23 C4.02 23 2.04 23 0 23 C0.33 34.22 0.66 45.44 1 57 C3.97 56.505 3.97 56.505 7 56 C7 60.95 7 65.9 7 71 C2.62154149 72.45948617 -1.43416014 72.74600712 -6 72 C-9.9805844 69.74171514 -12.54666871 67.35999388 -14 63 C-14.08518867 60.19573548 -14.1158852 57.4170365 -14.09765625 54.61328125 C-14.09553383 53.38776802 -14.09553383 53.38776802 -14.09336853 52.13749695 C-14.08777294 49.52912732 -14.07522129 46.92084366 -14.0625 44.3125 C-14.05748443 42.54362103 -14.05292162 40.77474072 -14.04882812 39.00585938 C-14.03780496 34.67053981 -14.02054338 30.33528448 -14 26 C-14.99 26 -15.98 26 -17 26 C-17.08131463 24.56344146 -17.13933559 23.1255517 -17.1875 21.6875 C-17.22230469 20.88699219 -17.25710938 20.08648437 -17.29296875 19.26171875 C-16.92520865 16.42261077 -15.9866963 15.9866963 -14 14 C-12.77113557 10.82246213 -12.77113557 10.82246213 -11.8125 7.3125 C-11.46832031 6.13300781 -11.12414062 4.95351562 -10.76953125 3.73828125 C-10.51558594 2.83464844 -10.26164062 1.93101562 -10 1 C-6.56484998 0.37542727 -3.50935186 0 0 0 Z " fill="#FBF5FD" transform="translate(322,157)"></path>
<path d="M0 0 C3.47884669 2.00672894 5.7062659 4.11879769 7 8 C7.12078288 10.66106651 7.18810449 13.29514403 7.203125 15.95703125 C7.20882507 16.73761398 7.21452515 17.51819672 7.22039795 18.32243347 C7.2298395 19.97413786 7.23637858 21.62586102 7.24023438 23.27758789 C7.24992418 25.79281887 7.28094801 28.30722691 7.3125 30.82226562 C7.31903214 32.42968267 7.32428178 34.03710553 7.328125 35.64453125 C7.3404718 36.39160843 7.3528186 37.13868561 7.36553955 37.90840149 C7.34533889 42.69158616 6.50535659 45.92710221 4 50 C1.01883289 52.69965254 -2.18842011 53.87014722 -6.125 54.5 C-9.809278 53.859256 -11.4037436 52.66837463 -14 50 C-16.26736669 45.68267175 -16.35295491 41.43921439 -16.40625 36.6640625 C-16.41765015 35.86648529 -16.42905029 35.06890808 -16.4407959 34.24716187 C-16.45963145 32.56456762 -16.47273821 30.88190066 -16.48046875 29.19921875 C-16.49989147 26.63930429 -16.561981 24.08259966 -16.625 21.5234375 C-16.63806186 19.88283143 -16.64856212 18.24220256 -16.65625 16.6015625 C-16.6809436 15.84404694 -16.70563721 15.08653137 -16.7310791 14.30606079 C-16.68681718 8.96633514 -15.18369606 6.23704903 -11.58239746 2.32650757 C-8.11492705 -0.58023733 -4.3085019 -0.43815274 0 0 Z " fill="#CD73E7" transform="translate(209,273)"></path>
<path d="M0 0 C0 4.95 0 9.9 0 15 C-2.31 15.66 -4.62 16.32 -7 17 C-7.33 31.52 -7.66 46.04 -8 61 C-15 63 -15 63 -22 63 C-22 43.2 -22 23.4 -22 3 C-12 2 -12 2 -10 2 C-7 0 -7 0 0 0 Z " fill="#FAF3FD" transform="translate(357,242)"></path>
<path d="M0 0 C3.15954305 2.54137159 4.71540886 4.14622659 6 8 C6.08106686 9.55421729 6.10756898 11.11167027 6.09765625 12.66796875 C6.09443359 13.56064453 6.09121094 14.45332031 6.08789062 15.37304688 C6.07951172 16.30181641 6.07113281 17.23058594 6.0625 18.1875 C6.05798828 19.12787109 6.05347656 20.06824219 6.04882812 21.03710938 C6.03704645 23.35810008 6.01911114 25.67905807 6 28 C0.72 28.66 -4.56 29.32 -10 30 C-9.855625 32.59875 -9.71125 35.1975 -9.5625 37.875 C-9.51939697 38.69210449 -9.47629395 39.50920898 -9.43188477 40.35107422 C-9.26408457 44.30464416 -9.26408457 44.30464416 -8 48 C-5.58380177 48.25030977 -5.58380177 48.25030977 -3 48 C-0.81024227 44.71536341 -0.00193437 41.79303725 1 38 C2.65 38 4.3 38 6 38 C6.28628265 43.53479783 6.28888248 47.28593511 3 52 C-1.31410518 54.94143535 -4.82933754 55.65808431 -10 55 C-14.04724219 52.57165469 -15.62611628 50.4478632 -17 46 C-17.21168169 43.2595226 -17.32769268 40.62296665 -17.3359375 37.8828125 C-17.3425943 37.10743134 -17.3492511 36.33205017 -17.35610962 35.53317261 C-17.36620444 33.89762737 -17.37092762 32.2620412 -17.37060547 30.62646484 C-17.37497435 28.13960055 -17.41131252 25.65451899 -17.44921875 23.16796875 C-17.45508871 21.57292268 -17.4590569 19.97786826 -17.4609375 18.3828125 C-17.48249405 17.27934982 -17.48249405 17.27934982 -17.50448608 16.15359497 C-17.45676773 10.69347519 -16.11912671 7.49957261 -13 3 C-8.71215 0.04614778 -5.15945733 -0.75046652 0 0 Z " fill="#CD73E7" transform="translate(261,183)"></path>
<path d="M0 0 C4.77555425 2.73277914 7.24500836 5.81060332 9 11 C9.22705078 13.67895508 9.22705078 13.67895508 9.1953125 16.51953125 C9.18886719 17.54111328 9.18242187 18.56269531 9.17578125 19.61523438 C9.15902344 20.67033203 9.14226562 21.72542969 9.125 22.8125 C9.11597656 23.88693359 9.10695313 24.96136719 9.09765625 26.06835938 C9.07415306 28.71246854 9.04129575 31.35611872 9 34 C7.27192682 34.33895656 5.54248026 34.67091525 3.8125 35 C2.84957031 35.185625 1.88664062 35.37125 0.89453125 35.5625 C-1.7934206 35.96877612 -4.28771019 36.07933572 -7 36 C-6.67 36.99 -6.34 37.98 -6 39 C-5.25234375 38.7834375 -4.5046875 38.566875 -3.734375 38.34375 C-2.74953125 38.0653125 -1.7646875 37.786875 -0.75 37.5 C0.22453125 37.2215625 1.1990625 36.943125 2.203125 36.65625 C5 36 5 36 9 36 C9.46956907 43.7087589 9.52422498 50.44958837 5 57 C-0.08659815 61.23883179 -4.37839597 62.44211349 -10.96875 62.34375 C-14.66698695 61.71789452 -16.54290854 59.69110017 -19 57 C-21.2050535 51.96209798 -21.32131942 47.30922226 -21.3359375 41.91015625 C-21.3459227 40.61603065 -21.3459227 40.61603065 -21.35610962 39.29576111 C-21.36619808 37.47787598 -21.37092782 35.65995411 -21.37060547 33.84204102 C-21.37498117 31.07440775 -21.41134688 28.30836752 -21.44921875 25.54101562 C-21.45508739 23.76823458 -21.45905647 21.99544601 -21.4609375 20.22265625 C-21.47530853 19.4026564 -21.48967957 18.58265656 -21.50448608 17.73780823 C-21.4594394 12.02075014 -20.25712833 8.71885096 -17 4 C-12.35022608 0.02728096 -5.9278836 -1.41291849 0 0 Z M-16.10742188 9.58789062 C-18.44408799 13.80064161 -18.58159601 16.74599376 -18.53125 21.46875 C-18.5350769 22.26728394 -18.53890381 23.06581787 -18.54284668 23.8885498 C-18.54555711 25.56943022 -18.53825688 27.25035343 -18.52148438 28.93115234 C-18.50006 31.49282546 -18.52131321 34.05169456 -18.546875 36.61328125 C-18.54423157 38.25261031 -18.53910626 39.89193763 -18.53125 41.53125 C-18.53934692 42.29078979 -18.54744385 43.05032959 -18.55578613 43.83288574 C-18.44829151 49.97931132 -16.3924096 53.6075904 -12 58 C-6.78078258 58.50184783 -3.42464104 57.81568066 1 55 C4.97800728 50.61047472 5.10905976 46.7801674 5 41 C1.535 41.495 1.535 41.495 -2 42 C-2.144375 43.299375 -2.28875 44.59875 -2.4375 45.9375 C-2.875 49.875 -2.875 49.875 -4 51 C-6.5 51.125 -6.5 51.125 -9 51 C-11.11925604 48.88074396 -10.41831017 44.3803907 -10.5625 41.4375 C-10.60568359 40.63119141 -10.64886719 39.82488281 -10.69335938 38.99414062 C-10.79975262 36.99631195 -10.90040888 34.9981793 -11 33 C-5.72 32.34 -0.44 31.68 5 31 C5.10837983 27.79075291 5.18749268 24.5851973 5.25 21.375 C5.28351563 20.47136719 5.31703125 19.56773437 5.3515625 18.63671875 C5.43753164 12.74783271 4.91882074 9.48487262 1 5 C-5.59907072 1.70046464 -11.78590588 4.28111704 -16.10742188 9.58789062 Z " fill="#FBF5FD" transform="translate(324,248)"></path>
<path d="M0 0 C0 2.31 0 4.62 0 7 C-3.63 7.66 -7.26 8.32 -11 9 C-11 16.92 -11 24.84 -11 33 C-7.7 32.34 -4.4 31.68 -1 31 C-1 33.31 -1 35.62 -1 38 C-5.455 38.495 -5.455 38.495 -10 39 C-9.67 46.92 -9.34 54.84 -9 63 C-4.05 62.505 -4.05 62.505 1 62 C1 64.31 1 66.62 1 69 C-1.22771342 69.50643553 -3.45724076 70.0048962 -5.6875 70.5 C-6.92886719 70.7784375 -8.17023438 71.056875 -9.44921875 71.34375 C-13 72 -13 72 -18 72 C-18 49.23 -18 26.46 -18 3 C-3 0 -3 0 0 0 Z " fill="#CD72E7" transform="translate(206,177)"></path>
<path d="M0 0 C2.16189853 3.24284779 2.24626755 4.10096221 2.22705078 7.83862305 C2.22689972 8.8194133 2.22674866 9.80020355 2.22659302 10.81071472 C2.21627045 11.86704605 2.20594788 12.92337738 2.1953125 14.01171875 C2.1924826 15.09508011 2.18965271 16.17844147 2.18673706 17.29463196 C2.17553091 20.75903308 2.15042534 24.22317685 2.125 27.6875 C2.11497077 30.03450148 2.10584482 32.381507 2.09765625 34.72851562 C2.07559016 40.48576507 2.04210827 46.24286415 2 52 C-0.97 52.495 -0.97 52.495 -4 53 C-4.00808685 52.45320587 -4.01617371 51.90641174 -4.02450562 51.3430481 C-4.11038769 45.66546886 -4.20988325 39.9882454 -4.31738281 34.31103516 C-4.35572842 32.1906531 -4.39057133 30.07020474 -4.421875 27.94970703 C-4.46740466 24.90633402 -4.52541839 21.86341968 -4.5859375 18.8203125 C-4.59748871 17.86818878 -4.60903992 16.91606506 -4.62094116 15.93508911 C-4.64081085 15.05432709 -4.66068054 14.17356506 -4.68115234 13.26611328 C-4.69447601 12.48889923 -4.70779968 11.71168518 -4.7215271 10.91091919 C-4.84039576 8.7611053 -4.84039576 8.7611053 -7 7 C-10.30683466 7.28983269 -10.30683466 7.28983269 -13 9 C-13.12221525 10.44184293 -13.17772758 11.88943144 -13.20532227 13.33618164 C-13.22526749 14.2570607 -13.24521271 15.17793976 -13.26576233 16.12672424 C-13.28247482 17.12775681 -13.29918732 18.12878937 -13.31640625 19.16015625 C-13.33718735 20.17975937 -13.35796844 21.19936249 -13.37937927 22.24986267 C-13.44498852 25.52067048 -13.50381234 28.79156137 -13.5625 32.0625 C-13.60567442 34.27409728 -13.64928834 36.48568603 -13.69335938 38.69726562 C-13.8006814 44.13142151 -13.90242623 49.56566082 -14 55 C-17.465 55.495 -17.465 55.495 -21 56 C-21 38.51 -21 21.02 -21 3 C-16 3 -16 3 -14.1875 4.5 C-13.795625 4.995 -13.40375 5.49 -13 6 C-12.071875 4.7934375 -12.071875 4.7934375 -11.125 3.5625 C-7.71723391 -0.54686499 -5.22925691 -0.37351835 0 0 Z " fill="#CC70E6" transform="translate(298,177)"></path>
<path d="M0 0 C0.28014278 8.2559115 -0.56023137 16.0455576 -1.875 24.1875 C-2.24357674 26.5622848 -2.61076862 28.93728496 -2.9765625 31.3125 C-3.15348633 32.45332031 -3.33041016 33.59414062 -3.51269531 34.76953125 C-4.47710289 41.16283839 -5.25258151 47.57810168 -6 54 C-11.445 54.495 -11.445 54.495 -17 55 C-18.96804564 46.9990668 -20.13263614 38.9007788 -21.28710938 30.75195312 C-21.62531821 28.3727615 -21.97250822 25.99499307 -22.3203125 23.6171875 C-22.53960617 22.08601527 -22.75837427 20.55476765 -22.9765625 19.0234375 C-23.07965729 18.32221771 -23.18275208 17.62099792 -23.28897095 16.89852905 C-23.89702905 12.54076843 -24.09353783 8.38485359 -24 4 C-20.535 3.505 -20.535 3.505 -17 3 C-16.56290199 6.87265737 -16.1362588 10.74632718 -15.71826172 14.62109375 C-15.50617763 16.56828186 -15.28640662 18.51462791 -15.06640625 20.4609375 C-14.14778128 29.03477059 -13.81979578 37.38190013 -14 46 C-12.02 45.505 -12.02 45.505 -10 45 C-8.68 30.48 -7.36 15.96 -6 1 C-3 0 -3 0 0 0 Z " fill="#CD74E7" transform="translate(237,188)"></path>
<path d="M0 0 C3.125 2 3.125 2 5 5 C5.3891469 7.80704627 5.24211197 10.14307878 5 13 C2.69 13.33 0.38 13.66 -2 14 C-2.33 11.36 -2.66 8.72 -3 6 C-4.89179203 5.3185177 -4.89179203 5.3185177 -7 5 C-9.39723945 6.97508092 -9.39723945 6.97508092 -9.375 10.75 C-9.23875225 15.19007383 -7.90510999 17.57346001 -5 21 C-3.27069861 22.5367201 -1.51806351 24.00059708 0.31640625 25.41015625 C3.5124587 28.42823826 4.88089926 30.99114669 5.3984375 35.375 C5.39070313 36.57125 5.38296875 37.7675 5.375 39 C5.38273437 40.19625 5.39046875 41.3925 5.3984375 42.625 C4.96738097 46.27630239 4.26588763 48.12919214 2 51 C-2.01126102 53.72075287 -6.32046135 53.56773815 -11 53 C-14.28931514 51.27310955 -14.8140267 50.5579199 -16 47 C-16.03954234 44.66700175 -16.04401732 42.33291811 -16 40 C-13.03 39.505 -13.03 39.505 -10 39 C-9.34 41.97 -8.68 44.94 -8 48 C-4.70924004 47.62095792 -4.70924004 47.62095792 -2 46 C-1.48294839 40.00220129 -2.06425639 35.77467843 -6 31 C-8.28904128 28.80300059 -10.63663107 26.7298769 -13.07421875 24.69921875 C-15.79318074 22.30013464 -15.97271604 21.37794992 -16.23828125 17.69921875 C-16.26888197 16.36210045 -16.29337705 15.0248317 -16.3125 13.6875 C-16.34988281 12.37136719 -16.38726562 11.05523437 -16.42578125 9.69921875 C-15.94219336 5.49777168 -14.96928843 3.93623513 -12 1 C-8.26950824 -0.86524588 -4.06257971 -0.54848015 0 0 Z " fill="#CC70E6" transform="translate(271,262)"></path>
<path d="M0 0 C4.23041523 3.83688823 5.78549757 8.09408253 6.09155273 13.68530273 C6.11780915 15.24704341 6.12688438 16.80914311 6.12109375 18.37109375 C6.1263356 19.20786148 6.13157745 20.04462921 6.13697815 20.90675354 C6.14336967 22.66739803 6.14209875 24.42808539 6.13354492 26.1887207 C6.12503427 28.8642267 6.15383566 31.53759494 6.18554688 34.21289062 C6.1871593 35.93229103 6.18658056 37.65169518 6.18359375 39.37109375 C6.20044472 40.55583534 6.20044472 40.55583534 6.21763611 41.76451111 C6.14788493 47.39765843 4.83489598 51.72498254 1.6875 56.4375 C-2.0553539 59.37090121 -6.34737596 60.30663572 -11 60.9375 C-15.11449411 60.31644429 -17.16812299 59.15309833 -20.3125 56.4375 C-23.6482118 51.2643492 -23.76620772 46.82845931 -23.74609375 40.875 C-23.7513356 39.96548584 -23.75657745 39.05597168 -23.76197815 38.11889648 C-23.76838003 36.20264707 -23.76708518 34.28635826 -23.75854492 32.37011719 C-23.75002637 29.44655158 -23.77883521 26.52493582 -23.81054688 23.6015625 C-23.81215894 21.73437558 -23.81158126 19.86718522 -23.80859375 18 C-23.81982773 17.13109131 -23.83106171 16.26218262 -23.84263611 15.36694336 C-23.78021965 9.90404622 -22.9418845 6.77780363 -19.3125 2.4375 C-13.45348624 -2.16601081 -6.77664093 -3.19652874 0 0 Z M-19.3125 8.4375 C-20.5375606 12.11268181 -20.49392844 15.53039456 -20.515625 19.359375 C-20.52132507 20.13758606 -20.52702515 20.91579712 -20.53289795 21.71759033 C-20.54234056 23.36509851 -20.548879 25.01262552 -20.55273438 26.66015625 C-20.56241076 29.16440412 -20.593428 31.66782071 -20.625 34.171875 C-20.63153353 35.77603682 -20.63678263 37.38020448 -20.640625 38.984375 C-20.6529718 39.72629089 -20.6653186 40.46820679 -20.67803955 41.23260498 C-20.65644911 46.34432341 -19.74770181 49.91375956 -17.3125 54.4375 C-13.57066125 56.93205917 -11.75006964 56.81356522 -7.3125 56.4375 C-3.15492447 54.83843249 -0.6002886 53.29061765 1.6875 49.4375 C2.8699476 45.89015721 2.86839931 42.64669729 2.890625 38.953125 C2.89917511 37.85239655 2.89917511 37.85239655 2.90789795 36.72943115 C2.91733868 35.1760807 2.92387825 33.6227103 2.92773438 32.06933594 C2.93740806 29.70992347 2.9684255 27.35139443 3 24.9921875 C3.00653389 23.47917181 3.01178284 21.96614992 3.015625 20.453125 C3.0279718 19.75495667 3.0403186 19.05678833 3.05303955 18.33746338 C3.02742908 12.61567231 1.84293952 7.82387947 -2.0625 3.5 C-8.76364662 0.33556965 -14.83493732 3.06442478 -19.3125 8.4375 Z " fill="#FDF9FE" transform="translate(244.3125,264.5625)"></path>
<path d="M0 0 C0.99 0 1.98 0 3 0 C3 3.63 3 7.26 3 11 C4.98 10.67 6.96 10.34 9 10 C9 11.65 9 13.3 9 15 C7.35 15 5.7 15 4 15 C4.33 28.2 4.66 41.4 5 55 C6.65 55.66 8.3 56.32 10 57 C10 58.98 10 60.96 10 63 C2.67973856 63.36601307 2.67973856 63.36601307 -0.4375 61.6875 C-2.92147655 59.00480532 -3.12455163 56.4828672 -3.11352539 52.98754883 C-3.11344986 52.18694534 -3.11337433 51.38634186 -3.11329651 50.56147766 C-3.10813522 49.70201035 -3.10297394 48.84254303 -3.09765625 47.95703125 C-3.09553383 46.63163582 -3.09553383 46.63163582 -3.09336853 45.27946472 C-3.08777069 42.45710872 -3.07521861 39.63483203 -3.0625 36.8125 C-3.05748472 34.89908969 -3.05292186 32.98567813 -3.04882812 31.07226562 C-3.03780197 26.38147986 -3.02053883 21.69075337 -3 17 C-3.99 17 -4.98 17 -6 17 C-5.36091084 14.26713301 -4.56418428 11.68348736 -3.5625 9.0625 C-3.29953125 8.37285156 -3.0365625 7.68320313 -2.765625 6.97265625 C-1.86082659 4.64141544 -0.94119684 2.31679222 0 0 Z " fill="#CD74E7" transform="translate(315,162)"></path>
<path d="M0 0 C0.99 0 1.98 0 3 0 C3 3.63 3 7.26 3 11 C6.465 10.505 6.465 10.505 10 10 C10 11.32 10 12.64 10 14 C8.35 14.33 6.7 14.66 5 15 C5 27.87 5 40.74 5 54 C6.65 54.66 8.3 55.32 10 56 C10 57.98 10 59.96 10 62 C6.96681462 62.22891965 4.02663287 62.34943364 1 62 C-1.47240468 59.75938325 -1.94309843 58.17070471 -3 55 C-3.085409 52.05035887 -3.11582927 49.12496981 -3.09765625 46.17578125 C-3.0962413 45.31438034 -3.09482635 44.45297943 -3.09336853 43.56547546 C-3.0877714 40.81444831 -3.07521946 38.06350256 -3.0625 35.3125 C-3.05748463 33.4472668 -3.05292179 31.58203233 -3.04882812 29.71679688 C-3.03780292 25.14449989 -3.02054027 20.57226375 -3 16 C-3.99 16 -4.98 16 -6 16 C-5.71382813 15.46890625 -5.42765625 14.9378125 -5.1328125 14.390625 C-3.79673712 11.57104523 -2.84213837 8.71589101 -1.875 5.75 C-1.34519531 4.13351563 -1.34519531 4.13351563 -0.8046875 2.484375 C-0.53914063 1.66453125 -0.27359375 0.8446875 0 0 Z " fill="#CD73E7" transform="translate(289,247)"></path>
<path d="M0 0 C2.375 0.8125 2.375 0.8125 3.375 2.8125 C3.48616008 5.54890611 3.53911133 8.25908786 3.54296875 10.99609375 C3.54629715 11.8074025 3.54962555 12.61871124 3.55305481 13.4546051 C3.5581213 15.17196078 3.56046322 16.88932631 3.56030273 18.60668945 C3.56248837 21.23600464 3.58064436 23.86489976 3.59960938 26.49414062 C3.6025435 28.1614569 3.60452817 29.82877516 3.60546875 31.49609375 C3.61265427 32.28366562 3.61983978 33.07123749 3.62724304 33.88267517 C3.61113717 37.7255469 3.55766282 39.53850577 1.375 42.8125 C-1.125 43.125 -1.125 43.125 -3.625 42.8125 C-6.21957003 40.21792997 -5.88365403 38.40562225 -5.92854309 34.86915588 C-5.92763168 34.057686 -5.92672028 33.24621613 -5.92578125 32.41015625 C-5.93006638 31.57665146 -5.9343515 30.74314667 -5.93876648 29.88438416 C-5.94451435 28.1199535 -5.94500668 26.35549915 -5.94067383 24.59106445 C-5.93751645 21.88907467 -5.96095745 19.18818222 -5.98632812 16.48632812 C-5.98860131 14.77343888 -5.98930453 13.06054669 -5.98828125 11.34765625 C-5.997491 10.5382106 -6.00670074 9.72876495 -6.01618958 8.89479065 C-5.96961374 3.25595173 -5.96961374 3.25595173 -4.26579285 1.0634613 C-2.625 -0.1875 -2.625 -0.1875 0 0 Z " fill="#F7E8FB" transform="translate(205.625,278.1875)"></path>
<path d="M0 0 C2.5 -0.3125 2.5 -0.3125 5 0 C7.53607316 2.53607316 7.24707181 4.15295355 7.27789307 7.61276245 C7.2738446 8.37734772 7.26979614 9.14193298 7.265625 9.9296875 C7.26753845 10.71642853 7.2694519 11.50316956 7.27142334 12.31375122 C7.27278549 13.9798413 7.26908698 15.64594198 7.26074219 17.31201172 C7.25007129 19.85799161 7.26062145 22.4032613 7.2734375 24.94921875 C7.27211535 26.56770989 7.26955181 28.18620059 7.265625 29.8046875 C7.26967346 30.5652243 7.27372192 31.32576111 7.27789307 32.10934448 C7.24453796 35.88694373 7.11796782 38.79570609 5 42 C3.02 42 1.04 42 -1 42 C-2.59919459 38.80161082 -2.16301759 35.32946642 -2.16796875 31.81640625 C-2.17129715 31.0050975 -2.17462555 30.19378876 -2.17805481 29.3578949 C-2.1831213 27.64053922 -2.18546322 25.92317369 -2.18530273 24.20581055 C-2.18748837 21.57649536 -2.20564436 18.94760024 -2.22460938 16.31835938 C-2.2275435 14.6510431 -2.22952817 12.98372484 -2.23046875 11.31640625 C-2.24124702 10.13504845 -2.24124702 10.13504845 -2.25224304 8.92982483 C-2.23613717 5.0869531 -2.18266282 3.27399423 0 0 Z " fill="#F7E9FB" transform="translate(233,273)"></path>
<path d="M0 0 C0 2.31 0 4.62 0 7 C-0.969375 7.45375 -1.93875 7.9075 -2.9375 8.375 C-6.07079582 9.65786221 -6.07079582 9.65786221 -7 12 C-7.11704964 13.35752296 -7.17677189 14.72025888 -7.20532227 16.08251953 C-7.22526749 16.92324005 -7.24521271 17.76396057 -7.26576233 18.63015747 C-7.28247482 19.53853363 -7.29918732 20.44690979 -7.31640625 21.3828125 C-7.33718735 22.31221649 -7.35796844 23.24162048 -7.37937927 24.19918823 C-7.44487646 27.1743821 -7.50376052 30.14966577 -7.5625 33.125 C-7.60568506 35.13933228 -7.64929934 37.15365541 -7.69335938 39.16796875 C-7.80055803 44.11188663 -7.90182501 49.05589503 -8 54 C-10.97 54.495 -10.97 54.495 -14 55 C-14 37.51 -14 20.02 -14 2 C-10 2 -10 2 -7.75 4 C-7.1725 4.66 -6.595 5.32 -6 6 C-5.71125 5.195625 -5.4225 4.39125 -5.125 3.5625 C-3.81204892 0.57188921 -3.2474503 0 0 0 Z " fill="#CB6DE6" transform="translate(353,246)"></path>
<path d="M0 0 C1.65 0 3.3 0 5 0 C5.93632951 5.53615285 6.1462001 10.87556957 6.1328125 16.484375 C6.13376923 17.38061584 6.13472595 18.27685669 6.13571167 19.20025635 C6.13638937 21.08955964 6.1345638 22.9788653 6.13037109 24.86816406 C6.12504237 27.72726817 6.13031705 30.58621339 6.13671875 33.4453125 C6.13963136 42.33810523 6.14168442 51.16299846 5 60 C4.67 60 4.34 60 4 60 C3.67 55.71 3.34 51.42 3 47 C1.02 47.495 1.02 47.495 -1 48 C-2 47 -2 47 -2.11352539 43.76538086 C-2.11336631 42.33185874 -2.10767407 40.89833088 -2.09765625 39.46484375 C-2.0962413 38.71159317 -2.09482635 37.95834259 -2.09336853 37.18226624 C-2.08775376 34.7673044 -2.07519883 32.35243399 -2.0625 29.9375 C-2.0574869 28.30403779 -2.05292366 26.67057414 -2.04882812 25.03710938 C-2.03777954 21.02470415 -2.02050506 17.01236759 -2 13 C-0.02 12.67 1.96 12.34 4 12 C4 8.37 4 4.74 4 1 C2.68 0.67 1.36 0.34 0 0 Z " fill="#D385EA" transform="translate(298,252)"></path>
<path d="M0 0 C3.1875 0.375 3.1875 0.375 5.359375 2.4921875 C7.53177224 5.91789085 7.69550499 7.85151525 7.625 11.875 C7.62371094 12.9784375 7.62242187 14.081875 7.62109375 15.21875 C7.1468349 18.67101259 6.23333591 20.58203284 4.1875 23.375 C1.18091882 25.41171629 -0.00346596 25.375 -3.8125 25.375 C-3.84136984 21.39584841 -3.85925406 17.41672347 -3.875 13.4375 C-3.88337891 12.30119141 -3.89175781 11.16488281 -3.90039062 9.99414062 C-3.90361328 8.91455078 -3.90683594 7.83496094 -3.91015625 6.72265625 C-3.91539307 5.72242432 -3.92062988 4.72219238 -3.92602539 3.69165039 C-3.75909028 0.28509705 -3.42466137 0.45662152 0 0 Z " fill="#F9EEFC" transform="translate(169.8125,269.625)"></path>
<path d="M0 0 C7 0 7 0 8.91015625 0.97265625 C10.6972722 4.29707624 10.4714767 7.7587498 10.4375 11.4375 C10.45748047 12.20126953 10.47746094 12.96503906 10.49804688 13.75195312 C10.49489495 17.37351301 10.39422882 19.41005475 8.34765625 22.47265625 C6 24 6 24 0 25 C0 16.75 0 8.5 0 0 Z " fill="#FDF9FE" transform="translate(167,301)"></path>
<path d="M0 0 C2.375 0.75 2.375 0.75 3.375 1.75 C3.44819621 4.44654854 3.46742537 7.11691458 3.4375 9.8125 C3.43298828 10.57111328 3.42847656 11.32972656 3.42382812 12.11132812 C3.4120068 13.99091871 3.39407078 15.87046899 3.375 17.75 C0.405 18.08 -2.565 18.41 -5.625 18.75 C-5.7059313 16.14521117 -5.76545434 13.54293347 -5.8125 10.9375 C-5.85020508 9.83051758 -5.85020508 9.83051758 -5.88867188 8.70117188 C-5.96256362 3.2578131 -5.96256362 3.2578131 -4.27734375 0.72265625 C-2.625 -0.25 -2.625 -0.25 0 0 Z " fill="#F8EBFB" transform="translate(256.625,189.25)"></path>
<path d="M0 0 C2.5 -0.3125 2.5 -0.3125 5 0 C7 2 7 2 7.1953125 5.4765625 C7.18201493 6.85950968 7.15816232 8.24238654 7.125 9.625 C7.11597656 10.33140625 7.10695313 11.0378125 7.09765625 11.765625 C7.07407603 13.51056098 7.03820461 15.25532295 7 17 C4.04335481 18.4783226 1.25770263 18.06032783 -2 18 C-2.05397335 15.5622037 -2.09365616 13.12560315 -2.125 10.6875 C-2.14175781 9.99720703 -2.15851563 9.30691406 -2.17578125 8.59570312 C-2.21217794 4.82864604 -2.14378864 3.21568296 0 0 Z " fill="#F8EDFC" transform="translate(315,258)"></path>
<path d="M0 0 C0.33 0 0.66 0 1 0 C1.06316406 0.9178125 1.12632812 1.835625 1.19140625 2.78125 C2.06442303 11.52979707 3.64928861 16.03117994 10 22 C10.99 23.32 11.98 24.64 13 26 C9.37 26.66 5.74 27.32 2 28 C2 31.96 2 35.92 2 40 C1.34 40 0.68 40 0 40 C-0.16722049 34.46428137 -0.32781942 28.92842623 -0.48217773 23.39233398 C-0.5356766 21.50751524 -0.5910118 19.62274772 -0.64819336 17.73803711 C-0.7298851 15.03510589 -0.8050554 12.33206161 -0.87890625 9.62890625 C-0.90594131 8.78099014 -0.93297638 7.93307404 -0.96083069 7.0594635 C-1.01280526 5.04026894 -1.01188213 3.01982842 -1 1 C-0.67 0.67 -0.34 0.34 0 0 Z " fill="#D383E9" transform="translate(250,271)"></path>
<path d="M0 0 C0.33 0 0.66 0 1 0 C1.70201821 10.35476854 2.14809693 20.61675986 2 31 C1.34 31.33 0.68 31.66 0 32 C0 28.37 0 24.74 0 21 C-1.381875 21.33 -2.76375 21.66 -4.1875 22 C-7.71224597 22.84173038 -10.24868977 23 -14 23 C-14 26.3 -14 29.6 -14 33 C-14.66 33 -15.32 33 -16 33 C-16 29.04 -16 25.08 -16 21 C-5.625 19 -5.625 19 0 19 C0 12.73 0 6.46 0 0 Z " fill="#D17EE9" transform="translate(271,195)"></path>
<path d="M0 0 C0.99 0 1.98 0 3 0 C4.38226016 2.76452033 4.09525387 5.0461363 4.0625 8.125 C4.05347656 9.22070312 4.04445312 10.31640625 4.03515625 11.4453125 C4.02355469 12.28835938 4.01195312 13.13140625 4 14 C2.02 14.99 2.02 14.99 0 16 C0 10.72 0 5.44 0 0 Z " fill="#D68BEB" transform="translate(170,305)"></path>
<path d="M0 0 C0.99 0.33 1.98 0.66 3 1 C3.02703381 2.93742341 3.04641125 4.87495479 3.0625 6.8125 C3.07410156 7.89144531 3.08570313 8.97039062 3.09765625 10.08203125 C3 13 3 13 2 16 C1.34 16 0.68 16 0 16 C0 10.72 0 5.44 0 0 Z " fill="#D282E9" transform="translate(170,274)"></path>
<path d="M0 0 C-0.66 0 -1.32 0 -2 0 C-2 0.66 -2 1.32 -2 2 C-3.98 2.33 -5.96 2.66 -8 3 C-8 6.3 -8 9.6 -8 13 C-8.33 13 -8.66 13 -9 13 C-9 8.71 -9 4.42 -9 0 C-3.375 -1.125 -3.375 -1.125 0 0 Z " fill="#D383E9" transform="translate(326,284)"></path>
</svg>
