<svg xmlns="http://www.w3.org/2000/svg" width="400" height="400" version="1.0" viewBox="0 0 300 300"><g fill="#e9e2e2"><path d="M127 49.5c-1.5 1.8-.6 4.5 1.3 4.5.8 0 2-.6 2.6-1.4.9-1.1.8-1.8-.4-3-2-2-2-2-3.5-.1m3 1.3c0 1.3-1.2 2.2-2.2 1.6s-.1-2.4 1.3-2.4c.5 0 .9.4.9.8M166.7 48.7c-1.2 1.1-.7 3.3.8 3.9 2 .8 4.5-1.3 3.8-3.2-.5-1.4-3.4-1.9-4.6-.7m3.3 1.8c0 .8-.4 1.5-.9 1.5-1.3 0-2.2-1.6-1.4-2.4 1.1-1.1 2.3-.6 2.3.9M166 57.1c0 .2-1.6 5.8-3.5 12.3-3.5 11.9-4.2 15.5-2.6 12.6 1.5-2.6 7.3-24.1 6.7-24.8-.3-.3-.6-.3-.6-.1M130.4 59.5c.3.9 2 6.4 3.7 12.3s3.5 11.1 4.1 11.7c.8.7.9.5.6-.5-.2-.8-2-6.8-3.9-13.2-1.9-6.5-3.8-11.8-4.3-11.8-.4 0-.6.7-.2 1.5M201.7 69.3c-1.2.8-1.6 1.9-1.1 3 .8 2.1 2.7 2.2 4.4.1 1.1-1.2 1.1-1.8-.1-3s-1.8-1.2-3.2-.1m2.3 2.2c0 .8-.4 1.5-.9 1.5-1.3 0-2.2-1.6-1.4-2.4 1.1-1.1 2.3-.6 2.3.9M93.4 72.5c-.4.9-.2 2.1.4 2.7 1.5 1.5 4.4.1 4-1.9-.4-2.3-3.6-2.9-4.4-.8m3.6 1.6c0 .5-.7.9-1.5.9-1.5 0-2-1.2-.9-2.3.8-.8 2.4.1 2.4 1.4M186.8 84.5c-5.3 4.7-10.1 8.5-10.7 8.5s-1.1 2.8-1.3 6.2l-.3 6.2-3.5-5.9c-2.4-4.1-4.2-6.1-5.7-6.3-2.2-.3-2.3-.1-2.3 9.2 0 9.1.1 9.6 2.1 9.6s2.1-.4 1.7-6.5c-.2-3.6-.1-6.5.2-6.5.3.1 2.1 2.9 4.1 6.3l3.7 6.2-2.5 1.3c-2.8 1.5-2.6 3.6.5 4 2.4.4 6.2-1.4 6.2-2.9 0-.5-1.1-.2-2.5.7-1.5 1-3.2 1.3-4.2.9-1.5-.6-1.1-1.1 2.1-2.5l3.9-1.8-.2-8.8-.2-8.9 7.6-6.5c4.2-3.6 8.8-7.5 10.3-8.7 1.5-1.3 2.2-2.3 1.7-2.3-.6 0-5.4 3.8-10.7 8.5M101.1 78.6c.2.7 3.9 4.1 8.2 7.8 4.3 3.6 7.1 6.6 6.3 6.6-1.3 0-1.6 1.6-1.6 9.5v9.5h6.5c5.7 0 6.5-.2 6.5-1.9 0-1.6-.6-1.8-4.5-1.3-4.5.5-4.5.4-4.5-2.6s.1-3 4.1-2.5c3.6.5 4.1.4 3.7-1.3-.3-1.5-1-1.8-4.1-1.6-3.4.3-3.7.1-3.7-2.2 0-2.4.3-2.6 4.5-2.6 3.3 0 4.5-.4 4.5-1.5s-1.1-1.5-4.1-1.5c-3.6 0-5-.8-11.3-6.2-10-8.7-10.9-9.4-10.5-8.2M140.6 92.2c-.2.7-.9 3.8-1.6 6.8-2 8.9-2.5 9-5.1 1.2-1.8-5.6-2.7-7.2-4.2-7.2-1.1 0-1.7.5-1.4 1.2.2.7 1.7 5 3.2 9.6 2.4 7.2 3 8.3 4.8 8 1.7-.2 2.8-2.2 5.3-9.6 3.1-8.7 3.1-9.2 1.2-9.2-1 0-1.6-.5-1.3-1 .3-.6.4-1 0-1-.3 0-.7.6-.9 1.2M155.5 92c-.3.5-2.4 1-4.6 1H147l.2 9.5.2 9.5h6.4c5.5 0 6.3-.2 6-1.7-.3-1.4-1.2-1.7-4.6-1.5-4.1.3-4.2.3-4.2-2.6 0-2.7.3-2.9 3.6-2.8 2.2.1 3.9-.4 4.1-1.2.3-.8-.8-1.2-3.6-1.2-3.7 0-4.1-.2-4.1-2.6 0-2.3.4-2.5 3.3-2.4 5 .3 5.7.1 5.7-1.5 0-.9-.9-1.5-2.2-1.5-1.9 0-2-.2-.8-1 .9-.6 1-1 .3-1-.6 0-1.5.4-1.8 1"/><path d="M181 94.5c0 1 1 1.5 3.1 1.5h3.1l-.4 8.1-.3 8.2 6.5-.6c8.6-.7 20.8-2.9 19.3-3.4-1.1-.4-9.8.7-19 2.3l-3.3.6V96h3.1c2 0 2.9-.4 2.7-1.3-.3-.8-3-1.3-7.6-1.5-6-.2-7.2 0-7.2 1.3M127.7 100.6c-.4.7.1 2 1.1 3.1.9 1 1.4 1.4 1.1.8-.4-.5-.9-1.9-1.1-3-.2-1.3-.6-1.6-1.1-.9M144 102.7c0 .4.5 1.5 1 2.3.8 1.3 1 1.3 1-.2 0-.9-.4-2-1-2.3-.5-.3-1-.3-1 .2M219.2 104.9c-1.9 1.1-1.1 4.5 1.1 4.9.9.2 2-.4 2.3-1.3.9-2.1-1.6-4.7-3.4-3.6m2.6 2.2c-.2.6-.8 1-1.3 1s-1.1-.4-1.3-1 .4-1.1 1.3-1.1 1.5.5 1.3 1.1M77.3 109.6c-.3.8-.1 2 .5 2.6 1.6 1.6 4.2.2 4.2-2.2s-3.8-2.8-4.7-.4m3.7.9c0 .8-.4 1.5-.9 1.5-1.3 0-2.2-1.6-1.4-2.4 1.1-1.1 2.3-.6 2.3.9M87.2 111.6c.3.3 5 1.2 10.4 1.9 5.5.8 11.1 1.7 12.7 2 1.5.2 2.7.1 2.7-.4 0-.4-5.3-1.5-11.7-2.4-12.7-1.8-14.9-2-14.1-1.1M140.5 112c.3.5 1.1 1 1.6 1 .6 0 .7-.5.4-1-.3-.6-1.1-1-1.6-1-.6 0-.7.4-.4 1M122.3 114.7c-1.9.7-1.6 2.1.8 3.3 2.5 1.4 6.9.5 6.9-1.4 0-2.2-4.4-3.3-7.7-1.9m6.2 1.2c.3.5.1 1.2-.5 1.6-1.3.8-5-.3-5-1.6 0-1.2 4.7-1.2 5.5 0M162.8 115.7c-1.6.2-2.8.8-2.8 1.3 0 1.1 6 .1 7.5-1.1.9-.9.3-.9-4.7-.2M133 117.2c0 .5 1.8.8 4 .8s4-.2 4-.4-1.8-.6-4-.8-4 0-4 .4M159 122.6c0 .8 7.1 3.6 7.7 3 .3-.3-1.2-1.2-3.2-2-4.1-1.8-4.5-1.8-4.5-1M137 125c-1.9 1.1-2.9 1.9-2.2 2 1.4 0 7.2-2.8 7.2-3.5 0-.9-1.5-.4-5 1.5M169.7 125.8c-.3.4-.3 1.9 0 3.5.4 2.1 1.1 2.7 3.2 2.7h2.6l-.3 7.5c-.4 7.1-.3 7.5 1.7 7.5 1.9 0 2.1-.5 2.1-7.5 0-7.3.1-7.5 2.5-7.5 1.6 0 2.5-.6 2.5-1.5 0-1-1-1.5-3.1-1.5-1.7 0-4.2-.9-5.6-2-2.7-2.1-4.8-2.6-5.6-1.2m5.8 2.2c.3.6-.5 1-1.9 1s-2.8-.5-3.1-1c-.3-.6.5-1 1.9-1s2.8.4 3.1 1M129.3 127.7c.9.2 1.7.9 1.7 1.4 0 .6.5.7 1 .4 1.6-1 .1-2.5-2.3-2.4-1.7.1-1.8.2-.4.6M156.2 128c.1.8-.1 2.5-.6 3.7-1.1 3.3.9 6.1 5.4 7.4 4.9 1.5 5.7 4.9 1.2 4.9-1.5 0-3.3-.5-4-1.2-.9-.9-1.5-.9-2.4.1-1.9 1.8 1.6 4.1 6.2 4.1 3.9 0 7-2.4 7-5.3 0-2.5-3.7-5.7-6.5-5.7s-4.5-2.7-2.5-4c.7-.5 2.5-.4 3.8.1 1.7.6 2.9.6 3.6-.1 1.7-1.7-.9-3.3-5.6-3.3-2.4 0-4.7-.5-5.1-1.1-.5-.7-.7-.6-.5.4M120.3 129.5c-7.9 3.4-5.2 17.5 3.4 17.5 4.8 0 7-1.4 8.3-5.5 1.7-5.2-.2-10.3-4.6-12.1-3.9-1.6-3.1-1.7-7.1.1m8.1 5.7c1.5 4.3-.3 8.2-3.9 8.6-4.7.6-7.1-4.9-4.4-9.9 1.6-3.1 7.1-2.2 8.3 1.3M140.3 129.5c-3.4 1.4-4 2.8-4.5 10.2-.2 2.8.1 4.3.8 4.3.6 0 1.8.7 2.5 1.6 1 1.2 2.5 1.5 6.1 1.2 2.6-.3 4.8-.1 4.8.3 0 .5.7.9 1.5.9s1.5-.8 1.5-1.8c0-1.3-.2-1.4-.9-.3-.6.9-1 1-1.6.2-.4-.7-.2-1.8.5-2.6 1.9-2.2 2.1-6.3.6-9.9-.8-1.9-1.3-3.6-1.1-3.8s-.4-.4-1.3-.4-2.6-.3-3.7-.7c-1.1-.3-3.4 0-5.2.8m8.1 5.7c1.6 4.5-.3 8.2-4.2 8.6-2.7.3-3.4-.1-4.2-2.3-1.3-3.5-1.3-4.8.3-3.9.9.5.9.4 0-.6-2.1-2.3.3-5.2 4-4.8 2.4.2 3.4.9 4.1 3M99 136.3c0 7.2 0 7.3-3.2 8.5-1.7.6-2.9 1.4-2.6 1.8.4.3 1.7 0 2.9-.7 1.7-.9 2.4-.9 2.7 0 .6 1.9 10.6 1.4 12.5-.7 2.3-2.5 2.1-5.9-.3-7.2-1.8-1-1.9-1.3-.5-2.6 1.8-1.8 1.8-2 .5-4.5-.9-1.5-2.2-1.9-6.5-1.9H99zm8.8-2.6c.3 2-.1 2.3-2.7 2.3-2.7 0-3.1-.4-3.1-2.6s.4-2.5 2.8-2.2c1.9.2 2.8.9 3 2.5m1.5 6.5c.8 2.5-.6 3.8-3.9 3.8-3 0-3.4-.3-3.4-2.5s.4-2.5 3.4-2.5c1.9 0 3.6.6 3.9 1.2"/><path d="M105 141c-.9.6-1 1-.3 1 .6 0 1.5-.5 1.8-1 .8-1.2.4-1.2-1.5 0M187 138v9h6.5c5.1 0 6.5-.3 6.5-1.5 0-1.1-1.2-1.5-4.5-1.5-4.2 0-4.5-.2-4.5-2.6s.3-2.6 3.8-2.2c2 .3 4.6.8 5.7 1.2 1.4.5 1.4.3-.2-.5-1.3-.7-2.3-1.8-2.3-2.6s-1.2-1.3-3.5-1.3c-2.8 0-3.5-.4-3.5-2 0-1.7.7-2 4-2 2.9 0 4-.4 4-1.5 0-1.2-1.3-1.5-6-1.5h-6zM203 138c0 8.5.1 9 2.1 9 1.5 0 1.9-.5 1.5-1.5q-.45-1.5 1.2-1.5c1.6-.1 1.6-.1 0-1.1-2.6-1.5-2.3-4.1.5-3.7 1.7.2 2.6 1.5 3.7 5 1.6 5 2.8 6.2 5 4.8 1.1-.7.8-1.9-1.4-6.1-2.3-4.6-2.5-5.4-1.1-6.1 1.8-1.1 2-4.9.3-6.6-.7-.7-3.6-1.2-6.5-1.2H203zm9.6-4.8c.9 1.5-1.6 3.8-4.2 3.8-1.8 0-2.4-.5-2.4-2.3 0-1.3.2-2.6.5-2.9.8-.8 5.4.3 6.1 1.4m4.4 14.2c0 1.1-1.9 1.5-2.5.6-.3-.5.1-1 .9-1 .9 0 1.6.2 1.6.4M84.7 147.7c-1.2 1.2-.7 4.1.7 4.6 1.9.7 4-1.8 3.2-3.8-.6-1.5-2.8-2-3.9-.8m3.3 2.4c0 .5-.7.9-1.5.9-1.5 0-2-1.2-.9-2.3.8-.8 2.4.1 2.4 1.4M172.2 151.2c.8 1.3 4.1 6.5 7.3 11.5 3.2 5.1 6.1 9.1 6.3 8.8.3-.2-1.9-4.2-4.8-8.7-2.9-4.6-6-9.5-6.9-11-.9-1.6-2-2.8-2.5-2.8-.4 0-.2 1 .6 2.2M124 161.2c-3.6 5.6-6.6 10.9-6.8 11.8-.2.8 2.7-3 6.3-8.5 7.9-12 8.8-13.5 7.8-13.5-.4 0-3.7 4.6-7.3 10.2M151 169.6c0 7.9.4 13.3.9 13 1.3-.8 1.4-26.6.1-26.6-.6 0-1 5-1 13.6M188 176.5c-1.5 1.8-.5 3.5 2 3.5 1 0 2.2-.5 2.5-1 .7-1.1-1.2-4-2.5-4-.4 0-1.3.7-2 1.5m3 1c0 .8-.4 1.5-1 1.5-.5 0-1-.7-1-1.5s.5-1.5 1-1.5c.6 0 1 .7 1 1.5M110.7 178.4c-.7 1.9 1.8 4 3.9 3.2.8-.3 1.4-1.4 1.2-2.3-.4-2.2-4.3-2.9-5.1-.9m3.5 1.1c0 .5-.5 1.1-1.1 1.3s-1.1-.4-1.1-1.3.5-1.5 1.1-1.3 1.1.8 1.1 1.3M150 188.5c-1.5 1.7-.5 3.5 2 3.5 2.2 0 3.3-2.3 1.7-3.9-1.5-1.5-2.2-1.4-3.7.4m3 1.5c0 .5-.7 1-1.5 1s-1.5-.5-1.5-1c0-.6.7-1 1.5-1s1.5.4 1.5 1"/></g></svg>