<svg xmlns="http://www.w3.org/2000/svg" width="426.667" height="253.333" version="1.0" viewBox="0 0 320 190"><g fill="#ede8e8"><path d="M24.6 30.3c-1.5 1.1-1.8 3.8-2.2 24.3-.7 29.9-2.4 27.5 19.8 27.6 9.1 0 17.1-.3 17.7-.6.6-.4 1.1-3.7 1.1-7.6 0-6.3-.2-7.1-2.6-8.6-1.7-1.2-2.2-2-1.5-2.7 1.4-1.4 1.4-12.4.1-13.2-1.4-.9-1.2-2.5.3-2.5 3.1 0 4.5-3.3 4.1-9.4-.2-3.3-.9-6.5-1.5-7.2-1.5-1.8-32.8-1.9-35.3-.1M59 38v6H37v6h18v11.5l-9-.3-9-.3V67h22v13H25V32h34zM75.1 30.7 73 32.5 80.9 50c12.4 27.9 14 31 15.7 31.7 2.3.9 3.8-1.2 8.4-11.7 2.3-5.2 6.7-14.8 9.6-21.4 6.7-14.5 7.3-17 4.6-18.5-1.3-.7-9.5-1.1-22-1.1-17.6 0-20.2.2-22.1 1.7m43.6 2c-.2.5-5 11.3-10.7 24-5.7 12.8-10.6 23.1-10.8 22.8C96.7 79 76 33 76 32.4c0-.2 9.7-.4 21.6-.4 11.8 0 21.3.3 21.1.7"/><path d="M79.7 35.2c.6.7 4.8 9.8 9.3 20.1 5.1 11.4 8.6 18.3 9.1 17.5 1.4-2.6 16.9-37.5 16.9-38.2 0-.3-8.2-.6-18.1-.6-14.4 0-17.9.3-17.2 1.2m31 3c-1.4 3.8-5.7 13.2-9.3 20.7-3.9 8.1-4.2 8.5-5.2 6.1-.9-2.2-3.9-8.9-10.2-22.5-1.8-4-1.8-4 .4-4.7 1.1-.3 7.2-.6 13.5-.7 8.7-.1 11.2.2 10.8 1.1M135.3 31.2c-1.4 1.5-1.6 5.1-1.5 24.9.1 15.5.6 23.6 1.3 24.5.9 1.1 5.1 1.4 18.2 1.4 19.7 0 19.6 0 19.7-9.1 0-5.7-1.1-7.9-4.2-7.9-2 0-2.3-1.1-.9-2.6 1.8-1.7 1.6-11.3-.2-13.2-1.6-1.5-1.5-1.7 1.5-3.2 3.1-1.4 3.3-1.8 3.6-7.6.2-4.5-.1-6.4-1.2-7.3s-6.6-1.3-18.1-1.4c-14.7-.2-16.8 0-18.2 1.5M170 38v6h-21.5v6h18.6l-.3 5.7-.3 5.6-8.7-.2-8.8-.2v5.7c0 .4 4.7.6 10.5.5l10.5-.2V80h-34V32h34zM189.5 31c-1.7 1.9-1.9 4-1.7 24.6.1 12.6.6 23.2 1.1 24.3 1.4 2.6 3.2 2.8 22 2.4 13.7-.2 16.7-.5 18.2-1.9 1.8-1.6 1.9-3.3 1.5-25.1-.3-19.3-.6-23.7-1.9-25-1.8-1.8-5.7-.2-5.8 2.5V44c0 5.3-.3 10.1-.7 10.7-.5.9-5.4-3.2-14.5-12.2-7.6-7.4-14.3-13.5-15.1-13.5-.7 0-2.1.9-3.1 2m20 17 16 16-.3-16c-.3-14.1-.2-16 1.2-16s1.6 2.7 1.6 23.7v23.8h-37V55.7c0-18.2.3-23.7 1.2-23.7.7 0 8.5 7.2 17.3 16M244.5 30.9c-1 1.2-1.5 3.7-1.5 7.3 0 6.3 1.7 8.6 6.5 8.6 1.7 0 4.8 0 7.1.1l4.1.1-.3 15.7c-.2 13.3 0 16.1 1.3 17.5.9 1 2.2 1.8 2.8 1.8 3.1 0 3.7-3 3.8-18.9.2-17.9-.1-17.2 7.7-16.5 2.7.3 5.2-.2 7-1.2 2.7-1.6 2.8-1.9 2.3-7.8-.3-3.4-1-6.7-1.5-7.3-.8-.9-5.9-1.2-19.4-1.2-15.9.1-18.5.4-19.9 1.8M283 38v6h-17.5l.3 18c.2 15.7.1 18-1.3 18-1.3 0-1.5-2.4-1.5-18V44h-17V32h37zM77.8 102c-8.2 2.5-13.9 11.2-14.6 22.6-1 16.1 5.4 26.3 17.6 28 4.6.6 7.3-1.7 7.4-6.5.1-1.7.3-3 .5-2.8.2.3.5 6.8.7 14.7.4 15.2.9 16.6 5.6 17.3 8.4 1.3 17.4-8.1 19.5-20.3.8-4.5.8-4.5 1.9-1.8 3.1 7.4 10.7 11.8 20.6 11.8 13.3 0 22-7.6 22-19.2 0-3.9-3.3-10.8-5.2-10.8-.5 0-.8-.5-.8-1 0-.6.6-1 1.4-1 2.6 0 4.4-3.8 3.6-7.3-1.5-6.8-5.4-11.6-11.8-14.3-4.6-2-16.3-1.4-20.9.9-4.7 2.5-8.5 8-9 13.1-.7 5.9 0 8.5 3.6 12.3 2.8 3.1 2.8 3.3.9 3.3-1.2 0-3 .7-4 1.6-1.4 1.4-1.8 1.4-2.2.3-3.1-10.5-8.9-17.7-14.5-18.1-1.4-.1-3.5-.2-4.6-.3-3.1-.2-5.5 1.4-5.6 3.8-.3 5.7-1.9-5.6-1.8-12.8.1-10.3 0-10.8-1-12.3-1-1.7-5.8-2.3-9.3-1.2m8.2 25.1v23.2l-4.7-.7c-6.3-.8-10.2-3.3-12.7-8.1-3.1-5.9-3-22.2.1-28.2 3.3-6.1 7.5-8.7 15.1-9.2l2.2-.1zm56-14c7.8 1.7 14 8 14 14.4 0 2.4-.3 2.5-5.5 2.5-4.2 0-5.5-.3-5.5-1.5 0-4.9-9.1-7.4-13-3.5-3.8 3.8-1.9 4.9 13.9 9 9.3 2.4 13.1 10.4 8.9 18.8-3.2 6.6-9 9.6-17.8 9.6-11.1-.1-17.2-4.6-18.9-13.9l-.8-4.5h5.8c3.3 0 5.8.3 5.7.7-.1.5.1 1.8.5 2.9 1.7 4.8 12.4 5.7 14.8 1.2 1.6-3-.5-4.6-8.2-6.4-11.5-2.6-15.1-5-16.9-11.4-2.1-7.4 2.6-14.9 10.9-17.4 5.8-1.8 5.9-1.8 12.1-.5m-1.6 13.5c.9.3 1.6 1.3 1.6 2.1 0 1.1-.7 1.3-3.2.8-4-.9-4.8-1.3-4.8-2.6 0-1 4-1.2 6.4-.3m-37.4 2.6c6.6 3.4 8.5 7.9 8.5 19.8 0 7.9-.4 10.3-2.3 14.2-2.7 5.4-6.7 8.2-12.9 9.2l-4.3.6v-46h3.3c1.8 0 5.3 1 7.7 2.2m37.3 17.7c1.2 1.2-2.8 2.4-5.8 1.7-1.2-.3-2.5-1.3-2.9-2.1-.5-1.3.1-1.5 3.6-1.1 2.3.3 4.5.9 5.1 1.5M24.2 112.3c-1.6 1.9-1.8 46.6-.3 49.6 1.2 2.2.9 2.2 16.1 2.3 12.9.2 16.6-1.3 20.9-8.3 2.9-4.8 2.7-10.7-.5-15.5-2.6-3.8-2.6-3.9-.9-7 3.8-7.1.6-17.2-6.5-20.6-4.5-2.2-27.1-2.5-28.8-.5m30.2 4.6c5.5 5.2 5.5 13.7-.1 18.1-1.4 1.1-2.1 2-1.5 2 2.1 0 7 6 7.6 9.4.9 4.7-1.5 10.1-5.6 12.6-2.9 1.7-5 2-16 2H26v-47.2l12.9.4c12.1.3 13.1.5 15.5 2.7M165.8 112.2c-1.9 1.5-2.1 2.4-1.9 9.5.1 4.8.3 5.3 2.7 5.9 3.2.8 5.6 1.1 10.7 1.3l3.7.1-.1 16c-.2 11.6.1 16.3 1.1 17.5 1.7 2 3.3 1.9 5.4-.3 1.4-1.6 1.6-4.2 1.5-17.1 0-8.4.2-15.5.4-15.7s3.4-.5 7.1-.6c9-.3 10.5-1.7 10-9.4-.3-3.2-.9-6.3-1.5-7.1-1.6-1.8-36.8-1.9-39.1-.1M204 120v6h-18v17.5c0 13.3-.3 17.5-1.2 17.5-1 0-1.2-4-1-17.5l.3-17.5H166v-12h38zM214.7 112.8c-1.4 1.5-1.6 5.1-1.7 24.9 0 24.9.2 26.2 5.3 26.4 15.4.4 31-.1 32.2-1.1 1.1-.9 1.5-3.3 1.5-8.2 0-6.8-.1-6.9-3-7.9-2.7-1-2.8-1.3-1.6-3.2 1.8-3 1.3-11.3-.8-13.6-1.6-1.7-1.5-1.8.6-1.4 3.2.6 5-2.7 5-9.4.1-8-.5-8.2-19.8-8.3-14.1 0-16.3.2-17.7 1.8M250 120v6h-22v6h18v11h-18v6h22v12h-34v-47h34zM262.7 112.8c-1.5 1.6-1.7 4.8-1.7 24.8 0 12.6.4 23.4.8 24.1 1.5 2.3 5.9 2.9 21 2.7 20.3-.2 21.3-1 13.8-11.6l-4.4-6.2 4-4.7c4.6-5.5 5.6-8.6 4.8-15-.8-5.9-4.9-11.5-10.4-14-6-2.7-25.5-2.8-27.9-.1m28.2 3.2c4.2 2.1 8.1 8.5 8.1 13.3 0 5.6-5.3 13.3-10.2 14.9-.7.3.9 3.4 4.5 8.5 3.1 4.5 5.7 8.3 5.7 8.5 0 .1-7.9.2-17.5 0l-17.5-.3V114h11.5c9.5 0 12.3.3 15.4 2"/><path d="M276.5 128.6c4.9 7.1 9 13.1 9.1 13.3.2.2 1.7-.2 3.4-.9 6.4-2.6 9-12.2 5-18.7-2.8-4.6-5.3-5.6-16.4-6.1l-9.9-.5zm13.6-6.9c3.2 3.1 4 9.5 1.8 12.9-3.5 5.4-4.3 5.1-11.3-4.8-3.6-5-6.2-9.6-5.9-10.1s3.4-.7 6.9-.5c4.8.3 7 .9 8.5 2.5M266 130.1v12.4h8.5c4.7 0 8.5-.1 8.5-.3s-15.7-23-16.7-24.1c-.1-.2-.3 5.2-.3 12m8 3.3c3.4 5.1 3.7 6.6 1.3 6.6-5.4-.1-6.3-1-6.2-6.1.1-2.7.6-4.9 1-4.9s2.2 2 3.9 4.4M266 152v7h29l-5.1-7-5.1-7H266zm18.5-3c.6.5 1.8 2.2 2.8 3.9l1.8 3.1H269v-3.9c0-2.3.5-4.1 1.3-4.4 1.9-.6 13.1.4 14.2 1.3"/></g></svg>