<?xml version="1.0" standalone="no"?>
<!DOCTYPE svg PUBLIC "-//W3C//DTD SVG 20010904//EN"
 "http://www.w3.org/TR/2001/REC-SVG-20010904/DTD/svg10.dtd">
<svg version="1.0" xmlns="http://www.w3.org/2000/svg" width="300.000000pt" height="178.000000pt" viewBox="0 0 300.000000 178.000000" preserveAspectRatio="xMidYMid meet">
<metadata>
Created by potrace 1.10, written by Peter Selinger 2001-2011
</metadata>
<g transform="translate(0.000000,178.000000) scale(0.100000,-0.100000)" fill="#ede8e8" stroke="none">
<path d="M227 1492 c-15 -16 -17 -46 -17 -239 0 -183 3 -223 15 -233 19 -16
322 -15 342 1 8 7 13 33 13 69 0 49 -4 62 -22 77 -20 16 -23 27 -23 96 0 54 4
77 12 77 20 0 33 35 33 88 0 76 -8 80 -186 82 -135 1 -152 -1 -167 -18z m325
-67 l-4 -55 -99 0 -99 0 0 -30 0 -30 85 0 85 0 0 -53 0 -53 -85 4 -85 5 0 -32
0 -31 100 0 100 0 0 -60 0 -59 -156 3 -155 4 -2 221 -2 221 160 0 160 0 -3
-55z"></path>
<path d="M702 1498 c-18 -18 -16 -27 42 -160 138 -314 159 -350 191 -317 8 8
57 112 110 232 124 279 135 257 -135 257 -139 0 -199 -3 -208 -12z m382 -95
c-20 -43 -65 -145 -102 -226 -36 -81 -68 -144 -72 -140 -7 10 -104 222 -186
411 l-14 32 205 0 204 0 -35 -77z"></path>
<path d="M750 1456 c0 -2 22 -53 48 -113 27 -59 64 -143 82 -185 l34 -76 42
96 c23 53 60 137 83 186 22 49 41 90 41 92 0 2 -74 4 -165 4 -91 0 -165 -2
-165 -4z m271 -68 c-11 -24 -39 -86 -64 -138 l-45 -95 -17 40 c-10 22 -37 81
-60 132 -24 50 -40 94 -37 97 3 3 58 6 123 6 l118 0 -18 -42z"></path>
<path d="M1267 1492 c-15 -16 -17 -46 -17 -234 0 -195 2 -216 18 -231 16 -14
43 -17 173 -17 107 0 159 4 167 12 7 7 12 39 12 75 0 58 -2 64 -25 75 -19 9
-22 14 -15 29 16 28 12 105 -5 119 -13 11 -10 15 17 29 32 16 33 17 30 76 -1
33 -7 64 -12 69 -5 5 -80 11 -168 13 -144 3 -160 2 -175 -15z m328 -67 l0 -55
-102 0 -103 0 0 -30 0 -30 88 0 87 0 -3 -52 -4 -53 -84 4 -84 3 0 -31 0 -31
103 0 102 0 -2 -57 -1 -58 -156 -3 -155 -3 -3 226 -3 225 160 0 160 0 0 -55z"></path>
<path d="M1771 1492 c-8 -15 -15 -260 -12 -402 3 -81 5 -82 203 -81 163 1 174
2 190 22 16 19 18 44 15 233 -2 216 -7 246 -42 246 -27 0 -36 -31 -38 -134 -2
-58 -5 -107 -8 -110 -2 -3 -61 51 -131 120 -127 125 -157 143 -177 106z m194
-162 l150 -150 -3 150 c-3 131 -1 150 12 150 14 0 16 -27 16 -222 l0 -223
-175 0 -175 0 0 223 c0 170 3 222 12 222 7 0 80 -67 163 -150z"></path>
<path d="M2296 1497 c-23 -17 -30 -104 -11 -134 14 -20 23 -23 84 -23 l69 0 1
-152 c2 -172 9 -193 56 -168 27 15 28 22 25 233 l-1 87 63 0 c84 1 98 12 98
82 0 85 -4 87 -201 87 -114 0 -172 -4 -183 -12z m356 -72 l-4 -55 -79 0 -79 0
0 -171 c0 -123 -3 -170 -11 -167 -8 3 -11 54 -10 171 l2 167 -85 0 -86 0 0 55
0 55 178 0 177 0 -3 -55z"></path>
<path d="M710 819 c-35 -14 -68 -48 -93 -94 -18 -33 -22 -57 -22 -140 0 -87 3
-105 23 -140 33 -56 73 -85 132 -94 27 -4 50 -5 50 -2 0 3 8 11 19 18 18 11
18 7 17 -90 -1 -120 9 -141 67 -139 89 3 144 64 172 185 l6 29 30 -42 c41 -56
94 -78 184 -76 60 1 76 5 114 31 66 45 84 75 85 138 0 43 -5 60 -26 87 l-26
34 24 18 c14 11 24 30 24 44 0 40 -38 102 -78 129 -44 29 -132 48 -165 36 -25
-10 -31 -11 -52 -11 -26 0 -83 -60 -101 -105 -20 -54 -14 -95 22 -142 24 -31
24 -33 5 -33 -11 0 -23 -4 -26 -10 -10 -17 -25 -11 -25 10 0 30 -21 72 -53
107 -35 38 -128 66 -149 45 -31 -31 -38 -13 -38 91 0 67 -4 107 -12 115 -14
14 -73 15 -108 1z m91 -230 l0 -214 -38 3 c-93 8 -143 78 -143 197 0 92 14
139 54 183 25 26 44 37 77 42 24 3 45 5 47 4 2 -1 3 -98 3 -215z m579 113 c42
-21 80 -74 80 -113 0 -28 -2 -29 -48 -29 -44 0 -49 2 -59 30 -18 47 -99 54
-123 11 -16 -30 10 -47 97 -67 89 -20 127 -49 138 -107 11 -55 -24 -120 -79
-146 -61 -30 -161 -29 -206 1 -43 30 -67 64 -75 111 l-6 37 56 0 c35 0 54 -4
50 -10 -3 -5 5 -21 19 -35 18 -18 36 -25 65 -25 37 0 71 19 71 40 0 13 -42 40
-60 40 -37 0 -123 33 -151 58 -39 35 -49 94 -24 146 37 77 159 105 255 58z
m-54 -129 c-3 -3 -20 -1 -38 3 -32 7 -32 8 -8 14 23 6 57 -7 46 -17z m-347
-10 c44 -33 64 -79 69 -158 6 -93 -16 -162 -64 -205 -19 -16 -42 -30 -52 -31
-9 0 -29 -3 -44 -5 l-28 -5 0 217 0 217 46 -6 c26 -2 58 -14 73 -24z m329
-161 c3 -10 -5 -13 -29 -10 -18 2 -34 9 -37 16 -3 10 5 13 29 10 18 -2 34 -9
37 -16z"></path>
<path d="M265 742 c-50 -10 -52 -18 -54 -246 -2 -270 -10 -256 146 -257 84 -1
120 3 146 16 96 45 118 142 52 231 -14 18 -13 22 4 41 15 16 19 33 17 72 -2
60 -44 120 -92 133 -32 9 -187 15 -219 10z m249 -61 c34 -32 43 -84 22 -127
-9 -19 -23 -37 -31 -40 -11 -5 -6 -14 19 -38 43 -40 54 -90 32 -138 -28 -57
-58 -68 -195 -68 l-121 0 0 221 0 221 124 -4 c115 -3 126 -5 150 -27z"></path>
<path d="M1671 742 c-64 -1 -121 -8 -128 -14 -8 -6 -13 -33 -13 -68 0 -77 13
-88 113 -89 l47 -1 0 -148 c0 -132 2 -151 19 -166 20 -19 48 -13 56 13 3 9 6
68 6 131 2 174 -1 167 75 172 81 5 97 19 96 84 -2 86 -22 92 -271 86z m239
-87 l0 -55 -86 0 -85 0 3 -165 c2 -127 0 -165 -9 -165 -10 0 -13 40 -13 165
l0 165 -80 0 -80 0 0 55 0 55 175 0 175 0 0 -55z"></path>
<path d="M2065 742 c-22 -2 -45 -8 -52 -14 -10 -8 -13 -66 -13 -234 0 -189 2
-225 16 -238 13 -13 43 -16 168 -16 179 0 186 3 186 87 0 50 -19 83 -50 83
-10 0 -10 3 0 15 15 18 15 112 -1 131 -9 11 -8 14 3 14 29 0 48 35 48 87 0 74
-12 81 -150 85 -63 2 -133 2 -155 0z m275 -87 l0 -55 -100 0 -100 0 0 -31 0
-31 85 3 85 4 0 -52 0 -53 -85 0 -85 0 0 -30 0 -30 100 0 100 0 0 -55 0 -55
-160 0 -160 0 0 220 0 220 160 0 160 0 0 -55z"></path>
<path d="M2510 742 c-67 -7 -67 -9 -64 -240 1 -114 3 -215 3 -224 2 -33 39
-41 195 -39 140 1 152 3 169 22 17 21 16 23 -28 84 l-44 62 24 23 c34 32 65
99 65 140 0 48 -36 116 -73 139 -47 28 -149 42 -247 33z m219 -50 c92 -49 94
-192 4 -248 -15 -10 -29 -19 -31 -20 -4 -3 65 -101 92 -131 l19 -23 -171 0
-172 0 0 220 0 220 113 0 c90 0 119 -4 146 -18z"></path>
<path d="M2592 578 c44 -62 83 -117 88 -121 12 -13 64 18 80 48 20 37 18 96
-4 129 -26 40 -73 56 -165 56 l-80 0 81 -112z m131 53 c12 -11 22 -35 23 -53
2 -33 -21 -84 -42 -92 -9 -4 -94 103 -128 161 -5 9 10 11 60 8 51 -3 72 -9 87
-24z"></path>
<path d="M2497 559 l2 -110 76 -2 c41 -1 74 1 73 4 -6 15 -143 218 -148 218
-3 1 -4 -49 -3 -110z m83 -53 c21 -34 21 -39 6 -33 -10 4 -26 7 -37 7 -16 0
-19 7 -19 47 0 53 8 50 50 -21z"></path>
<path d="M2496 358 l2 -63 131 -3 c72 -1 131 0 131 3 0 2 -18 28 -40 57 -22
29 -40 56 -40 61 0 4 -42 7 -92 7 l-93 0 1 -62z m169 29 c0 -1 10 -17 23 -34
l23 -33 -90 0 -89 0 -7 30 c-10 46 -1 52 73 45 37 -4 67 -7 67 -8z"></path>
</g>
</svg>
