<svg xmlns="http://www.w3.org/2000/svg" width="302.667" height="282.667" version="1.0" viewBox="0 0 227 212"><g fill="#d62ec8"><path d="m135 .7 91.1.3-.3 85.8c-.4 96.7.3 89.1-8.4 102.3-6.7 10.2-16.9 17.4-28.9 20.6l-5 1.3 4.5-.5c11.9-1.4 27.7-13.8 33.8-26.5 1.7-3.6 3.6-9.4 4.2-13 .7-4.5 1-32.1.8-88.5l-.3-82H44zM34.5 2.4c-7.2 2.3-12.9 5.8-19.2 11.8C8.4 20.9 2.5 31.5 1.5 39L1 43.5l1.4-5c2.4-8.2 3.5-10.6 8-16.9 6.8-9.5 16.1-15.9 27.9-19.1 2.8-.7 4.1-1.4 2.7-1.4s-4.3.6-6.5 1.3M.5 127.5v84H183l-91-.2-91-.3-.3-83.8-.2-83.7z"/></g></svg>