<svg xmlns="http://www.w3.org/2000/svg" width="136" height="126.667" version="1.0" viewBox="0 0 102 95"><g fill="#db6bbd"><path d="m72.6.7 28.6.3-.4 27.3c-.5 30.8-.8 32.1-8.6 44-6.3 9.7-16.3 16.8-28.5 20.2L58.5 94l4.5-.5C75 92.1 90.7 79.7 96.8 67c4.5-9.6 5.3-16.4 5-43L101.5.5H44zM34.5 2.4c-7.2 2.3-12.9 5.8-19.2 11.8C8.4 20.9 2.5 31.5 1.5 39L1 43.5l1.4-5c2.4-8.2 3.5-10.6 8-16.9 6.8-9.5 16.1-15.9 27.9-19.1 2.8-.7 4.1-1.4 2.7-1.4s-4.3.6-6.5 1.3M.5 69v25.5h57l-28.2-.2L1 94 .7 68.7.4 43.5z"/></g></svg>